{
.appVersion = "3343";
.formatVersion = 3;
DisplayStrings = (
W
);
axes = (
{
name = Weight;
tag = wght;
}
);
date = "2025-02-09 20:11:06 +0000";
familyName = "Nuovi Angoli";
fontMaster = (
{
axesValues = (
150
);
iconName = Bold_Condensed;
id = m01;
metricValues = (
{
over = 16;
pos = 775;
},
{
over = 16;
pos = 650;
},
{
over = 16;
pos = 500;
},
{
over = -16;
},
{
over = -16;
pos = -150;
},
{
}
);
name = "Bold-Condensed";
userData = {
GSOffsetHorizontal = -25;
GSOffsetKeepCompatible = 1;
GSOffsetVertical = -15;
};
},
{
axesValues = (
70
);
iconName = SemiLight;
id = m002;
metricValues = (
{
over = 16;
pos = 775;
},
{
over = 16;
pos = 650;
},
{
over = 16;
pos = 433;
},
{
over = -16;
},
{
over = -16;
pos = -150;
},
{
}
);
name = Regular;
userData = {
GSOffsetHorizontal = -25;
GSOffsetKeepCompatible = 1;
GSOffsetVertical = -15;
};
}
);
glyphs = (
{
glyphname = A;
kernLeft = A;
kernRight = A;
lastChange = "2025-09-26 20:39:27 +0000";
layers = (
{
anchors = (
{
name = bottom;
pos = (230,0);
},
{
name = ogonek;
pos = (414,10);
},
{
name = top;
pos = (230,650);
}
);
background = {
anchors = (
{
name = bottom;
pos = (230,0);
},
{
name = ogonek;
pos = (414,10);
},
{
name = top;
pos = (230,650);
}
);
shapes = (
{
closed = 1;
nodes = (
(5,0,l),
(145,0,l),
(168,130,l),
(292,130,l),
(315,0,l),
(455,0,l),
(331,650,l),
(129,650,l)
);
},
{
closed = 1;
nodes = (
(230,472,l),
(274,240,l),
(186,240,l)
);
}
);
};
layerId = m01;
shapes = (
{
closed = 1;
nodes = (
(5,0,l),
(145,0,l),
(259,650,l),
(129,650,l)
);
},
{
closed = 1;
nodes = (
(201,650,l),
(315,0,l),
(455,0,l),
(331,650,l)
);
},
{
closed = 1;
nodes = (
(160,135,l),
(300,135,l),
(300,245,l),
(160,245,l)
);
}
);
width = 460;
},
{
anchors = (
{
name = bottom;
pos = (261,0);
},
{
name = ogonek;
pos = (466,10);
},
{
name = top;
pos = (261,650);
}
);
layerId = m002;
shapes = (
{
closed = 1;
nodes = (
(16,0,l),
(86,0,l),
(291,650,l),
(231,650,l)
);
},
{
closed = 1;
nodes = (
(231,650,l),
(436,0,l),
(506,0,l),
(291,650,l)
);
},
{
closed = 1;
nodes = (
(130,165,l),
(390,165,l),
(390,225,l),
(130,225,l)
);
}
);
width = 522;
}
);
metricLeft = "=O*.25";
metricRight = "=O*.25";
unicode = 65;
},
{
glyphname = AE;
kernLeft = A;
kernRight = E;
lastChange = "2025-09-26 20:39:27 +0000";
layers = (
{
anchors = (
{
name = bottom;
pos = (301,0);
},
{
name = top;
pos = (301,650);
}
);
layerId = m01;
shapes = (
{
closed = 1;
nodes = (
(22,0,l),
(162,0,l),
(352,650,l),
(222,650,l)
);
},
{
closed = 1;
nodes = (
(307,650,l),
(297,0,l),
(437,0,l),
(437,650,l)
);
},
{
closed = 1;
nodes = (
(183,135,l),
(323,135,l),
(323,245,l),
(183,245,l)
);
},
{
closed = 1;
nodes = (
(437,0,l),
(437,650,l)
);
},
{
closed = 1;
nodes = (
(437,270,l),
(577,270,l),
(577,380,l),
(437,380,l)
);
},
{
closed = 1;
nodes = (
(437,540,l),
(577,540,l),
(577,650,l),
(437,650,l)
);
},
{
closed = 1;
nodes = (
(437,0,l),
(577,0,l),
(577,110,l),
(437,110,l)
);
}
);
width = 602;
},
{
anchors = (
{
name = bottom;
pos = (375,0);
},
{
name = top;
pos = (375,650);
}
);
background = {
shapes = (
{
closed = 1;
nodes = (
(62,0,l),
(132,0,l),
(417,650,l),
(362,650,l)
);
},
{
closed = 1;
nodes = (
(362,650,l),
(362,0,l),
(432,0,l),
(432,650,l)
);
},
{
closed = 1;
nodes = (
(183,160,l),
(393,160,l),
(393,220,l),
(183,220,l)
);
},
{
closed = 1;
nodes = (
(432,0,l),
(432,650,l)
);
},
{
closed = 1;
nodes = (
(432,295,l),
(672,295,l),
(672,355,l),
(432,355,l)
);
},
{
closed = 1;
nodes = (
(432,590,l),
(672,590,l),
(672,650,l),
(432,650,l)
);
},
{
closed = 1;
nodes = (
(432,0,l),
(672,0,l),
(672,60,l),
(432,60,l)
);
}
);
};
layerId = m002;
shapes = (
{
closed = 1;
nodes = (
(62,0,l),
(132,0,l),
(417,650,l),
(362,650,l)
);
},
{
closed = 1;
nodes = (
(362,650,l),
(362,0,l),
(432,0,l),
(432,650,l)
);
},
{
closed = 1;
nodes = (
(183,160,l),
(393,160,l),
(393,220,l),
(183,220,l)
);
},
{
closed = 1;
nodes = (
(432,0,l),
(432,650,l)
);
},
{
closed = 1;
nodes = (
(432,295,l),
(672,295,l),
(672,355,l),
(432,355,l)
);
},
{
closed = 1;
nodes = (
(432,590,l),
(672,590,l),
(672,650,l),
(432,650,l)
);
},
{
closed = 1;
nodes = (
(432,0,l),
(672,0,l),
(672,60,l),
(432,60,l)
);
}
);
width = 742;
}
);
metricLeft = "=O";
metricRight = "=H";
unicode = 198;
},
{
glyphname = B;
kernLeft = H;
kernRight = B;
lastChange = "2025-09-26 20:39:27 +0000";
layers = (
{
anchors = (
{
name = bottom;
pos = (224,0);
},
{
name = center;
pos = (112,163);
},
{
name = top;
pos = (224,650);
}
);
background = {
hints = (
{
name = _corner.BASE;
scale = (1.08,1.08);
type = Corner;
},
{
name = _corner.BASE;
scale = (1.08,1.08);
type = Corner;
},
{
name = _corner.BASE;
scale = (0.3,0.3);
type = Corner;
},
{
name = _corner.BASE;
options = 2;
scale = (-0.3,0.3);
type = Corner;
},
{
name = _corner.BASE;
scale = (0.9,0.9);
type = Corner;
},
{
name = _corner.BASE;
scale = (1.08,1.08);
type = Corner;
},
{
name = _corner.BASE;
scale = (0.3,0.3);
type = Corner;
},
{
name = _corner.BASE;
options = 2;
scale = (-0.3,0.3);
type = Corner;
},
{
name = _corner.BASE;
scale = (1.08,1.08);
type = Corner;
},
{
name = _corner.BASE;
scale = (0.9,0.9);
type = Corner;
},
{
name = _corner.BASE;
scale = (0.3,0.3);
type = Corner;
},
{
name = _corner.BASE;
options = 2;
scale = (-0.3,0.3);
type = Corner;
},
{
name = _corner.ROUND;
origin = (0,1);
scale = (1.08,1.08);
type = Corner;
},
{
name = _segment.DOUBLECUT;
origin = (0,3);
type = Segment;
},
{
name = _corner.ROUND;
origin = (0,4);
scale = (0.8,0.8);
type = Corner;
},
{
name = _corner.ROUND;
origin = (1,0);
scale = (0.3,0.3);
type = Corner;
},
{
name = _corner.ROUND;
options = 2;
origin = (1,3);
scale = (-0.3,0.3);
type = Corner;
},
{
name = _corner.ROUND;
origin = (2,0);
scale = (0.3,0.3);
type = Corner;
},
{
name = _corner.ROUND;
options = 2;
origin = (2,3);
scale = (-0.3,0.3);
type = Corner;
}
);
shapes = (
{
closed = 1;
nodes = (
(25,0,l),
(425,0,l),
(425,248,l),
(425,452,l),
(425,700,l),
(25,700,l)
);
},
{
closed = 1;
nodes = (
(275,405,l),
(175,405,l),
(175,590,l),
(275,590,l)
);
},
{
closed = 1;
nodes = (
(275,110,l),
(175,110,l),
(175,295,l),
(275,295,l)
);
}
);
};
hints = (
{
name = _corner.ROUND;
origin = (0,1);
type = Corner;
},
{
name = _corner.ROUND;
origin = (0,4);
scale = (1.08,1.08);
type = Corner;
},
{
name = _corner.ROUND;
origin = (1,0);
scale = (0.3,0.3);
type = Corner;
},
{
name = _corner.ROUND;
options = 2;
origin = (1,3);
scale = (-0.3,0.3);
type = Corner;
},
{
name = _corner.ROUND;
origin = (0,1);
scale = (1.08,1.08);
type = Corner;
},
{
name = _corner.ROUND;
origin = (0,4);
scale = (0.8,0.8);
type = Corner;
},
{
name = _corner.ROUND;
origin = (2,0);
scale = (0.3,0.3);
type = Corner;
},
{
name = _corner.ROUND;
options = 2;
origin = (2,3);
scale = (-0.3,0.3);
type = Corner;
},
{
name = _segment.DOUBLECUT;
origin = (0,3);
type = Segment;
}
);
layerId = m01;
shapes = (
{
closed = 1;
nodes = (
(25,0,l),
(425,0,l),
(425,223,l),
(425,427,l),
(425,650,l),
(25,650,l)
);
},
{
closed = 1;
nodes = (
(275,380,l),
(175,380,l),
(175,540,l),
(275,540,l)
);
},
{
closed = 1;
nodes = (
(275,110,l),
(175,110,l),
(175,270,l),
(275,270,l)
);
}
);
width = 447;
},
{
anchors = (
{
name = bottom;
pos = (287,0);
},
{
name = center;
pos = (154,163);
},
{
name = top;
pos = (287,650);
}
);
hints = (
{
name = _corner.ROUND;
origin = (0,1);
type = Corner;
},
{
name = _corner.ROUND;
origin = (0,4);
scale = (1.08,1.08);
type = Corner;
},
{
name = _corner.ROUND;
origin = (1,0);
scale = (0.65,0.65);
type = Corner;
},
{
name = _corner.ROUND;
options = 2;
origin = (1,3);
scale = (-0.65,0.65);
type = Corner;
},
{
name = _corner.ROUND;
origin = (0,1);
scale = (1.08,1.08);
type = Corner;
},
{
name = _corner.ROUND;
origin = (0,4);
scale = (0.8,0.8);
type = Corner;
},
{
name = _corner.ROUND;
origin = (2,0);
scale = (0.65,0.65);
type = Corner;
},
{
name = _corner.ROUND;
options = 2;
origin = (2,3);
scale = (-0.65,0.65);
type = Corner;
},
{
name = _segment.DOUBLECUT;
origin = (0,3);
type = Segment;
}
);
layerId = m002;
shapes = (
{
closed = 1;
nodes = (
(70,0,l),
(510,0,l),
(510,223,l),
(510,427,l),
(510,650,l),
(70,650,l)
);
},
{
closed = 1;
nodes = (
(440,360,l),
(140,360,l),
(140,590,l),
(440,590,l)
);
},
{
closed = 1;
nodes = (
(440,60,l),
(140,60,l),
(140,300,l),
(440,300,l)
);
}
);
width = 572;
}
);
metricLeft = H;
metricRight = O;
unicode = 66;
},
{
glyphname = C;
kernLeft = O;
kernRight = C;
lastChange = "2025-09-27 21:31:56 +0000";
layers = (
{
anchors = (
{
name = bottom;
pos = (220,0);
},
{
name = top;
pos = (220,650);
}
);
background = {
hints = (
{
name = _corner.ROUND;
type = Corner;
},
{
name = _corner.ROUND;
scale = (1.08,1.08);
type = Corner;
},
{
name = _corner.ROUND;
scale = (1.08,1.08);
type = Corner;
},
{
name = _corner.ROUND;
type = Corner;
},
{
name = _corner.ROUND;
scale = (0.3,0.3);
type = Corner;
},
{
name = _corner.ROUND;
options = 2;
scale = (-0.3,0.3);
type = Corner;
},
{
name = _corner.ROUND;
scale = (0.3,0.3);
type = Corner;
},
{
name = _corner.ROUND;
options = 2;
scale = (-0.3,0.3);
type = Corner;
}
);
shapes = (
{
closed = 0;
nodes = (
(422,255,l),
(272,255,l)
);
}
);
};
hints = (
{
name = _corner.ROUND;
origin = (0,0);
type = Corner;
},
{
name = _corner.ROUND;
origin = (0,1);
scale = (1.08,1.08);
type = Corner;
},
{
name = _corner.ROUND;
origin = (0,10);
scale = (1.08,1.08);
type = Corner;
},
{
name = _corner.ROUND;
origin = (0,11);
type = Corner;
},
{
name = _corner.ROUND;
origin = (0,4);
scale = (0.3,0.3);
type = Corner;
},
{
name = _corner.ROUND;
options = 2;
origin = (0,5);
scale = (-0.3,0.3);
type = Corner;
},
{
name = _corner.ROUND;
origin = (0,6);
scale = (0.3,0.3);
type = Corner;
},
{
name = _corner.ROUND;
options = 2;
origin = (0,7);
scale = (-0.3,0.3);
type = Corner;
}
);
layerId = m01;
shapes = (
{
closed = 1;
nodes = (
(22,0,l),
(422,0,l),
(422,230,l),
(272,230,l),
(272,110,l),
(172,110,l),
(172,540,l),
(272,540,l),
(272,420,l),
(422,420,l),
(422,650,l),
(22,650,l)
);
}
);
width = 439;
},
{
anchors = (
{
name = bottom;
pos = (277,0);
},
{
name = top;
pos = (277,650);
}
);
background = {
hints = (
{
name = _corner.ROUND;
type = Corner;
},
{
name = _corner.ROUND;
scale = (1.08,1.08);
type = Corner;
},
{
name = _corner.ROUND;
scale = (1.08,1.08);
type = Corner;
},
{
name = _corner.ROUND;
type = Corner;
},
{
name = _corner.ROUND;
scale = (0.3,0.3);
type = Corner;
},
{
name = _corner.ROUND;
options = 2;
scale = (-0.3,0.3);
type = Corner;
},
{
name = _corner.ROUND;
scale = (0.3,0.3);
type = Corner;
},
{
name = _corner.ROUND;
options = 2;
scale = (-0.3,0.3);
type = Corner;
}
);
shapes = (
{
closed = 0;
nodes = (
(462,255,l),
(312,255,l)
);
}
);
};
hints = (
{
name = _corner.ROUND;
origin = (0,0);
type = Corner;
},
{
name = _corner.ROUND;
origin = (0,1);
scale = (1.08,1.08);
type = Corner;
},
{
name = _corner.ROUND;
origin = (0,10);
scale = (1.08,1.08);
type = Corner;
},
{
name = _corner.ROUND;
origin = (0,11);
type = Corner;
},
{
name = _corner.ROUND;
origin = (0,4);
scale = (0.65,0.65);
type = Corner;
},
{
name = _corner.ROUND;
options = 2;
origin = (0,5);
scale = (-0.6,0.6);
type = Corner;
},
{
name = _corner.ROUND;
origin = (0,6);
scale = (0.6,0.6);
type = Corner;
},
{
name = _corner.ROUND;
options = 2;
origin = (0,7);
scale = (-0.65,0.65);
type = Corner;
}
);
layerId = m002;
shapes = (
{
closed = 1;
nodes = (
(62,0,l),
(502,0,l),
(502,230,l),
(432,230,l),
(432,60,l),
(132,60,l),
(132,590,l),
(432,590,l),
(432,420,l),
(502,420,l),
(502,650,l),
(62,650,l)
);
}
);
width = 549;
}
);
metricLeft = O;
metricRight = "=O*.75";
unicode = 67;
},
{
glyphname = D;
kernLeft = H;
kernRight = O;
lastChange = "2025-09-26 20:39:27 +0000";
layers = (
{
anchors = (
{
name = bottom;
pos = (224,0);
},
{
name = center;
pos = (112,325);
},
{
name = top;
pos = (224,650);
}
);
hints = (
{
name = _corner.ROUND;
origin = (0,1);
scale = (1.08,1.08);
type = Corner;
},
{
name = _corner.ROUND;
origin = (0,2);
scale = (1.08,1.08);
type = Corner;
},
{
name = _corner.ROUND;
origin = (1,0);
scale = (0.3,0.3);
type = Corner;
},
{
name = _corner.ROUND;
options = 2;
origin = (1,3);
scale = (-0.3,0.3);
type = Corner;
}
);
layerId = m01;
shapes = (
{
closed = 1;
nodes = (
(25,0,l),
(425,0,l),
(425,650,l),
(25,650,l)
);
},
{
closed = 1;
nodes = (
(275,110,l),
(175,110,l),
(175,540,l),
(275,540,l)
);
}
);
width = 447;
},
{
anchors = (
{
name = bottom;
pos = (287,0);
},
{
name = center;
pos = (154,325);
},
{
name = top;
pos = (287,650);
}
);
hints = (
{
name = _corner.ROUND;
origin = (0,1);
scale = (1.08,1.08);
type = Corner;
},
{
name = _corner.ROUND;
origin = (0,2);
scale = (1.08,1.08);
type = Corner;
},
{
name = _corner.ROUND;
origin = (1,0);
scale = (0.65,0.65);
type = Corner;
},
{
name = _corner.ROUND;
options = 2;
origin = (1,3);
scale = (-0.65,0.65);
type = Corner;
}
);
layerId = m002;
shapes = (
{
closed = 1;
nodes = (
(70,0,l),
(510,0,l),
(510,650,l),
(70,650,l)
);
},
{
closed = 1;
nodes = (
(440,60,l),
(140,60,l),
(140,590,l),
(440,590,l)
);
}
);
width = 572;
}
);
metricLeft = H;
metricRight = O;
unicode = 68;
},
{
glyphname = E;
kernLeft = H;
kernRight = E;
lastChange = "2025-09-26 20:39:27 +0000";
layers = (
{
anchors = (
{
name = bottom;
pos = (169,0);
},
{
name = ogonek;
pos = (303,10);
},
{
name = top;
pos = (169,650);
},
{
name = topleft;
pos = (20,650);
}
);
background = {
shapes = (
{
closed = 1;
nodes = (
(25,0,l),
(175,0,l),
(175,700,l),
(25,700,l)
);
},
{
closed = 1;
nodes = (
(175,295,l),
(315,295,l),
(315,405,l),
(175,405,l)
);
},
{
closed = 1;
nodes = (
(175,590,l),
(315,590,l),
(315,700,l),
(175,700,l)
);
},
{
closed = 1;
nodes = (
(175,0,l),
(315,0,l),
(315,110,l),
(175,110,l)
);
}
);
};
layerId = m01;
shapes = (
{
closed = 1;
nodes = (
(25,0,l),
(175,0,l),
(175,650,l),
(25,650,l)
);
},
{
closed = 1;
nodes = (
(175,270,l),
(315,270,l),
(315,380,l),
(175,380,l)
);
},
{
closed = 1;
nodes = (
(175,540,l),
(315,540,l),
(315,650,l),
(175,650,l)
);
},
{
closed = 1;
nodes = (
(175,0,l),
(315,0,l),
(315,110,l),
(175,110,l)
);
}
);
width = 337;
},
{
anchors = (
{
name = bottom;
pos = (287,0);
},
{
name = ogonek;
pos = (501,10);
},
{
name = top;
pos = (287,650);
},
{
name = topleft;
pos = (40,650);
}
);
background = {
shapes = (
{
closed = 0;
nodes = (
(400,300,l),
(400,360,l)
);
},
{
closed = 0;
nodes = (
(400,590,l),
(400,650,l)
);
},
{
closed = 0;
nodes = (
(400,0,l),
(400,60,l)
);
}
);
};
layerId = m002;
shapes = (
{
closed = 1;
nodes = (
(70,0,l),
(140,0,l),
(140,650,l),
(70,650,l)
);
},
{
closed = 1;
nodes = (
(140,300,l),
(470,300,l),
(470,360,l),
(140,360,l)
);
},
{
closed = 1;
nodes = (
(140,590,l),
(510,590,l),
(510,650,l),
(140,650,l)
);
},
{
closed = 1;
nodes = (
(140,0,l),
(510,0,l),
(510,60,l),
(140,60,l)
);
}
);
width = 572;
}
);
metricLeft = H;
metricRight = O;
unicode = 69;
},
{
glyphname = F;
kernLeft = H;
kernRight = F;
lastChange = "2025-09-26 21:07:37 +0000";
layers = (
{
anchors = (
{
name = bottom;
pos = (169,0);
},
{
name = top;
pos = (169,650);
}
);
layerId = m01;
shapes = (
{
closed = 1;
nodes = (
(25,0,l),
(175,0,l),
(175,650,l),
(25,650,l)
);
},
{
closed = 1;
nodes = (
(175,270,l),
(315,270,l),
(315,380,l),
(175,380,l)
);
},
{
closed = 1;
nodes = (
(175,540,l),
(315,540,l),
(315,650,l),
(175,650,l)
);
}
);
width = 332;
},
{
anchors = (
{
name = bottom;
pos = (287,0);
},
{
name = top;
pos = (287,650);
}
);
layerId = m002;
shapes = (
{
closed = 1;
nodes = (
(70,0,l),
(140,0,l),
(140,650,l),
(70,650,l)
);
},
{
closed = 1;
nodes = (
(140,300,l),
(470,300,l),
(470,360,l),
(140,360,l)
);
},
{
closed = 1;
nodes = (
(140,590,l),
(510,590,l),
(510,650,l),
(140,650,l)
);
}
);
width = 557;
}
);
metricLeft = H;
metricRight = "=O*.75";
unicode = 70;
},
{
glyphname = G;
kernLeft = O;
kernRight = G;
lastChange = "2025-09-26 20:39:27 +0000";
layers = (
{
anchors = (
{
name = bottom;
pos = (222,0);
},
{
name = top;
pos = (222,650);
}
);
hints = (
{
name = _corner.ROUND;
origin = (0,0);
type = Corner;
},
{
name = _corner.ROUND;
origin = (0,1);
scale = (1.08,1.08);
type = Corner;
},
{
name = _corner.ROUND;
origin = (0,6);
scale = (0.3,0.3);
type = Corner;
},
{
name = _corner.ROUND;
options = 2;
origin = (0,7);
scale = (-0.3,0.3);
type = Corner;
},
{
name = _corner.ROUND;
origin = (0,8);
scale = (0.3,0.3);
type = Corner;
},
{
name = _corner.ROUND;
options = 2;
origin = (0,9);
scale = (-0.3,0.3);
type = Corner;
},
{
name = _corner.ROUND;
origin = (0,12);
scale = (1.08,1.08);
type = Corner;
},
{
name = _corner.ROUND;
origin = (0,13);
type = Corner;
}
);
layerId = m01;
shapes = (
{
closed = 1;
nodes = (
(22,0,l),
(422,0,l),
(422,340,l),
(222,340,l),
(222,230,l),
(272,230,l),
(272,110,l),
(172,110,l),
(172,540,l),
(272,540,l),
(272,420,l),
(422,420,l),
(422,650,l),
(22,650,l)
);
}
);
width = 444;
},
{
anchors = (
{
name = bottom;
pos = (282,0);
},
{
name = top;
pos = (282,650);
}
);
hints = (
{
name = _corner.ROUND;
origin = (0,0);
type = Corner;
},
{
name = _corner.ROUND;
origin = (0,1);
scale = (1.08,1.08);
type = Corner;
},
{
name = _corner.ROUND;
origin = (0,6);
scale = (0.65,0.65);
type = Corner;
},
{
name = _corner.ROUND;
options = 2;
origin = (0,7);
scale = (-0.65,0.65);
type = Corner;
},
{
name = _corner.ROUND;
origin = (0,8);
scale = (0.65,0.65);
type = Corner;
},
{
name = _corner.ROUND;
options = 2;
origin = (0,9);
scale = (-0.65,0.65);
type = Corner;
},
{
name = _corner.ROUND;
origin = (0,12);
scale = (1.08,1.08);
type = Corner;
},
{
name = _corner.ROUND;
origin = (0,13);
type = Corner;
}
);
layerId = m002;
shapes = (
{
closed = 1;
nodes = (
(62,0,l),
(502,0,l),
(502,340,l),
(352,340,l),
(352,280,l),
(432,280,l),
(432,60,l),
(132,60,l),
(132,590,l),
(432,590,l),
(432,420,l),
(502,420,l),
(502,650,l),
(62,650,l)
);
}
);
width = 564;
}
);
metricLeft = O;
metricRight = O;
unicode = 71;
},
{
glyphname = H;
kernLeft = H;
kernRight = H;
lastChange = "2025-09-26 20:40:43 +0000";
layers = (
{
anchors = (
{
name = bottom;
pos = (225,0);
},
{
name = center;
pos = (225,488);
},
{
name = top;
pos = (225,650);
},
{
name = topleft;
pos = (20,650);
}
);
background = {
shapes = (
{
closed = 1;
nodes = (
(25,0,l),
(175,0,l),
(175,700,l),
(25,700,l)
);
},
{
closed = 1;
nodes = (
(165,295,l),
(285,295,l),
(285,405,l),
(165,405,l)
);
},
{
closed = 1;
nodes = (
(275,0,l),
(425,0,l),
(425,700,l),
(275,700,l)
);
}
);
};
layerId = m01;
shapes = (
{
closed = 1;
nodes = (
(25,0,l),
(175,0,l),
(175,270,l),
(275,270,l),
(275,0,l),
(425,0,l),
(425,650,l),
(275,650,l),
(275,380,l),
(175,380,l),
(175,650,l),
(25,650,l)
);
}
);
width = 450;
},
{
anchors = (
{
name = bottom;
pos = (290,0);
},
{
name = center;
pos = (290,488);
},
{
name = top;
pos = (290,650);
},
{
name = topleft;
pos = (40,650);
}
);
layerId = m002;
shapes = (
{
closed = 1;
nodes = (
(70,0,l),
(140,0,l),
(140,300,l),
(440,300,l),
(440,0,l),
(510,0,l),
(510,650,l),
(440,650,l),
(440,360,l),
(140,360,l),
(140,650,l),
(70,650,l)
);
}
);
width = 580;
}
);
unicode = 72;
},
{
glyphname = I;
kernLeft = H;
kernRight = H;
lastChange = "2025-09-26 20:39:27 +0000";
layers = (
{
anchors = (
{
name = bottom;
pos = (100,0);
},
{
name = ogonek;
pos = (180,10);
},
{
name = top;
pos = (100,650);
},
{
name = topleft;
pos = (20,650);
}
);
layerId = m01;
shapes = (
{
closed = 1;
nodes = (
(25,0,l),
(175,0,l),
(175,650,l),
(25,650,l)
);
}
);
width = 200;
},
{
anchors = (
{
name = bottom;
pos = (105,0);
},
{
name = ogonek;
pos = (185,10);
},
{
name = top;
pos = (105,650);
},
{
name = topleft;
pos = (25,650);
}
);
layerId = m002;
shapes = (
{
closed = 1;
nodes = (
(70,0,l),
(140,0,l),
(140,650,l),
(70,650,l)
);
}
);
width = 210;
}
);
metricLeft = H;
metricRight = H;
unicode = 73;
},
{
glyphname = J;
kernLeft = J;
kernRight = J;
lastChange = "2025-09-26 20:39:27 +0000";
layers = (
{
anchors = (
{
name = bottom;
pos = (220,0);
},
{
name = top;
pos = (343,650);
}
);
background = {
hints = (
{
name = _corner.ROUND;
type = Corner;
},
{
name = _corner.ROUND;
scale = (1.08,1.08);
type = Corner;
},
{
name = _corner.ROUND;
scale = (0.3,0.3);
type = Corner;
},
{
name = _corner.ROUND;
options = 2;
scale = (-0.3,0.3);
type = Corner;
},
{
name = _corner.ROUND;
origin = (0,0);
scale = (0.3,0.3);
type = Corner;
},
{
name = _corner.ROUND;
options = 2;
origin = (0,1);
scale = (-0.3,0.3);
type = Corner;
},
{
name = _corner.ROUND;
origin = (0,4);
type = Corner;
},
{
name = _corner.ROUND;
origin = (0,5);
scale = (1.08,1.08);
type = Corner;
}
);
shapes = (
{
closed = 1;
nodes = (
(267,110,l),
(167,110,l),
(167,255,l),
(17,255,l),
(17,0,l),
(417,0,l),
(417,700,l),
(267,700,l)
);
}
);
};
hints = (
{
name = _corner.ROUND;
origin = (0,4);
type = Corner;
},
{
name = _corner.ROUND;
origin = (0,5);
scale = (1.08,1.08);
type = Corner;
},
{
name = _corner.ROUND;
origin = (0,0);
scale = (0.3,0.3);
type = Corner;
},
{
name = _corner.ROUND;
options = 2;
origin = (0,1);
scale = (-0.3,0.3);
type = Corner;
}
);
layerId = m01;
shapes = (
{
closed = 1;
nodes = (
(267,110,l),
(167,110,l),
(167,230,l),
(17,230,l),
(17,0,l),
(417,0,l),
(417,650,l),
(267,650,l)
);
}
);
width = 439;
},
{
anchors = (
{
name = bottom;
pos = (243,0);
},
{
name = top;
pos = (375,650);
}
);
hints = (
{
name = _corner.ROUND;
origin = (0,4);
type = Corner;
},
{
name = _corner.ROUND;
origin = (0,5);
scale = (1.08,1.08);
type = Corner;
},
{
name = _corner.ROUND;
origin = (0,0);
scale = (0.65,0.65);
type = Corner;
},
{
name = _corner.ROUND;
options = 2;
origin = (0,1);
scale = (-0.65,0.65);
type = Corner;
}
);
layerId = m002;
shapes = (
{
closed = 1;
nodes = (
(357,60,l),
(117,60,l),
(117,230,l),
(47,230,l),
(47,0,l),
(427,0,l),
(427,650,l),
(357,650,l)
);
}
);
width = 489;
}
);
metricLeft = "=O*.75";
metricRight = O;
unicode = 74;
},
{
glyphname = K;
kernLeft = H;
kernRight = K;
lastChange = "2025-09-26 20:39:27 +0000";
layers = (
{
anchors = (
{
name = bottom;
pos = (233,0);
},
{
name = top;
pos = (233,650);
}
);
background = {
shapes = (
{
closed = 1;
nodes = (
(455,650,l),
(305,650,l),
(145,325,l),
(295,325,l)
);
},
{
closed = 1;
nodes = (
(25,0,l),
(175,0,l),
(175,650,l),
(25,650,l)
);
},
{
closed = 1;
nodes = (
(305,0,l),
(455,0,l)
);
}
);
};
layerId = m01;
shapes = (
{
closed = 1;
nodes = (
(295,325,l),
(455,650,l),
(305,650,l),
(145,325,l)
);
},
{
closed = 1;
nodes = (
(175,0,l),
(175,650,l),
(25,650,l),
(25,0,l)
);
},
{
closed = 1;
nodes = (
(455,0,l),
(295,325,l),
(145,325,l),
(305,0,l)
);
}
);
width = 466;
},
{
anchors = (
{
name = bottom;
pos = (276,0);
},
{
name = top;
pos = (276,650);
}
);
background = {
anchors = (
{
name = bottom;
pos = (276,0);
},
{
name = top;
pos = (276,650);
}
);
shapes = (
{
closed = 1;
nodes = (
(140,178,l),
(510,650,l),
(440,650,l),
(70,178,l)
);
},
{
closed = 0;
nodes = (
(70,0,l),
(70,650,l)
);
},
{
closed = 1;
nodes = (
(140,0,l),
(140,650,l),
(70,650,l),
(70,0,l)
);
},
{
closed = 1;
nodes = (
(510,0,l),
(290,387,l),
(248,337,l),
(440,0,l)
);
},
{
closed = 0;
nodes = (
(70,650,l),
(140,650,l)
);
}
);
};
layerId = m002;
shapes = (
{
closed = 1;
nodes = (
(140,178,l),
(510,650,l),
(440,650,l),
(70,178,l)
);
},
{
closed = 1;
nodes = (
(140,0,l),
(140,650,l),
(70,650,l),
(70,0,l)
);
},
{
closed = 1;
nodes = (
(510,0,l),
(290,387,l),
(248,337,l),
(440,0,l)
);
}
);
width = 541;
}
);
metricLeft = H;
metricRight = "=O*.5";
unicode = 75;
},
{
glyphname = L;
kernLeft = H;
kernRight = L;
lastChange = "2025-09-26 20:39:27 +0000";
layers = (
{
anchors = (
{
name = bottom;
pos = (166,0);
},
{
name = center;
pos = (166,325);
},
{
name = top;
pos = (166,650);
},
{
name = topright;
pos = (312,650);
}
);
background = {
shapes = (
{
closed = 1;
nodes = (
(25,0,l),
(175,0,l),
(175,700,l),
(25,700,l)
);
},
{
closed = 1;
nodes = (
(175,0,l),
(315,0,l),
(315,110,l),
(175,110,l)
);
}
);
};
layerId = m01;
shapes = (
{
closed = 1;
nodes = (
(25,0,l),
(175,0,l),
(175,650,l),
(25,650,l)
);
},
{
closed = 1;
nodes = (
(175,0,l),
(315,0,l),
(315,110,l),
(175,110,l)
);
}
);
width = 332;
},
{
anchors = (
{
name = bottom;
pos = (252,0);
},
{
name = center;
pos = (252,325);
},
{
name = top;
pos = (252,650);
},
{
name = topright;
pos = (463,650);
}
);
layerId = m002;
shapes = (
{
closed = 1;
nodes = (
(70,0,l),
(140,0,l),
(140,650,l),
(70,650,l)
);
},
{
closed = 1;
nodes = (
(140,0,l),
(450,0,l),
(450,60,l),
(140,60,l)
);
}
);
width = 497;
}
);
metricLeft = H;
metricRight = "=O*.75";
unicode = 76;
},
{
glyphname = M;
kernLeft = M;
kernRight = M;
lastChange = "2025-09-26 20:39:27 +0000";
layers = (
{
anchors = (
{
name = bottom;
pos = (315,0);
},
{
name = top;
pos = (315,650);
}
);
background = {
shapes = (
{
closed = 1;
nodes = (
(375,0,l),
(175,650,l),
(65,650,l),
(255,0,l)
);
},
{
closed = 1;
nodes = (
(566,650,l),
(455,650,l),
(255,0,l),
(375,0,l)
);
}
);
};
layerId = m01;
shapes = (
{
closed = 1;
nodes = (
(25,0,l),
(175,0,l),
(175,650,l),
(25,650,l)
);
},
{
closed = 1;
nodes = (
(375,0,l),
(205,650,l),
(85,650,l),
(245,0,l)
);
},
{
closed = 1;
nodes = (
(455,650,l),
(455,0,l),
(605,0,l),
(605,650,l)
);
},
{
closed = 1;
nodes = (
(535,650,l),
(415,650,l),
(245,0,l),
(375,0,l)
);
}
);
width = 630;
},
{
anchors = (
{
name = bottom;
pos = (345,0);
},
{
name = top;
pos = (345,650);
}
);
layerId = m002;
shapes = (
{
closed = 1;
nodes = (
(70,0,l),
(140,0,l),
(140,650,l),
(70,650,l)
);
},
{
closed = 1;
nodes = (
(380,0,l),
(180,650,l),
(110,650,l),
(310,0,l)
);
},
{
closed = 1;
nodes = (
(550,650,l),
(550,0,l),
(620,0,l),
(620,650,l)
);
},
{
closed = 1;
nodes = (
(580,650,l),
(510,650,l),
(310,0,l),
(380,0,l)
);
}
);
width = 690;
}
);
metricLeft = H;
metricRight = H;
metricWidth = 638N;
unicode = 77;
},
{
glyphname = N;
kernLeft = H;
kernRight = H;
lastChange = "2025-09-26 20:39:27 +0000";
layers = (
{
anchors = (
{
name = bottom;
pos = (253,0);
},
{
name = top;
pos = (253,650);
}
);
layerId = m01;
shapes = (
{
closed = 1;
nodes = (
(25,0,l),
(175,0,l),
(175,650,l),
(25,650,l)
);
},
{
closed = 1;
nodes = (
(460,0,l),
(175,650,l),
(35,650,l),
(330,0,l)
);
},
{
closed = 1;
nodes = (
(330,0,l),
(480,0,l),
(480,650,l),
(330,650,l)
);
}
);
width = 505;
},
{
anchors = (
{
name = bottom;
pos = (290,0);
},
{
name = top;
pos = (290,650);
}
);
layerId = m002;
shapes = (
{
closed = 1;
nodes = (
(70,0,l),
(140,0,l),
(140,650,l),
(70,650,l)
);
},
{
closed = 1;
nodes = (
(510,0,l),
(140,650,l),
(70,650,l),
(440,0,l)
);
},
{
closed = 1;
nodes = (
(440,0,l),
(510,0,l),
(510,650,l),
(440,650,l)
);
}
);
width = 580;
}
);
metricLeft = "=H";
metricRight = "=H";
unicode = 78;
},
{
glyphname = O;
kernLeft = O;
kernRight = O;
lastChange = "2025-09-26 20:39:14 +0000";
layers = (
{
anchors = (
{
name = bottom;
pos = (222,0);
},
{
name = center;
pos = (222,325);
},
{
name = ogonek;
pos = (400,10);
},
{
name = top;
pos = (222,650);
},
{
name = topleft;
pos = (20,650);
},
{
name = topright;
pos = (424,650);
}
);
hints = (
{
name = _corner.ROUND;
origin = (0,1);
type = Corner;
},
{
name = _corner.ROUND;
origin = (0,2);
type = Corner;
},
{
name = _corner.ROUND;
origin = (1,0);
scale = (0.3,0.3);
type = Corner;
},
{
name = _corner.ROUND;
options = 2;
origin = (1,3);
scale = (-0.3,0.3);
type = Corner;
},
{
name = _corner.ROUND;
origin = (1,1);
scale = (0.3,0.3);
type = Corner;
},
{
name = _corner.ROUND;
options = 2;
origin = (1,2);
scale = (-0.3,0.3);
type = Corner;
},
{
name = _corner.ROUND;
origin = (0,3);
type = Corner;
},
{
name = _corner.ROUND;
origin = (0,0);
type = Corner;
}
);
layerId = m01;
shapes = (
{
closed = 1;
nodes = (
(22,0,l),
(422,0,l),
(422,650,l),
(22,650,l)
);
},
{
closed = 1;
nodes = (
(272,110,l),
(172,110,l),
(172,540,l),
(272,540,l)
);
}
);
width = 444;
},
{
anchors = (
{
name = bottom;
pos = (282,0);
},
{
name = center;
pos = (282,325);
},
{
name = ogonek;
pos = (493,10);
},
{
name = top;
pos = (282,650);
},
{
name = topleft;
pos = (38,650);
},
{
name = topright;
pos = (526,650);
}
);
hints = (
{
name = _corner.ROUND;
origin = (0,1);
type = Corner;
},
{
name = _corner.ROUND;
origin = (0,2);
type = Corner;
},
{
name = _corner.ROUND;
origin = (1,0);
scale = (0.65,0.65);
type = Corner;
},
{
name = _corner.ROUND;
options = 2;
origin = (1,3);
scale = (-0.65,0.65);
type = Corner;
},
{
name = _corner.ROUND;
origin = (1,1);
scale = (0.65,0.65);
type = Corner;
},
{
name = _corner.ROUND;
options = 2;
origin = (1,2);
scale = (-0.65,0.65);
type = Corner;
},
{
name = _corner.ROUND;
origin = (0,3);
type = Corner;
},
{
name = _corner.ROUND;
origin = (0,0);
type = Corner;
}
);
layerId = m002;
shapes = (
{
closed = 1;
nodes = (
(62,0,l),
(502,0,l),
(502,650,l),
(62,650,l)
);
},
{
closed = 1;
nodes = (
(432,60,l),
(132,60,l),
(132,590,l),
(432,590,l)
);
}
);
width = 564;
}
);
unicode = 79;
},
{
glyphname = OE;
kernLeft = O;
kernRight = E;
lastChange = "2025-09-26 20:39:27 +0000";
layers = (
{
anchors = (
{
name = bottom;
pos = (295,0);
},
{
name = top;
pos = (295,650);
}
);
hints = (
{
name = _corner.ROUND;
origin = (1,0);
scale = (0.3,0.3);
type = Corner;
},
{
name = _corner.ROUND;
options = 2;
origin = (1,3);
scale = (-0.3,0.3);
type = Corner;
},
{
name = _corner.ROUND;
origin = (1,1);
scale = (0.3,0.3);
type = Corner;
},
{
name = _corner.ROUND;
options = 2;
origin = (1,2);
scale = (-0.3,0.3);
type = Corner;
},
{
name = _corner.ROUND;
origin = (0,5);
type = Corner;
},
{
name = _corner.ROUND;
origin = (0,0);
type = Corner;
},
{
name = _segment.CUT;
options = 1;
origin = (0,2);
scale = (-1,1);
type = Segment;
},
{
name = _segment.CUT;
origin = (0,4);
type = Segment;
}
);
layerId = m01;
shapes = (
{
closed = 1;
nodes = (
(25,0,l),
(195,0,l),
(275,0,l),
(275,650,l),
(195,650,l),
(25,650,l)
);
},
{
closed = 1;
nodes = (
(275,110,l),
(175,110,l),
(175,540,l),
(275,540,l)
);
},
{
closed = 1;
nodes = (
(275,0,l),
(425,0,l),
(425,650,l),
(275,650,l)
);
},
{
closed = 1;
nodes = (
(425,270,l),
(565,270,l),
(565,380,l),
(425,380,l)
);
},
{
closed = 1;
nodes = (
(425,540,l),
(565,540,l),
(565,650,l),
(425,650,l)
);
},
{
closed = 1;
nodes = (
(425,0,l),
(565,0,l),
(565,110,l),
(425,110,l)
);
}
);
width = 590;
},
{
anchors = (
{
name = bottom;
pos = (375,0);
},
{
name = top;
pos = (375,650);
}
);
hints = (
{
name = _corner.ROUND;
origin = (1,0);
scale = (0.5,0.5);
type = Corner;
},
{
name = _corner.ROUND;
options = 2;
origin = (1,3);
scale = (-0.5,0.5);
type = Corner;
},
{
name = _corner.ROUND;
origin = (1,1);
scale = (0.5,0.5);
type = Corner;
},
{
name = _corner.ROUND;
options = 2;
origin = (1,2);
scale = (-0.5,0.5);
type = Corner;
},
{
name = _corner.ROUND;
origin = (0,5);
type = Corner;
},
{
name = _corner.ROUND;
origin = (0,0);
type = Corner;
},
{
name = _segment.CUT;
options = 1;
origin = (0,2);
scale = (-1,1);
type = Segment;
},
{
name = _segment.CUT;
origin = (0,4);
type = Segment;
}
);
layerId = m002;
shapes = (
{
closed = 1;
nodes = (
(70,0,l),
(290,0,l),
(370,0,l),
(370,650,l),
(290,650,l),
(70,650,l)
);
},
{
closed = 1;
nodes = (
(370,60,l),
(140,60,l),
(140,590,l),
(370,590,l)
);
},
{
closed = 1;
nodes = (
(370,0,l),
(440,0,l),
(440,650,l),
(370,650,l)
);
},
{
closed = 1;
nodes = (
(440,295,l),
(680,295,l),
(680,355,l),
(440,355,l)
);
},
{
closed = 1;
nodes = (
(440,590,l),
(680,590,l),
(680,650,l),
(440,650,l)
);
},
{
closed = 1;
nodes = (
(440,0,l),
(680,0,l),
(680,60,l),
(440,60,l)
);
}
);
width = 750;
}
);
metricLeft = "=H";
metricRight = "=H";
unicode = 338;
},
{
glyphname = P;
kernLeft = H;
kernRight = P;
lastChange = "2025-09-26 20:39:27 +0000";
layers = (
{
anchors = (
{
name = bottom;
pos = (221,0);
},
{
name = top;
pos = (221,650);
}
);
hints = (
{
name = _corner.ROUND;
origin = (0,3);
scale = (1.08,1.08);
type = Corner;
},
{
name = _corner.ROUND;
origin = (0,4);
scale = (1.08,1.08);
type = Corner;
},
{
name = _corner.ROUND;
origin = (1,0);
scale = (0.3,0.3);
type = Corner;
},
{
name = _corner.ROUND;
options = 2;
origin = (1,3);
scale = (-0.3,0.3);
type = Corner;
}
);
layerId = m01;
shapes = (
{
closed = 1;
nodes = (
(25,0,l),
(175,0,l),
(175,270,l),
(425,270,l),
(425,650,l),
(25,650,l)
);
},
{
closed = 1;
nodes = (
(275,380,l),
(175,380,l),
(175,540,l),
(275,540,l)
);
}
);
width = 442;
},
{
anchors = (
{
name = bottom;
pos = (282,0);
},
{
name = top;
pos = (282,650);
}
);
hints = (
{
name = _corner.ROUND;
origin = (0,3);
scale = (1.08,1.08);
type = Corner;
},
{
name = _corner.ROUND;
origin = (0,4);
scale = (1.08,1.08);
type = Corner;
},
{
name = _corner.ROUND;
origin = (1,0);
scale = (0.7,0.7);
type = Corner;
},
{
name = _corner.ROUND;
options = 2;
origin = (1,3);
scale = (-0.65,0.65);
type = Corner;
}
);
layerId = m002;
shapes = (
{
closed = 1;
nodes = (
(70,0,l),
(140,0,l),
(140,270,l),
(510,270,l),
(510,650,l),
(70,650,l)
);
},
{
closed = 1;
nodes = (
(440,330,l),
(140,330,l),
(140,590,l),
(440,590,l)
);
}
);
width = 557;
}
);
metricLeft = H;
metricRight = "=O*.75";
unicode = 80;
},
{
glyphname = Thorn;
kernLeft = H;
kernRight = Thorn;
lastChange = "2025-09-26 20:39:27 +0000";
layers = (
{
anchors = (
{
name = bottom;
pos = (224,0);
},
{
name = top;
pos = (224,650);
}
);
hints = (
{
name = _corner.ROUND;
origin = (0,1);
scale = (1.08,1.08);
type = Corner;
},
{
name = _corner.ROUND;
origin = (0,2);
scale = (1.08,1.08);
type = Corner;
},
{
name = _corner.ROUND;
origin = (1,0);
scale = (0.3,0.3);
type = Corner;
},
{
name = _corner.ROUND;
options = 2;
origin = (1,3);
scale = (-0.3,0.3);
type = Corner;
}
);
layerId = m01;
shapes = (
{
closed = 1;
nodes = (
(25,125,l),
(425,125,l),
(425,500,l),
(25,500,l)
);
},
{
closed = 1;
nodes = (
(275,235,l),
(175,235,l),
(175,390,l),
(275,390,l)
);
},
{
closed = 1;
nodes = (
(25,0,l),
(175,0,l),
(175,650,l),
(25,650,l)
);
}
);
width = 447;
},
{
anchors = (
{
name = bottom;
pos = (269,0);
},
{
name = top;
pos = (269,650);
}
);
hints = (
{
name = _corner.ROUND;
origin = (0,1);
scale = (1.08,1.08);
type = Corner;
},
{
name = _corner.ROUND;
origin = (0,2);
scale = (1.08,1.08);
type = Corner;
},
{
name = _corner.ROUND;
origin = (1,0);
scale = (0.5,0.5);
type = Corner;
},
{
name = _corner.ROUND;
options = 2;
origin = (1,3);
scale = (-0.5,0.5);
type = Corner;
}
);
layerId = m002;
shapes = (
{
closed = 1;
nodes = (
(70,125,l),
(470,125,l),
(470,500,l),
(70,500,l)
);
},
{
closed = 1;
nodes = (
(400,185,l),
(140,185,l),
(140,440,l),
(400,440,l)
);
},
{
closed = 1;
nodes = (
(70,0,l),
(140,0,l),
(140,650,l),
(70,650,l)
);
}
);
width = 532;
}
);
metricLeft = "=H";
metricRight = "=O";
unicode = 222;
},
{
glyphname = Q;
kernLeft = O;
kernRight = Q;
lastChange = "2025-09-26 20:53:46 +0000";
layers = (
{
anchors = (
{
name = bottom;
pos = (233,0);
},
{
name = top;
pos = (233,650);
}
);
hints = (
{
name = _corner.ROUND;
origin = (0,0);
type = Corner;
},
{
name = _corner.ROUND;
origin = (0,1);
type = Corner;
},
{
name = _corner.ROUND;
origin = (0,2);
type = Corner;
},
{
name = _corner.ROUND;
origin = (0,3);
type = Corner;
},
{
name = _corner.ROUND;
origin = (1,0);
scale = (0.3,0.3);
type = Corner;
},
{
name = _corner.ROUND;
origin = (1,1);
scale = (0.3,0.3);
type = Corner;
},
{
name = _corner.ROUND;
options = 2;
origin = (1,2);
scale = (-0.3,0.3);
type = Corner;
},
{
name = _corner.ROUND;
options = 2;
origin = (1,3);
scale = (-0.3,0.3);
type = Corner;
}
);
layerId = m01;
shapes = (
{
closed = 1;
nodes = (
(22,0,l),
(422,0,l),
(422,650,l),
(22,650,l)
);
},
{
closed = 1;
nodes = (
(272,110,l),
(172,110,l),
(172,540,l),
(272,540,l)
);
},
{
closed = 1;
nodes = (
(385,-39,l),
(463,39,l),
(385,117,l),
(307,39,l)
);
}
);
width = 466;
},
{
anchors = (
{
name = bottom;
pos = (274,0);
},
{
name = top;
pos = (274,650);
}
);
hints = (
{
name = _corner.ROUND;
origin = (0,0);
type = Corner;
},
{
name = _corner.ROUND;
origin = (0,1);
type = Corner;
},
{
name = _corner.ROUND;
origin = (0,2);
type = Corner;
},
{
name = _corner.ROUND;
origin = (0,3);
type = Corner;
},
{
name = _corner.ROUND;
origin = (1,0);
scale = (0.65,0.65);
type = Corner;
},
{
name = _corner.ROUND;
origin = (1,1);
scale = (0.65,0.65);
type = Corner;
},
{
name = _corner.ROUND;
options = 2;
origin = (1,2);
scale = (-0.65,0.65);
type = Corner;
},
{
name = _corner.ROUND;
options = 2;
origin = (1,3);
scale = (-0.65,0.65);
type = Corner;
}
);
layerId = m002;
shapes = (
{
closed = 1;
nodes = (
(62,0,l),
(502,0,l),
(502,650,l),
(62,650,l)
);
},
{
closed = 1;
nodes = (
(432,60,l),
(132,60,l),
(132,590,l),
(432,590,l)
);
},
{
closed = 1;
nodes = (
(425,24,l),
(474,-25,l),
(524,24,l),
(474,73,l)
);
}
);
width = 532;
}
);
metricLeft = O;
metricRight = "=O*.125";
unicode = 81;
},
{
glyphname = R;
kernLeft = H;
kernRight = R;
lastChange = "2025-09-26 20:39:27 +0000";
layers = (
{
anchors = (
{
name = bottom;
pos = (224,0);
},
{
name = top;
pos = (224,650);
}
);
background = {
hints = (
{
name = _corner.ROUND;
options = 2;
scale = (-0.3,0.3);
type = Corner;
},
{
name = _corner.ROUND;
scale = (0.8,0.8);
type = Corner;
},
{
name = _corner.ROUND;
scale = (0.8,0.8);
type = Corner;
},
{
name = _corner.ROUND;
scale = (0.3,0.3);
type = Corner;
},
{
name = _corner.ROUND;
options = 2;
scale = (-0.3,0.3);
type = Corner;
},
{
name = _corner.ROUND;
options = 2;
origin = (0,3);
scale = (-0.3,0.3);
type = Corner;
},
{
name = _segment.DOUBLECUT;
origin = (0,7);
type = Segment;
},
{
name = _corner.ROUND;
origin = (0,8);
scale = (0.8,0.8);
type = Corner;
},
{
name = _corner.ROUND;
origin = (1,0);
scale = (0.3,0.3);
type = Corner;
},
{
name = _corner.ROUND;
options = 2;
origin = (1,3);
scale = (-0.3,0.3);
type = Corner;
}
);
shapes = (
{
closed = 1;
nodes = (
(25,0,l),
(175,0,l),
(175,295,l),
(275,295,l),
(275,0,l),
(425,0,l),
(425,248,l),
(425,452,l),
(425,700,l),
(25,700,l)
);
},
{
closed = 1;
nodes = (
(275,405,l),
(175,405,l),
(175,590,l),
(275,590,l)
);
}
);
};
hints = (
{
name = _corner.ROUND;
origin = (0,8);
scale = (1.08,1.08);
type = Corner;
},
{
name = _corner.ROUND;
origin = (1,0);
scale = (0.3,0.3);
type = Corner;
},
{
name = _corner.ROUND;
options = 2;
origin = (1,3);
scale = (-0.3,0.3);
type = Corner;
},
{
name = _corner.ROUND;
origin = (0,8);
scale = (0.8,0.8);
type = Corner;
},
{
name = _corner.ROUND;
options = 2;
origin = (0,3);
scale = (-0.3,0.3);
type = Corner;
},
{
name = _segment.DOUBLECUT;
origin = (0,7);
type = Segment;
}
);
layerId = m01;
shapes = (
{
closed = 1;
nodes = (
(25,0,l),
(175,0,l),
(175,270,l),
(275,270,l),
(275,0,l),
(425,0,l),
(425,223,l),
(425,427,l),
(425,650,l),
(25,650,l)
);
},
{
closed = 1;
nodes = (
(275,380,l),
(175,380,l),
(175,540,l),
(275,540,l)
);
}
);
width = 447;
},
{
anchors = (
{
name = bottom;
pos = (287,0);
},
{
name = top;
pos = (287,650);
}
);
hints = (
{
name = _corner.ROUND;
origin = (0,8);
scale = (1.08,1.08);
type = Corner;
},
{
name = _corner.ROUND;
origin = (1,0);
scale = (0.65,0.65);
type = Corner;
},
{
name = _corner.ROUND;
options = 2;
origin = (1,3);
scale = (-0.65,0.65);
type = Corner;
},
{
name = _corner.ROUND;
origin = (0,8);
scale = (0.8,0.8);
type = Corner;
},
{
name = _corner.ROUND;
options = 2;
origin = (0,3);
scale = (-0.65,0.65);
type = Corner;
},
{
name = _segment.DOUBLECUT;
origin = (0,7);
type = Segment;
}
);
layerId = m002;
shapes = (
{
closed = 1;
nodes = (
(70,0,l),
(140,0,l),
(140,300,l),
(440,300,l),
(440,0,l),
(510,0,l),
(510,223,l),
(510,427,l),
(510,650,l),
(70,650,l)
);
},
{
closed = 1;
nodes = (
(440,360,l),
(140,360,l),
(140,590,l),
(440,590,l)
);
}
);
width = 572;
}
);
metricLeft = H;
metricRight = O;
unicode = 82;
},
{
glyphname = S;
kernLeft = S;
kernRight = S;
lastChange = "2025-09-26 20:39:27 +0000";
layers = (
{
anchors = (
{
name = bottom;
pos = (222,0);
},
{
name = top;
pos = (222,650);
}
);
background = {
hints = (
{
name = _corner.ROUND;
type = Corner;
},
{
name = _corner.ROUND;
scale = (0.3,0.3);
type = Corner;
},
{
name = _corner.ROUND;
options = 2;
scale = (-0.3,0.3);
type = Corner;
},
{
name = _corner.ROUND;
scale = (1.08,1.08);
type = Corner;
},
{
name = _corner.ROUND;
type = Corner;
},
{
name = _corner.ROUND;
options = 1;
scale = (0.5,0.5);
type = Corner;
},
{
name = _corner.ROUND;
type = Corner;
},
{
name = _corner.ROUND;
options = 2;
scale = (-0.3,0.3);
type = Corner;
},
{
name = _corner.ROUND;
scale = (0.3,0.3);
type = Corner;
},
{
name = _corner.ROUND;
type = Corner;
},
{
name = _corner.ROUND;
scale = (1.08,1.08);
type = Corner;
},
{
name = _corner.ROUND;
options = 1;
scale = (0.5,0.5);
type = Corner;
},
{
name = _corner.ROUND;
type = Corner;
},
{
name = _corner.ROUND;
scale = (0.3,0.3);
type = Corner;
},
{
name = _corner.ROUND;
options = 2;
scale = (-0.3,0.3);
type = Corner;
},
{
name = _corner.ROUND;
scale = (1.08,1.08);
type = Corner;
},
{
name = _corner.ROUND;
type = Corner;
},
{
name = _corner.ROUND;
options = 1;
scale = (0.5,0.5);
type = Corner;
},
{
name = _corner.ROUND;
type = Corner;
},
{
name = _corner.ROUND;
options = 2;
scale = (-0.3,0.3);
type = Corner;
},
{
name = _corner.ROUND;
scale = (0.3,0.3);
type = Corner;
},
{
name = _corner.ROUND;
type = Corner;
},
{
name = _corner.ROUND;
scale = (1.08,1.08);
type = Corner;
},
{
name = _corner.ROUND;
options = 1;
scale = (0.5,0.5);
type = Corner;
},
{
name = _corner.ROUND;
scale = (0.3,0.3);
type = Corner;
},
{
name = _corner.ROUND;
options = 2;
scale = (-0.3,0.3);
type = Corner;
},
{
name = _corner.ROUND;
scale = (1.08,1.08);
type = Corner;
},
{
name = _corner.ROUND;
type = Corner;
},
{
name = _corner.ROUND;
options = 2;
scale = (-0.3,0.3);
type = Corner;
},
{
name = _corner.ROUND;
scale = (0.3,0.3);
type = Corner;
},
{
name = _corner.ROUND;
type = Corner;
},
{
name = _corner.ROUND;
scale = (1.08,1.08);
type = Corner;
},
{
name = _corner.ROUND;
scale = (0.3,0.3);
type = Corner;
},
{
name = _corner.ROUND;
options = 2;
scale = (-0.3,0.3);
type = Corner;
},
{
name = _corner.ROUND;
scale = (1.08,1.08);
type = Corner;
},
{
name = _corner.ROUND;
type = Corner;
},
{
name = _corner.ROUND;
options = 2;
scale = (-0.3,0.3);
type = Corner;
},
{
name = _corner.ROUND;
scale = (0.3,0.3);
type = Corner;
},
{
name = _corner.ROUND;
type = Corner;
},
{
name = _corner.ROUND;
scale = (1.08,1.08);
type = Corner;
},
{
name = _corner.ROUND;
origin = (0,2);
scale = (0.3,0.3);
type = Corner;
},
{
name = _corner.ROUND;
options = 2;
origin = (0,3);
scale = (-0.3,0.3);
type = Corner;
},
{
name = _corner.ROUND;
origin = (0,6);
scale = (1.08,1.08);
type = Corner;
},
{
name = _corner.ROUND;
origin = (0,7);
type = Corner;
},
{
name = _corner.ROUND;
options = 2;
origin = (0,12);
scale = (-0.3,0.3);
type = Corner;
},
{
name = _corner.ROUND;
origin = (0,13);
scale = (0.3,0.3);
type = Corner;
},
{
name = _corner.ROUND;
origin = (0,16);
type = Corner;
},
{
name = _corner.ROUND;
origin = (0,17);
scale = (1.08,1.08);
type = Corner;
}
);
shapes = (
{
closed = 1;
nodes = (
(171,419,o),
(172,515,c),
(172,590,l),
(272,590,l),
(272,485,l),
(422,485,l),
(422,700,l),
(22,700,l),
(22,495,l),
(22,321,o),
(273,295,o),
(272,185,c),
(272,110,l),
(172,110,l),
(172,215,l),
(22,215,l),
(22,0,l),
(422,0,l),
(422,205,l),
(422,386,o)
);
}
);
};
hints = (
{
name = _corner.ROUND;
origin = (0,7);
scale = (1.08,1.08);
type = Corner;
},
{
name = _corner.ROUND;
origin = (0,8);
scale = (1.08,1.08);
type = Corner;
},
{
name = _corner.ROUND;
origin = (0,3);
scale = (0.3,0.3);
type = Corner;
},
{
name = _corner.ROUND;
options = 2;
origin = (0,4);
scale = (-0.3,0.3);
type = Corner;
},
{
name = _corner.ROUND;
origin = (0,14);
scale = (0.3,0.3);
type = Corner;
},
{
name = _corner.ROUND;
options = 2;
origin = (0,13);
scale = (-0.3,0.3);
type = Corner;
},
{
name = _corner.ROUND;
origin = (0,18);
scale = (1.08,1.08);
type = Corner;
},
{
name = _corner.ROUND;
origin = (0,17);
scale = (1.08,1.08);
type = Corner;
}
);
layerId = m01;
shapes = (
{
closed = 1;
nodes = (
(421,349,o),
(171,385,o),
(172,475,c),
(172,540,l),
(272,540,l),
(272,445,l),
(422,445,l),
(422,650,l),
(22,650,l),
(22,475,l),
(22,261,o),
(272,265,o),
(272,175,c),
(272,110,l),
(172,110,l),
(172,205,l),
(22,205,l),
(22,0,l),
(422,0,l),
(422,175,l)
);
}
);
width = 444;
},
{
anchors = (
{
name = bottom;
pos = (267,0);
},
{
name = top;
pos = (267,650);
}
);
background = {
hints = (
{
name = _corner.ROUND;
type = Corner;
},
{
name = _corner.ROUND;
scale = (0.3,0.3);
type = Corner;
},
{
name = _corner.ROUND;
options = 2;
scale = (-0.3,0.3);
type = Corner;
},
{
name = _corner.ROUND;
scale = (1.08,1.08);
type = Corner;
},
{
name = _corner.ROUND;
type = Corner;
},
{
name = _corner.ROUND;
options = 1;
scale = (0.5,0.5);
type = Corner;
},
{
name = _corner.ROUND;
type = Corner;
},
{
name = _corner.ROUND;
options = 2;
scale = (-0.3,0.3);
type = Corner;
},
{
name = _corner.ROUND;
scale = (0.3,0.3);
type = Corner;
},
{
name = _corner.ROUND;
type = Corner;
},
{
name = _corner.ROUND;
scale = (1.08,1.08);
type = Corner;
},
{
name = _corner.ROUND;
options = 1;
scale = (0.5,0.5);
type = Corner;
},
{
name = _corner.ROUND;
type = Corner;
},
{
name = _corner.ROUND;
scale = (0.3,0.3);
type = Corner;
},
{
name = _corner.ROUND;
options = 2;
scale = (-0.3,0.3);
type = Corner;
},
{
name = _corner.ROUND;
scale = (1.08,1.08);
type = Corner;
},
{
name = _corner.ROUND;
type = Corner;
},
{
name = _corner.ROUND;
options = 1;
scale = (0.5,0.5);
type = Corner;
},
{
name = _corner.ROUND;
type = Corner;
},
{
name = _corner.ROUND;
options = 2;
scale = (-0.3,0.3);
type = Corner;
},
{
name = _corner.ROUND;
scale = (0.3,0.3);
type = Corner;
},
{
name = _corner.ROUND;
type = Corner;
},
{
name = _corner.ROUND;
scale = (1.08,1.08);
type = Corner;
},
{
name = _corner.ROUND;
options = 1;
scale = (0.5,0.5);
type = Corner;
},
{
name = _corner.ROUND;
scale = (0.3,0.3);
type = Corner;
},
{
name = _corner.ROUND;
options = 2;
scale = (-0.3,0.3);
type = Corner;
},
{
name = _corner.ROUND;
scale = (1.08,1.08);
type = Corner;
},
{
name = _corner.ROUND;
type = Corner;
},
{
name = _corner.ROUND;
options = 2;
scale = (-0.3,0.3);
type = Corner;
},
{
name = _corner.ROUND;
scale = (0.3,0.3);
type = Corner;
},
{
name = _corner.ROUND;
type = Corner;
},
{
name = _corner.ROUND;
scale = (1.08,1.08);
type = Corner;
},
{
name = _corner.ROUND;
scale = (0.3,0.3);
type = Corner;
},
{
name = _corner.ROUND;
options = 2;
scale = (-0.3,0.3);
type = Corner;
},
{
name = _corner.ROUND;
scale = (1.08,1.08);
type = Corner;
},
{
name = _corner.ROUND;
type = Corner;
},
{
name = _corner.ROUND;
options = 2;
scale = (-0.3,0.3);
type = Corner;
},
{
name = _corner.ROUND;
scale = (0.3,0.3);
type = Corner;
},
{
name = _corner.ROUND;
type = Corner;
},
{
name = _corner.ROUND;
scale = (1.08,1.08);
type = Corner;
},
{
name = _corner.ROUND;
scale = (0.3,0.3);
type = Corner;
},
{
name = _corner.ROUND;
options = 2;
scale = (-0.3,0.3);
type = Corner;
},
{
name = _corner.ROUND;
scale = (1.08,1.08);
type = Corner;
},
{
name = _corner.ROUND;
type = Corner;
},
{
name = _corner.ROUND;
options = 2;
scale = (-0.3,0.3);
type = Corner;
},
{
name = _corner.ROUND;
scale = (0.3,0.3);
type = Corner;
},
{
name = _corner.ROUND;
type = Corner;
},
{
name = _corner.ROUND;
scale = (1.08,1.08);
type = Corner;
},
{
name = _corner.ROUND;
origin = (0,0);
scale = (0.3,0.3);
type = Corner;
}
);
shapes = (
{
closed = 0;
nodes = (
(117,540,l)
);
}
);
};
hints = (
{
name = _corner.ROUND;
origin = (0,7);
scale = (1.1,1.1);
type = Corner;
},
{
name = _corner.ROUND;
origin = (0,8);
scale = (1.1,1.1);
type = Corner;
},
{
name = _corner.ROUND;
origin = (0,3);
scale = (0.7,0.7);
type = Corner;
},
{
name = _corner.ROUND;
options = 2;
origin = (0,4);
scale = (-0.7,0.7);
type = Corner;
},
{
name = _corner.ROUND;
origin = (0,14);
scale = (0.7,0.7);
type = Corner;
},
{
name = _corner.ROUND;
options = 2;
origin = (0,13);
scale = (-0.7,0.7);
type = Corner;
},
{
name = _corner.ROUND;
origin = (0,18);
scale = (1.1,1.1);
type = Corner;
},
{
name = _corner.ROUND;
origin = (0,17);
scale = (1.1,1.1);
type = Corner;
}
);
layerId = m002;
shapes = (
{
closed = 1;
nodes = (
(502,379,o),
(132,345,o),
(132,475,c),
(132,590,l),
(432,590,l),
(432,445,l),
(502,445,l),
(502,650,l),
(62,650,l),
(62,475,l),
(62,271,o),
(432,335,o),
(432,175,c),
(432,60,l),
(132,60,l),
(132,205,l),
(62,205,l),
(62,0,l),
(502,0,l),
(502,175,l)
);
}
);
width = 564;
}
);
metricLeft = O;
metricRight = O;
unicode = 83;
},
{
glyphname = Germandbls;
kernLeft = Germandbls;
kernRight = Germandbls;
lastChange = "2025-09-26 20:39:27 +0000";
layers = (
{
anchors = (
{
name = bottom;
pos = (249,0);
},
{
name = top;
pos = (249,650);
}
);
hints = (
{
name = _corner.ROUND;
origin = (0,12);
scale = (1.08,1.08);
type = Corner;
},
{
name = _corner.ROUND;
origin = (0,15);
type = Corner;
},
{
name = _corner.ROUND;
origin = (0,5);
scale = (0.3,0.3);
type = Corner;
},
{
name = _corner.ROUND;
options = 2;
origin = (0,4);
scale = (-0.3,0.3);
type = Corner;
},
{
name = _corner.ROUND;
origin = (0,9);
scale = (0.3,0.3);
type = Corner;
},
{
name = _corner.ROUND;
options = 2;
origin = (0,8);
scale = (-0.3,0.3);
type = Corner;
},
{
name = _segment.DOUBLECUT;
origin = (0,14);
type = Segment;
},
{
name = _corner.ROUND;
origin = (0,0);
scale = (1.2,1.2);
type = Corner;
},
{
name = _corner.ROUND;
origin = (0,3);
scale = (0.3,0.3);
type = Corner;
}
);
layerId = m01;
shapes = (
{
closed = 1;
nodes = (
(25,650,l),
(25,0,l),
(175,0,l),
(175,540,l),
(325,540,l),
(325,380,l),
(255,380,l),
(255,270,l),
(325,270,l),
(325,110,l),
(225,110,l),
(225,0,l),
(475,0,l),
(475,223,l),
(475,427,l),
(475,650,l)
);
}
);
width = 497;
},
{
anchors = (
{
name = bottom;
pos = (294,0);
},
{
name = top;
pos = (294,650);
}
);
hints = (
{
name = _corner.ROUND;
origin = (0,12);
scale = (1.08,1.08);
type = Corner;
},
{
name = _corner.ROUND;
origin = (0,15);
type = Corner;
},
{
name = _corner.ROUND;
origin = (0,5);
scale = (0.3,0.3);
type = Corner;
},
{
name = _corner.ROUND;
options = 2;
origin = (0,4);
scale = (-0.5,0.5);
type = Corner;
},
{
name = _corner.ROUND;
origin = (0,9);
scale = (0.5,0.5);
type = Corner;
},
{
name = _corner.ROUND;
options = 2;
origin = (0,8);
scale = (-0.3,0.3);
type = Corner;
},
{
name = _segment.DOUBLECUT;
origin = (0,14);
scale = (0.8,0.8);
type = Segment;
},
{
name = _corner.ROUND;
origin = (0,0);
scale = (1.2,1.2);
type = Corner;
},
{
name = _corner.ROUND;
origin = (0,3);
scale = (0.6,0.6);
type = Corner;
}
);
layerId = m002;
shapes = (
{
closed = 1;
nodes = (
(70,650,l),
(70,0,l),
(140,0,l),
(140,590,l),
(450,590,l),
(450,355,l),
(280,355,l),
(280,295,l),
(450,295,l),
(450,60,l),
(210,60,l),
(210,0,l),
(520,0,l),
(520,223,l),
(520,427,l),
(520,650,l)
);
}
);
width = 582;
}
);
metricLeft = "=H";
metricRight = "=O";
unicode = 7838;
},
{
glyphname = T;
kernLeft = T;
kernRight = T;
lastChange = "2025-09-26 20:39:27 +0000";
layers = (
{
anchors = (
{
name = bottom;
pos = (196,0);
},
{
name = center;
pos = (196,325);
},
{
name = top;
pos = (196,650);
}
);
background = {
shapes = (
{
closed = 1;
nodes = (
(271,590,l),
(411,590,l),
(412,700,l),
(271,700,l)
);
},
{
closed = 1;
nodes = (
(121,0,l),
(271,0,l),
(271,700,l),
(121,700,l)
);
},
{
closed = 1;
nodes = (
(-19,590,l),
(121,590,l),
(121,700,l),
(-20,700,l)
);
}
);
};
layerId = m01;
shapes = (
{
closed = 1;
nodes = (
(121,0,l),
(271,0,l),
(271,650,l),
(121,650,l)
);
},
{
closed = 1;
nodes = (
(271,540,l),
(381,540,l),
(381,650,l),
(271,650,l)
);
},
{
closed = 1;
nodes = (
(11,540,l),
(121,540,l),
(121,650,l),
(11,650,l)
);
}
);
width = 392;
},
{
anchors = (
{
name = bottom;
pos = (251,0);
},
{
name = center;
pos = (251,325);
},
{
name = top;
pos = (251,650);
}
);
background = {
shapes = (
{
closed = 1;
nodes = (
(326,590,l),
(466,590,l),
(467,700,l),
(326,700,l)
);
},
{
closed = 1;
nodes = (
(176,0,l),
(326,0,l),
(326,700,l),
(176,700,l)
);
},
{
closed = 1;
nodes = (
(36,590,l),
(176,590,l),
(176,700,l),
(35,700,l)
);
}
);
};
layerId = m002;
shapes = (
{
closed = 1;
nodes = (
(216,0,l),
(286,0,l),
(286,650,l),
(216,650,l)
);
},
{
closed = 1;
nodes = (
(286,590,l),
(471,590,l),
(471,650,l),
(286,650,l)
);
},
{
closed = 1;
nodes = (
(31,590,l),
(216,590,l),
(216,650,l),
(31,650,l)
);
}
);
width = 502;
}
);
metricLeft = "=O*.5";
metricRight = "=O*.5";
unicode = 84;
},
{
glyphname = U;
kernLeft = U;
kernRight = U;
lastChange = "2025-09-26 20:39:27 +0000";
layers = (
{
anchors = (
{
name = bottom;
pos = (222,0);
},
{
name = ogonek;
pos = (400,10);
},
{
name = top;
pos = (222,650);
},
{
name = topright;
pos = (424,650);
}
);
hints = (
{
name = _corner.ROUND;
origin = (0,0);
type = Corner;
},
{
name = _corner.ROUND;
origin = (0,1);
type = Corner;
},
{
name = _corner.ROUND;
origin = (0,4);
scale = (0.3,0.3);
type = Corner;
},
{
name = _corner.ROUND;
origin = (0,5);
scale = (0.3,0.3);
type = Corner;
}
);
layerId = m01;
shapes = (
{
closed = 1;
nodes = (
(22,0,l),
(422,0,l),
(422,650,l),
(272,650,l),
(272,110,l),
(172,110,l),
(172,650,l),
(22,650,l)
);
}
);
width = 444;
},
{
anchors = (
{
name = bottom;
pos = (282,0);
},
{
name = ogonek;
pos = (493,10);
},
{
name = top;
pos = (282,650);
},
{
name = topright;
pos = (526,650);
}
);
hints = (
{
name = _corner.ROUND;
origin = (0,0);
type = Corner;
},
{
name = _corner.ROUND;
origin = (0,1);
type = Corner;
},
{
name = _corner.ROUND;
origin = (0,4);
scale = (0.65,0.65);
type = Corner;
},
{
name = _corner.ROUND;
origin = (0,5);
scale = (0.65,0.65);
type = Corner;
}
);
layerId = m002;
shapes = (
{
closed = 1;
nodes = (
(62,0,l),
(502,0,l),
(502,650,l),
(432,650,l),
(432,60,l),
(132,60,l),
(132,650,l),
(62,650,l)
);
}
);
width = 564;
}
);
metricLeft = O;
metricRight = O;
unicode = 85;
},
{
glyphname = V;
kernLeft = V;
kernRight = V;
lastChange = "2025-09-26 20:39:27 +0000";
layers = (
{
anchors = (
{
name = bottom;
pos = (211,0);
},
{
name = top;
pos = (211,650);
}
);
layerId = m01;
shapes = (
{
closed = 1;
nodes = (
(236,0,l),
(151,650,l),
(11,650,l),
(126,0,l)
);
},
{
closed = 1;
nodes = (
(411,650,l),
(261,650,l),
(186,0,l),
(306,0,l)
);
}
);
width = 422;
},
{
anchors = (
{
name = bottom;
pos = (266,0);
},
{
name = top;
pos = (266,650);
}
);
layerId = m002;
shapes = (
{
closed = 1;
nodes = (
(301,0,l),
(101,650,l),
(31,650,l),
(231,0,l)
);
},
{
closed = 1;
nodes = (
(501,650,l),
(431,650,l),
(231,0,l),
(301,0,l)
);
}
);
width = 532;
}
);
metricLeft = "=O*.5";
metricRight = "=O*.5";
unicode = 86;
},
{
glyphname = W;
kernLeft = W;
kernRight = W;
lastChange = "2025-09-29 00:07:51 +0000";
layers = (
{
anchors = (
{
name = bottom;
pos = (376,0);
},
{
name = top;
pos = (376,650);
}
);
background = {
shapes = (
{
closed = 1;
nodes = (
(131,0,l),
(281,0,l),
(161,650,l),
(11,650,l)
);
},
{
closed = 1;
nodes = (
(470,0,l),
(620,0,l),
(740,650,l),
(590,650,l)
);
},
{
closed = 1;
nodes = (
(171,0,l),
(281,0,l),
(431,650,l),
(321,650,l)
);
},
{
closed = 1;
nodes = (
(321,650,l),
(470,0,l),
(580,0,l),
(430,650,l)
);
}
);
};
layerId = m01;
shapes = (
{
closed = 1;
nodes = (
(620,0,l),
(740,650,l),
(590,650,l),
(460,0,l)
);
},
{
closed = 1;
nodes = (
(291,0,l),
(161,650,l),
(11,650,l),
(131,0,l)
);
},
{
closed = 1;
nodes = (
(291,0,l),
(441,650,l),
(311,650,l),
(171,0,l)
);
},
{
closed = 1;
nodes = (
(580,0,l),
(440,650,l),
(311,650,l),
(460,0,l)
);
}
);
width = 751;
},
{
anchors = (
{
name = bottom;
pos = (336,0);
},
{
name = top;
pos = (336,650);
}
);
layerId = m002;
shapes = (
{
closed = 1;
nodes = (
(521,0,l),
(641,650,l),
(571,650,l),
(451,0,l)
);
},
{
closed = 1;
nodes = (
(221,0,l),
(101,650,l),
(31,650,l),
(151,0,l)
);
},
{
closed = 1;
nodes = (
(251,0,l),
(371,650,l),
(301,650,l),
(181,0,l)
);
},
{
closed = 1;
nodes = (
(491,0,l),
(371,650,l),
(301,650,l),
(421,0,l)
);
}
);
width = 672;
}
);
metricLeft = "=O*.5";
metricRight = "=O*.5";
unicode = 87;
},
{
glyphname = X;
kernLeft = X;
kernRight = X;
lastChange = "2025-09-26 20:39:27 +0000";
layers = (
{
anchors = (
{
name = bottom;
pos = (224,0);
},
{
name = top;
pos = (224,650);
}
);
layerId = m01;
shapes = (
{
closed = 1;
nodes = (
(436,0,l),
(151,650,l),
(11,650,l),
(306,0,l)
);
},
{
closed = 1;
nodes = (
(436,650,l),
(296,650,l),
(11,0,l),
(141,0,l)
);
}
);
width = 447;
},
{
anchors = (
{
name = bottom;
pos = (462,0);
},
{
name = top;
pos = (462,650);
}
);
background = {
shapes = (
{
closed = 1;
nodes = (
(471,0,l),
(101,650,l),
(31,650,l),
(401,0,l)
);
},
{
closed = 1;
nodes = (
(471,650,l),
(401,650,l),
(31,0,l),
(101,0,l)
);
}
);
};
layerId = m002;
shapes = (
{
closed = 1;
nodes = (
(471,0,l),
(101,650,l),
(31,650,l),
(401,0,l)
);
},
{
closed = 1;
nodes = (
(471,650,l),
(401,650,l),
(31,0,l),
(101,0,l)
);
}
);
width = 502;
}
);
metricLeft = "=O*0.5";
metricRight = "=O*.5";
unicode = 88;
},
{
glyphname = Y;
kernLeft = Y;
kernRight = Y;
lastChange = "2025-09-26 20:39:27 +0000";
layers = (
{
anchors = (
{
name = bottom;
pos = (217,0);
},
{
name = top;
pos = (217,650);
},
{
name = topleft;
pos = (20,650);
}
);
background = {
shapes = (
{
closed = 1;
nodes = (
(142,0,l),
(292,0,l),
(292,211,l),
(142,211,l)
);
},
{
closed = 1;
nodes = (
(287,190,l),
(151,650,l),
(11,650,l),
(147,190,l)
);
},
{
closed = 1;
nodes = (
(423,650,l),
(283,650,l),
(147,190,l),
(287,190,l)
);
}
);
};
layerId = m01;
shapes = (
{
closed = 1;
nodes = (
(142,0,l),
(292,0,l),
(292,211,l),
(142,211,l)
);
},
{
closed = 1;
nodes = (
(287,190,l),
(151,650,l),
(11,650,l),
(147,190,l)
);
},
{
closed = 1;
nodes = (
(423,650,l),
(283,650,l),
(147,190,l),
(287,190,l)
);
}
);
width = 434;
},
{
anchors = (
{
name = bottom;
pos = (251,0);
},
{
name = top;
pos = (251,650);
},
{
name = topleft;
pos = (29,650);
}
);
background = {
shapes = (
{
closed = 1;
nodes = (
(286,0,l),
(286,291,l),
(216,291,l),
(216,0,l)
);
},
{
closed = 1;
nodes = (
(286,260,l),
(157,650,l),
(87,650,l),
(216,260,l)
);
},
{
closed = 1;
nodes = (
(415,650,l),
(345,650,l),
(216,260,l),
(286,260,l)
);
}
);
};
layerId = m002;
shapes = (
{
closed = 1;
nodes = (
(286,0,l),
(286,291,l),
(216,291,l),
(216,0,l)
);
},
{
closed = 1;
nodes = (
(286,260,l),
(101,650,l),
(31,650,l),
(216,260,l)
);
},
{
closed = 1;
nodes = (
(471,650,l),
(401,650,l),
(216,260,l),
(286,260,l)
);
}
);
width = 502;
}
);
metricLeft = "=O*.5";
metricRight = "=O*.5";
unicode = 89;
},
{
glyphname = Z;
kernLeft = Z;
kernRight = Z;
lastChange = "2025-09-26 20:39:27 +0000";
layers = (
{
anchors = (
{
name = bottom;
pos = (202,0);
},
{
name = center;
pos = (202,325);
},
{
name = top;
pos = (202,650);
}
);
background = {
shapes = (
{
closed = 0;
nodes = (
(417,700,l)
);
}
);
};
layerId = m01;
shapes = (
{
closed = 1;
nodes = (
(387,520,l),
(237,520,l),
(17,130,l),
(167,130,l)
);
},
{
closed = 1;
nodes = (
(17,520,l),
(387,520,l),
(387,650,l),
(17,650,l)
);
},
{
closed = 1;
nodes = (
(17,0,l),
(387,0,l),
(387,130,l),
(17,130,l)
);
}
);
width = 404;
},
{
anchors = (
{
name = bottom;
pos = (252,0);
},
{
name = center;
pos = (252,325);
},
{
name = top;
pos = (252,650);
}
);
background = {
shapes = (
{
closed = 0;
nodes = (
(447,700,l)
);
}
);
};
layerId = m002;
shapes = (
{
closed = 1;
nodes = (
(457,590,l),
(387,590,l),
(47,60,l),
(117,60,l)
);
},
{
closed = 1;
nodes = (
(47,590,l),
(457,590,l),
(457,650,l),
(47,650,l)
);
},
{
closed = 1;
nodes = (
(47,0,l),
(457,0,l),
(457,60,l),
(47,60,l)
);
}
);
width = 504;
}
);
metricLeft = "=O*.75";
metricRight = "=O*.75";
unicode = 90;
},
{
glyphname = a;
kernLeft = a;
kernRight = n;
lastChange = "2025-09-26 21:12:56 +0000";
layers = (
{
anchors = (
{
name = bottom;
pos = (206,0);
},
{
name = ogonek;
pos = (371,10);
},
{
name = top;
pos = (206,500);
}
);
hints = (
{
name = _corner.ROUND;
origin = (0,6);
scale = (0.3,0.3);
type = Corner;
},
{
name = _corner.ROUND;
options = 2;
origin = (0,5);
scale = (-0.3,0.3);
type = Corner;
},
{
name = _corner.ROUND;
origin = (0,2);
type = Corner;
},
{
name = _corner.ROUND;
origin = (0,1);
type = Corner;
},
{
name = _corner.ROUND;
options = 2;
origin = (1,1);
scale = (-0.2,0.2);
type = Corner;
},
{
name = _corner.ROUND;
origin = (1,0);
scale = (0.3,0.3);
type = Corner;
},
{
name = _corner.ROUND;
origin = (0,5);
scale = (0.3,0.3);
type = Corner;
},
{
name = _corner.ROUND;
origin = (0,6);
scale = (0.3,0.3);
type = Corner;
},
{
name = _corner.ROUND;
origin = (0,11);
scale = (0.75,0.75);
type = Corner;
},
{
name = _segment.CUT;
options = 1;
origin = (0,13);
scale = (-1,1);
type = Segment;
}
);
layerId = m01;
shapes = (
{
closed = 1;
nodes = (
(387,0,l),
(387,500,l),
(22,500,l),
(22,335,l),
(162,335,l),
(162,400,l),
(247,400,l),
(247,345,l),
(247,269,o),
(22,326,o),
(22,160,c),
(22,0,l),
(162,0,l),
(247,0,l)
);
},
{
closed = 1;
nodes = (
(247,100,l),
(162,100,l),
(162,170,ls),
(162,207,o),
(201,215,o),
(247,225,c)
);
}
);
width = 412;
},
{
anchors = (
{
name = bottom;
pos = (228,0);
},
{
name = ogonek;
pos = (410,10);
},
{
name = top;
pos = (228,433);
}
);
backgroundImage = {
crop = (0,1.675,39.606,81.325);
imagePath = "../png/abcdefg.png";
locked = 1;
pos = (28,-167);
scale = (10.15,10.15);
};
hints = (
{
name = _corner.ROUND;
origin = (0,6);
scale = (0.5,0.6);
type = Corner;
},
{
name = _corner.ROUND;
options = 2;
origin = (0,5);
scale = (-0.6,0.6);
type = Corner;
},
{
name = _corner.ROUND;
origin = (0,2);
type = Corner;
},
{
name = _corner.ROUND;
origin = (0,1);
type = Corner;
},
{
name = _corner.ROUND;
options = 2;
origin = (1,1);
scale = (-0.5,0.5);
type = Corner;
},
{
name = _corner.ROUND;
origin = (1,0);
scale = (0.9,0.5);
type = Corner;
},
{
name = _corner.ROUND;
origin = (0,5);
scale = (0.3,0.3);
type = Corner;
},
{
name = _corner.ROUND;
origin = (0,6);
scale = (0.3,0.3);
type = Corner;
},
{
name = _corner.ROUND;
origin = (0,11);
scale = (0.9,0.9);
type = Corner;
},
{
name = _segment.CUT;
options = 1;
origin = (0,13);
scale = (-1,1);
type = Segment;
},
{
horizontal = 1;
options = 4;
origin = (0,13);
target = (1,1);
type = TTStem;
},
{
horizontal = 1;
options = 4;
origin = (0,2);
target = (0,6);
type = TTStem;
},
{
horizontal = 1;
options = 4;
origin = (0,2);
target = (0,4);
type = TTStem;
},
{
horizontal = 1;
options = 4;
place = (225,2000);
type = TTStem;
}
);
layerId = m002;
shapes = (
{
closed = 1;
nodes = (
(405,0,l),
(405,433,l),
(60,433,l),
(60,291,l),
(120,291,l),
(120,383,l),
(345,383,l),
(345,305,l),
(345,229,o),
(60,309,o),
(50,120,c),
(50,0,l),
(180,0,l),
(345,0,l)
);
},
{
closed = 1;
nodes = (
(345,50,l),
(110,50,l),
(110,120,ls),
(110,234,o),
(282,196,o),
(345,235,c)
);
}
);
width = 463;
}
);
metricLeft = "=o";
metricRight = "=h";
unicode = 97;
},
{
glyphname = ae;
kernLeft = a;
kernRight = e;
lastChange = "2025-09-26 20:33:52 +0000";
layers = (
{
anchors = (
{
name = bottom;
pos = (317,0);
},
{
name = top;
pos = (317,500);
}
);
background = {
hints = (
{
name = _segment.DOUBLECUT;
origin = (0,0);
type = Segment;
},
{
name = _corner.ROUND;
origin = (0,1);
type = Corner;
},
{
name = _corner.ROUND;
origin = (0,2);
type = Corner;
},
{
name = _corner.ROUND;
origin = (0,5);
scale = (0.3,0.3);
type = Corner;
},
{
name = _corner.ROUND;
origin = (0,6);
scale = (0.3,0.3);
type = Corner;
},
{
name = _corner.ROUND;
origin = (0,11);
scale = (0.75,0.75);
type = Corner;
},
{
name = _corner.ROUND;
origin = (1,0);
scale = (0.3,0.3);
type = Corner;
},
{
name = _corner.ROUND;
options = 2;
origin = (1,1);
scale = (-0.2,0.2);
type = Corner;
},
{
name = _corner.ROUND;
origin = (2,0);
scale = (1.08,1.08);
type = Corner;
},
{
name = _corner.ROUND;
origin = (2,1);
scale = (1.08,1.08);
type = Corner;
},
{
name = _corner.ROUND;
origin = (2,2);
scale = (1.08,1.08);
type = Corner;
},
{
name = _corner.ROUND;
origin = (2,5);
scale = (0.3,0.3);
type = Corner;
},
{
name = _corner.ROUND;
origin = (2,6);
scale = (0.3,0.3);
type = Corner;
},
{
name = _corner.ROUND;
origin = (2,9);
scale = (1.08,1.08);
type = Corner;
},
{
name = _corner.ROUND;
options = 2;
origin = (3,2);
scale = (-0.3,0.3);
type = Corner;
},
{
name = _corner.ROUND;
options = 2;
origin = (3,3);
scale = (-0.3,0.3);
type = Corner;
}
);
shapes = (
{
closed = 1;
nodes = (
(387,0,l),
(387,500,l),
(22,500,l),
(22,335,l),
(162,335,l),
(162,400,l),
(247,400,l),
(247,345,l),
(247,269,o),
(22,326,o),
(22,160,c),
(22,0,l),
(162,0,l)
);
},
{
closed = 1;
nodes = (
(247,100,l),
(162,100,l),
(162,170,ls),
(162,207,o),
(201,215,o),
(247,225,c)
);
},
{
closed = 1;
nodes = (
(247,500,l),
(247,0,l),
(612,0,l),
(612,159,l),
(472,159,l),
(472,100,l),
(387,100,l),
(387,216,l),
(612,216,l),
(612,500,l)
);
},
{
closed = 1;
nodes = (
(472,296,l),
(387,296,l),
(387,400,l),
(472,400,l)
);
}
);
};
hints = (
{
name = _corner.ROUND;
type = Corner;
},
{
name = _corner.ROUND;
options = 2;
scale = (-0.3,0.3);
type = Corner;
},
{
name = _corner.ROUND;
options = 2;
scale = (-0.3,0.3);
type = Corner;
},
{
name = _corner.ROUND;
type = Corner;
},
{
name = _corner.ROUND;
type = Corner;
},
{
name = _corner.ROUND;
type = Corner;
},
{
name = _corner.ROUND;
scale = (0.3,0.3);
type = Corner;
},
{
name = _corner.ROUND;
scale = (0.3,0.3);
type = Corner;
},
{
name = _corner.ROUND;
origin = (0,6);
scale = (0.3,0.3);
type = Corner;
},
{
name = _corner.ROUND;
options = 2;
origin = (0,5);
scale = (-0.3,0.3);
type = Corner;
},
{
name = _corner.ROUND;
origin = (0,2);
type = Corner;
},
{
name = _corner.ROUND;
origin = (0,1);
type = Corner;
},
{
name = _corner.ROUND;
options = 2;
origin = (1,1);
scale = (-0.2,0.2);
type = Corner;
},
{
name = _corner.ROUND;
origin = (1,0);
scale = (0.3,0.3);
type = Corner;
},
{
name = _corner.ROUND;
origin = (0,5);
scale = (0.3,0.3);
type = Corner;
},
{
name = _corner.ROUND;
origin = (0,6);
scale = (0.3,0.3);
type = Corner;
},
{
name = _corner.ROUND;
origin = (0,11);
scale = (0.75,0.75);
type = Corner;
},
{
name = _corner.ROUND;
origin = (0,0);
type = Corner;
}
);
layerId = m01;
shapes = (
{
closed = 1;
nodes = (
(387,0,l),
(387,500,l),
(22,500,l),
(22,335,l),
(162,335,l),
(162,400,l),
(247,400,l),
(247,345,l),
(247,269,o),
(22,326,o),
(22,160,c),
(22,0,l)
);
},
{
closed = 1;
nodes = (
(247,100,l),
(162,100,l),
(162,170,ls),
(162,207,o),
(201,215,o),
(247,225,c)
);
},
{
pos = (225,0);
ref = e;
}
);
width = 634;
},
{
anchors = (
{
name = bottom;
pos = (385,0);
},
{
name = top;
pos = (385,450);
}
);
background = {
hints = (
{
name = _segment.DOUBLECUT;
type = Segment;
},
{
name = _corner.ROUND;
type = Corner;
},
{
name = _corner.ROUND;
type = Corner;
},
{
name = _corner.ROUND;
scale = (0.3,0.3);
type = Corner;
},
{
name = _corner.ROUND;
scale = (0.3,0.3);
type = Corner;
},
{
name = _corner.ROUND;
scale = (0.75,0.75);
type = Corner;
},
{
name = _corner.ROUND;
scale = (0.3,0.3);
type = Corner;
},
{
name = _corner.ROUND;
options = 2;
scale = (-0.2,0.2);
type = Corner;
},
{
name = _corner.ROUND;
scale = (1.08,1.08);
type = Corner;
},
{
name = _corner.ROUND;
scale = (1.08,1.08);
type = Corner;
},
{
name = _corner.ROUND;
scale = (1.08,1.08);
type = Corner;
},
{
name = _corner.ROUND;
scale = (0.3,0.3);
type = Corner;
},
{
name = _corner.ROUND;
scale = (0.3,0.3);
type = Corner;
},
{
name = _corner.ROUND;
scale = (1.08,1.08);
type = Corner;
},
{
name = _corner.ROUND;
options = 2;
scale = (-0.3,0.3);
type = Corner;
},
{
name = _corner.ROUND;
options = 2;
scale = (-0.3,0.3);
type = Corner;
},
{
name = _corner.ROUND;
type = Corner;
},
{
name = _corner.ROUND;
scale = (1.1,1.1);
type = Corner;
},
{
name = _corner.ROUND;
scale = (1.1,1.1);
type = Corner;
},
{
name = _corner.ROUND;
scale = (0.3,0.3);
type = Corner;
},
{
name = _corner.ROUND;
scale = (0.3,0.3);
type = Corner;
},
{
name = _corner.ROUND;
scale = (0.75,0.75);
type = Corner;
},
{
name = _corner.ROUND;
scale = (0.8,0.5);
type = Corner;
},
{
name = _corner.ROUND;
options = 2;
scale = (-0.5,0.5);
type = Corner;
},
{
name = _corner.ROUND;
origin = (0,1);
scale = (1,1.1);
type = Corner;
},
{
name = _corner.ROUND;
origin = (0,2);
scale = (1,1.1);
type = Corner;
},
{
name = _corner.ROUND;
origin = (0,5);
scale = (0.3,0.3);
type = Corner;
},
{
name = _corner.ROUND;
origin = (0,6);
scale = (0.3,0.3);
type = Corner;
},
{
name = _corner.ROUND;
origin = (0,11);
scale = (0.75,0.75);
type = Corner;
},
{
name = _segment.CUT;
options = 1;
origin = (0,13);
scale = (-1,1);
type = Segment;
},
{
name = _corner.ROUND;
origin = (1,0);
scale = (0.8,0.5);
type = Corner;
},
{
name = _corner.ROUND;
options = 2;
origin = (1,1);
scale = (-0.5,0.5);
type = Corner;
}
);
shapes = (
{
closed = 1;
nodes = (
(415,0,l),
(415,500,l),
(50,500,l),
(50,335,l),
(110,335,l),
(110,450,l),
(355,450,l),
(355,345,l),
(355,269,o),
(50,326,o),
(50,160,c),
(50,0,l),
(190,0,l),
(355,0,l)
);
},
{
closed = 1;
nodes = (
(355,50,l),
(110,50,l),
(110,160,ls),
(110,261,o),
(292,236,o),
(355,275,c)
);
}
);
};
hints = (
{
name = _corner.ROUND;
type = Corner;
},
{
name = _corner.ROUND;
options = 2;
scale = (-0.3,0.3);
type = Corner;
},
{
name = _corner.ROUND;
options = 2;
scale = (-0.3,0.3);
type = Corner;
},
{
name = _corner.ROUND;
type = Corner;
},
{
name = _corner.ROUND;
type = Corner;
},
{
name = _corner.ROUND;
type = Corner;
},
{
name = _corner.ROUND;
scale = (0.3,0.3);
type = Corner;
},
{
name = _corner.ROUND;
scale = (0.3,0.3);
type = Corner;
},
{
horizontal = 1;
options = 4;
place = (0,50);
type = TTStem;
},
{
horizontal = 1;
options = 4;
place = (500,50);
type = TTStem;
},
{
horizontal = 1;
options = 4;
place = (500,165);
type = TTStem;
},
{
horizontal = 1;
options = 4;
place = (225,2000);
type = TTStem;
},
{
horizontal = 1;
options = 4;
place = (0,50);
type = TTStem;
},
{
horizontal = 1;
options = 4;
place = (500,50);
type = TTStem;
},
{
horizontal = 1;
options = 4;
place = (500,165);
type = TTStem;
},
{
horizontal = 1;
options = 4;
place = (225,2000);
type = TTStem;
},
{
name = _corner.ROUND;
origin = (0,6);
scale = (0.6,0.6);
type = Corner;
},
{
name = _corner.ROUND;
options = 2;
origin = (0,5);
scale = (-0.6,0.6);
type = Corner;
},
{
name = _corner.ROUND;
origin = (0,2);
scale = (1,1.1);
type = Corner;
},
{
name = _corner.ROUND;
origin = (0,1);
scale = (1,1.1);
type = Corner;
},
{
name = _corner.ROUND;
options = 2;
origin = (1,1);
scale = (-0.5,0.5);
type = Corner;
},
{
name = _corner.ROUND;
origin = (1,0);
scale = (0.8,0.5);
type = Corner;
},
{
name = _corner.ROUND;
origin = (0,5);
scale = (0.3,0.3);
type = Corner;
},
{
name = _corner.ROUND;
origin = (0,6);
scale = (0.3,0.3);
type = Corner;
},
{
name = _corner.ROUND;
origin = (0,11);
scale = (0.75,0.75);
type = Corner;
},
{
horizontal = 1;
options = 4;
origin = (0,0);
target = (1,1);
type = TTStem;
},
{
horizontal = 1;
options = 4;
origin = (0,2);
target = (0,6);
type = TTStem;
},
{
horizontal = 1;
options = 4;
origin = (0,2);
target = (0,4);
type = TTStem;
},
{
horizontal = 1;
options = 4;
place = (225,2000);
type = TTStem;
},
{
name = _corner.ROUND;
origin = (0,0);
type = Corner;
}
);
layerId = m002;
shapes = (
{
closed = 1;
nodes = (
(415,0,l),
(415,450,l),
(50,450,l),
(50,285,l),
(110,285,l),
(110,400,l),
(355,400,l),
(355,295,l),
(355,219,o),
(50,276,o),
(50,110,c),
(50,0,l)
);
},
{
closed = 1;
nodes = (
(355,50,l),
(110,50,l),
(110,110,ls),
(110,211,o),
(292,186,o),
(355,225,c)
);
},
{
pos = (311,0);
ref = e;
}
);
width = 776;
}
);
metricLeft = "=o";
metricRight = "=o";
unicode = 230;
},
{
glyphname = b;
kernLeft = h;
kernRight = o;
lastChange = "2025-09-26 20:24:40 +0000";
layers = (
{
anchors = (
{
name = bottom;
pos = (206,0);
},
{
name = center;
pos = (103,620);
},
{
name = top;
pos = (206,500);
}
);
background = {
hints = (
{
name = _segment.CUT;
type = Segment;
},
{
name = _corner.ROUND;
type = Corner;
},
{
name = _corner.ROUND;
type = Corner;
},
{
name = _segment.CUT;
options = 1;
scale = (-1,1);
type = Segment;
},
{
name = _corner.ROUND;
scale = (0.3,0.3);
type = Corner;
},
{
name = _corner.ROUND;
scale = (0.3,0.3);
type = Corner;
},
{
name = _corner.ROUND;
options = 2;
scale = (-0.3,0.3);
type = Corner;
},
{
name = _corner.ROUND;
options = 2;
scale = (-0.3,0.3);
type = Corner;
},
{
name = _segment.CUT;
type = Segment;
},
{
name = _corner.ROUND;
type = Corner;
},
{
name = _corner.ROUND;
type = Corner;
},
{
name = _segment.CUT;
options = 1;
scale = (-1,1);
type = Segment;
},
{
name = _corner.ROUND;
scale = (0.3,0.3);
type = Corner;
},
{
name = _corner.ROUND;
scale = (0.3,0.3);
type = Corner;
},
{
name = _corner.ROUND;
options = 2;
scale = (-0.3,0.3);
type = Corner;
},
{
name = _corner.ROUND;
options = 2;
scale = (-0.3,0.3);
type = Corner;
},
{
name = _segment.CUT;
origin = (0,1);
type = Segment;
},
{
name = _corner.ROUND;
origin = (0,2);
type = Corner;
},
{
name = _corner.ROUND;
origin = (0,3);
type = Corner;
},
{
name = _segment.CUT;
options = 1;
origin = (0,5);
scale = (-1,1);
type = Segment;
},
{
name = _corner.ROUND;
origin = (1,0);
scale = (0.3,0.3);
type = Corner;
},
{
name = _corner.ROUND;
origin = (1,1);
scale = (0.3,0.3);
type = Corner;
},
{
name = _corner.ROUND;
options = 2;
origin = (1,2);
scale = (-0.3,0.3);
type = Corner;
},
{
name = _corner.ROUND;
options = 2;
origin = (1,3);
scale = (-0.3,0.3);
type = Corner;
}
);
shapes = (
{
closed = 1;
nodes = (
(165,0,l),
(250,0,l),
(390,0,l),
(390,530,l),
(250,530,l),
(165,530,l),
(165,700,l),
(25,700,l),
(25,0,l)
);
},
{
closed = 1;
nodes = (
(165,430,l),
(250,430,l),
(250,100,l),
(165,100,l)
);
}
);
};
guides = (
{
angle = 89.6562;
pos = (258,250);
}
);
hints = (
{
name = _corner.BASE;
type = Corner;
},
{
name = _corner.BASE;
scale = (1.08,1.08);
type = Corner;
},
{
name = _corner.BASE;
scale = (1.08,1.08);
type = Corner;
},
{
name = _corner.BASE;
type = Corner;
},
{
name = _corner.BASE;
scale = (0.3,0.3);
type = Corner;
},
{
name = _corner.BASE;
options = 2;
scale = (-0.3,0.3);
type = Corner;
},
{
name = _corner.BASE;
scale = (0.3,0.3);
type = Corner;
},
{
name = _corner.BASE;
options = 2;
scale = (-0.3,0.3);
type = Corner;
},
{
name = _corner.ROUND;
type = Corner;
},
{
name = _corner.ROUND;
type = Corner;
},
{
name = _corner.ROUND;
type = Corner;
},
{
name = _corner.ROUND;
type = Corner;
},
{
name = _corner.ROUND;
scale = (0.3,0.3);
type = Corner;
},
{
name = _corner.ROUND;
scale = (0.3,0.3);
type = Corner;
},
{
name = _corner.ROUND;
options = 2;
scale = (-0.3,0.3);
type = Corner;
},
{
name = _corner.ROUND;
options = 2;
scale = (-0.3,0.3);
type = Corner;
},
{
name = _corner.ROUND;
type = Corner;
},
{
name = _corner.ROUND;
type = Corner;
},
{
name = _corner.ROUND;
type = Corner;
},
{
name = _corner.ROUND;
type = Corner;
},
{
name = _corner.ROUND;
options = 2;
scale = (-0.3,0.3);
type = Corner;
},
{
name = _corner.ROUND;
scale = (0.3,0.3);
type = Corner;
},
{
name = _corner.ROUND;
scale = (0.3,0.3);
type = Corner;
},
{
name = _corner.ROUND;
options = 2;
scale = (-0.3,0.3);
type = Corner;
},
{
name = _segment.CUT;
type = Segment;
},
{
name = _corner.ROUND;
type = Corner;
},
{
name = _corner.ROUND;
type = Corner;
},
{
name = _corner.ROUND;
options = 2;
scale = (-0.3,0.3);
type = Corner;
},
{
name = _corner.ROUND;
scale = (0.3,0.3);
type = Corner;
},
{
name = _corner.ROUND;
scale = (0.3,0.3);
type = Corner;
},
{
name = _corner.ROUND;
options = 2;
scale = (-0.3,0.3);
type = Corner;
},
{
name = _segment.CUT;
origin = (0,1);
type = Segment;
},
{
name = _corner.ROUND;
origin = (0,2);
type = Corner;
},
{
name = _corner.ROUND;
origin = (0,3);
type = Corner;
},
{
name = _segment.CUT;
options = 1;
origin = (0,5);
scale = (-1,1);
type = Segment;
},
{
name = _corner.ROUND;
origin = (1,0);
scale = (0.3,0.3);
type = Corner;
},
{
name = _corner.ROUND;
origin = (1,1);
scale = (0.3,0.3);
type = Corner;
},
{
name = _corner.ROUND;
options = 2;
origin = (1,2);
scale = (-0.3,0.3);
type = Corner;
},
{
name = _corner.ROUND;
options = 2;
origin = (1,3);
scale = (-0.3,0.3);
type = Corner;
}
);
layerId = m01;
shapes = (
{
closed = 1;
nodes = (
(165,0,l),
(250,0,l),
(390,0,l),
(390,500,l),
(250,500,l),
(165,500,l),
(165,650,l),
(25,650,l),
(25,0,l)
);
},
{
closed = 1;
nodes = (
(165,400,l),
(250,400,l),
(250,100,l),
(165,100,l)
);
}
);
width = 412;
},
{
anchors = (
{
name = bottom;
pos = (238,0);
},
{
name = center;
pos = (123,620);
},
{
name = top;
pos = (238,450);
}
);
background = {
hints = (
{
name = _segment.CUT;
type = Segment;
},
{
name = _corner.ROUND;
type = Corner;
},
{
name = _corner.ROUND;
type = Corner;
},
{
name = _segment.CUT;
options = 1;
scale = (-1,1);
type = Segment;
},
{
name = _corner.ROUND;
scale = (0.3,0.3);
type = Corner;
},
{
name = _corner.ROUND;
scale = (0.3,0.3);
type = Corner;
},
{
name = _corner.ROUND;
options = 2;
scale = (-0.3,0.3);
type = Corner;
},
{
name = _corner.ROUND;
options = 2;
scale = (-0.3,0.3);
type = Corner;
},
{
name = _segment.CUT;
type = Segment;
},
{
name = _corner.ROUND;
type = Corner;
},
{
name = _corner.ROUND;
type = Corner;
},
{
name = _segment.CUT;
options = 1;
scale = (-1,1);
type = Segment;
},
{
name = _corner.ROUND;
scale = (0.3,0.3);
type = Corner;
},
{
name = _corner.ROUND;
scale = (0.3,0.3);
type = Corner;
},
{
name = _corner.ROUND;
options = 2;
scale = (-0.3,0.3);
type = Corner;
},
{
name = _corner.ROUND;
options = 2;
scale = (-0.3,0.3);
type = Corner;
},
{
name = _segment.CUT;
type = Segment;
},
{
name = _corner.ROUND;
type = Corner;
},
{
name = _corner.ROUND;
type = Corner;
},
{
name = _segment.CUT;
options = 1;
scale = (-1,1);
type = Segment;
},
{
name = _corner.ROUND;
scale = (0.3,0.3);
type = Corner;
},
{
name = _corner.ROUND;
scale = (0.3,0.3);
type = Corner;
},
{
name = _corner.ROUND;
options = 2;
scale = (-0.3,0.3);
type = Corner;
},
{
name = _corner.ROUND;
options = 2;
scale = (-0.3,0.3);
type = Corner;
},
{
name = _corner.ROUND;
origin = (0,0);
scale = (0.5,0.8);
type = Corner;
},
{
name = _corner.ROUND;
origin = (0,1);
scale = (0.7,0.7);
type = Corner;
}
);
shapes = (
{
closed = 0;
nodes = (
(118,400,l),
(363,400,l)
);
}
);
};
backgroundImage = {
crop = (38.818,1.675,40.591,81.325);
imagePath = "../png/abcdefg.png";
locked = 1;
pos = (-361,-167);
scale = (10.15,10.15);
};
guides = (
{
angle = 89.6562;
pos = (291,250);
}
);
hints = (
{
name = _corner.BASE;
type = Corner;
},
{
name = _corner.BASE;
scale = (1.08,1.08);
type = Corner;
},
{
name = _corner.BASE;
scale = (1.08,1.08);
type = Corner;
},
{
name = _corner.BASE;
type = Corner;
},
{
name = _corner.BASE;
scale = (0.3,0.3);
type = Corner;
},
{
name = _corner.BASE;
options = 2;
scale = (-0.3,0.3);
type = Corner;
},
{
name = _corner.BASE;
scale = (0.3,0.3);
type = Corner;
},
{
name = _corner.BASE;
options = 2;
scale = (-0.3,0.3);
type = Corner;
},
{
name = _corner.ROUND;
type = Corner;
},
{
name = _corner.ROUND;
type = Corner;
},
{
name = _corner.ROUND;
type = Corner;
},
{
name = _corner.ROUND;
type = Corner;
},
{
name = _corner.ROUND;
scale = (0.3,0.3);
type = Corner;
},
{
name = _corner.ROUND;
scale = (0.3,0.3);
type = Corner;
},
{
name = _corner.ROUND;
options = 2;
scale = (-0.3,0.3);
type = Corner;
},
{
name = _corner.ROUND;
options = 2;
scale = (-0.3,0.3);
type = Corner;
},
{
name = _corner.ROUND;
type = Corner;
},
{
name = _corner.ROUND;
type = Corner;
},
{
name = _corner.ROUND;
type = Corner;
},
{
name = _corner.ROUND;
type = Corner;
},
{
name = _corner.ROUND;
options = 2;
scale = (-0.3,0.3);
type = Corner;
},
{
name = _corner.ROUND;
scale = (0.3,0.3);
type = Corner;
},
{
name = _corner.ROUND;
scale = (0.3,0.3);
type = Corner;
},
{
name = _corner.ROUND;
options = 2;
scale = (-0.3,0.3);
type = Corner;
},
{
name = _segment.CUT;
type = Segment;
},
{
name = _corner.ROUND;
type = Corner;
},
{
name = _corner.ROUND;
type = Corner;
},
{
name = _corner.ROUND;
options = 2;
scale = (-0.3,0.3);
type = Corner;
},
{
name = _corner.ROUND;
scale = (0.3,0.3);
type = Corner;
},
{
name = _corner.ROUND;
scale = (0.3,0.3);
type = Corner;
},
{
name = _corner.ROUND;
options = 2;
scale = (-0.3,0.3);
type = Corner;
},
{
name = _segment.CUT;
origin = (0,1);
type = Segment;
},
{
name = _corner.ROUND;
origin = (0,2);
scale = (1.08,1.08);
type = Corner;
},
{
name = _corner.ROUND;
origin = (0,3);
scale = (1.08,1.08);
type = Corner;
},
{
name = _segment.CUT;
options = 1;
origin = (0,5);
scale = (-1,1);
type = Segment;
},
{
name = _corner.ROUND;
origin = (1,0);
scale = (0.8,0.5);
type = Corner;
},
{
name = _corner.ROUND;
origin = (1,1);
scale = (0.7,0.7);
type = Corner;
},
{
name = _corner.ROUND;
options = 2;
origin = (1,2);
scale = (-0.7,0.7);
type = Corner;
},
{
name = _corner.ROUND;
options = 2;
origin = (1,3);
scale = (-0.8,0.5);
type = Corner;
}
);
layerId = m002;
shapes = (
{
closed = 1;
nodes = (
(118,0,l),
(263,0,l),
(423,0,l),
(423,433,l),
(263,433,l),
(118,433,l),
(118,650,l),
(58,650,l),
(58,0,l)
);
},
{
closed = 1;
nodes = (
(118,383,l),
(363,383,l),
(363,50,l),
(118,50,l)
);
}
);
width = 473;
}
);
metricLeft = h;
metricRight = "=o";
unicode = 98;
},
{
glyphname = c;
kernLeft = o;
kernRight = c;
lastChange = "2025-09-26 20:58:14 +0000";
layers = (
{
anchors = (
{
name = bottom;
pos = (205,0);
},
{
name = top;
pos = (205,500);
}
);
background = {
hints = (
{
name = _corner.ROUND;
origin = (0,0);
type = Corner;
},
{
name = _corner.ROUND;
origin = (0,1);
type = Corner;
},
{
name = _corner.ROUND;
origin = (0,2);
type = Corner;
},
{
name = _corner.ROUND;
origin = (0,5);
scale = (0.3,0.3);
type = Corner;
},
{
name = _corner.ROUND;
origin = (0,6);
scale = (0.3,0.3);
type = Corner;
},
{
name = _corner.ROUND;
options = 2;
origin = (0,7);
scale = (-0.3,0.3);
type = Corner;
},
{
name = _corner.ROUND;
options = 2;
origin = (0,8);
scale = (-0.3,0.3);
type = Corner;
},
{
name = _corner.ROUND;
origin = (0,11);
type = Corner;
}
);
shapes = (
{
closed = 1;
nodes = (
(22,530,l),
(22,0,l),
(387,0,l),
(387,181,l),
(247,181,l),
(247,100,l),
(162,100,l),
(162,430,l),
(247,430,l),
(247,341,l),
(387,341,l),
(387,530,l)
);
}
);
};
hints = (
{
name = _corner.ROUND;
origin = (0,0);
type = Corner;
},
{
name = _corner.ROUND;
origin = (0,1);
type = Corner;
},
{
name = _corner.ROUND;
origin = (0,2);
type = Corner;
},
{
name = _corner.ROUND;
origin = (0,11);
type = Corner;
},
{
name = _corner.ROUND;
origin = (0,5);
scale = (0.3,0.3);
type = Corner;
},
{
name = _corner.ROUND;
origin = (0,6);
scale = (0.3,0.3);
type = Corner;
},
{
name = _corner.ROUND;
options = 2;
origin = (0,7);
scale = (-0.3,0.3);
type = Corner;
},
{
name = _corner.ROUND;
options = 2;
origin = (0,8);
scale = (-0.3,0.3);
type = Corner;
}
);
layerId = m01;
shapes = (
{
closed = 1;
nodes = (
(22,500,l),
(22,0,l),
(387,0,l),
(387,173,l),
(247,173,l),
(247,100,l),
(162,100,l),
(162,400,l),
(247,400,l),
(247,327,l),
(387,327,l),
(387,500,l)
);
}
);
width = 404;
},
{
anchors = (
{
name = bottom;
pos = (233,0);
},
{
name = top;
pos = (233,450);
}
);
backgroundImage = {
crop = (79.606,1.675,40.295,81.325);
imagePath = "../png/abcdefg.png";
locked = 1;
pos = (-780,-167);
scale = (10.15,10.15);
};
hints = (
{
name = _corner.ROUND;
origin = (0,0);
scale = (1.08,1.08);
type = Corner;
},
{
name = _corner.ROUND;
origin = (0,1);
scale = (1.08,1.08);
type = Corner;
},
{
name = _corner.ROUND;
origin = (0,2);
scale = (1.08,1.08);
type = Corner;
},
{
name = _corner.ROUND;
origin = (0,11);
scale = (1.08,1.08);
type = Corner;
},
{
name = _corner.ROUND;
origin = (0,5);
scale = (0.7,0.7);
type = Corner;
},
{
name = _corner.ROUND;
origin = (0,6);
scale = (0.7,0.7);
type = Corner;
},
{
name = _corner.ROUND;
options = 2;
origin = (0,7);
scale = (-0.7,0.7);
type = Corner;
},
{
name = _corner.ROUND;
options = 2;
origin = (0,8);
scale = (-0.7,0.7);
type = Corner;
}
);
layerId = m002;
shapes = (
{
closed = 1;
nodes = (
(50,433,l),
(50,0,l),
(415,0,l),
(415,160,l),
(355,160,l),
(355,50,l),
(110,50,l),
(110,383,l),
(355,383,l),
(355,273,l),
(415,273,l),
(415,433,l)
);
}
);
width = 453;
}
);
metricLeft = "=o";
metricRight = "=o*.75";
unicode = 99;
},
{
glyphname = d;
kernLeft = o;
kernRight = l;
lastChange = "2025-09-26 20:24:40 +0000";
layers = (
{
anchors = (
{
name = bottom;
pos = (206,0);
},
{
name = center;
pos = (318,565);
},
{
name = top;
pos = (206,500);
},
{
name = topright;
pos = (392,775);
}
);
background = {
hints = (
{
name = _segment.CUT;
origin = (0,3);
type = Segment;
},
{
name = _corner.ROUND;
origin = (0,4);
type = Corner;
},
{
name = _corner.ROUND;
origin = (0,5);
type = Corner;
},
{
name = _segment.CUT;
options = 1;
origin = (0,7);
scale = (-1,1);
type = Segment;
},
{
name = _corner.ROUND;
options = 2;
origin = (1,0);
scale = (-0.3,0.3);
type = Corner;
},
{
name = _corner.ROUND;
origin = (1,1);
scale = (0.3,0.3);
type = Corner;
},
{
name = _corner.ROUND;
origin = (1,2);
scale = (0.3,0.3);
type = Corner;
},
{
name = _corner.ROUND;
options = 2;
origin = (1,3);
scale = (-0.3,0.3);
type = Corner;
}
);
shapes = (
{
closed = 1;
nodes = (
(387,699,l),
(247,699,l),
(247,529,l),
(162,529,l),
(22,529,l),
(22,-1,l),
(162,-1,l),
(247,-1,l),
(387,-1,l)
);
},
{
closed = 1;
nodes = (
(162,99,l),
(162,429,l),
(247,429,l),
(247,99,l)
);
}
);
};
hints = (
{
name = _corner.ROUND;
origin = (0,4);
type = Corner;
},
{
name = _corner.ROUND;
origin = (1,2);
scale = (0.3,0.3);
type = Corner;
},
{
name = _corner.ROUND;
origin = (1,1);
scale = (0.3,0.3);
type = Corner;
},
{
name = _corner.ROUND;
options = 2;
origin = (1,0);
scale = (-0.3,0.3);
type = Corner;
},
{
name = _corner.ROUND;
options = 2;
origin = (1,3);
scale = (-0.3,0.3);
type = Corner;
},
{
name = _segment.CUT;
origin = (0,3);
type = Segment;
},
{
name = _corner.ROUND;
origin = (0,5);
type = Corner;
},
{
name = _segment.CUT;
options = 1;
origin = (0,7);
scale = (-1,1);
type = Segment;
}
);
layerId = m01;
shapes = (
{
closed = 1;
nodes = (
(387,650,l),
(247,650,l),
(247,500,l),
(162,500,l),
(22,500,l),
(22,0,l),
(162,0,l),
(247,0,l),
(387,0,l)
);
},
{
closed = 1;
nodes = (
(162,100,l),
(162,400,l),
(247,400,l),
(247,100,l)
);
}
);
width = 412;
},
{
anchors = (
{
name = bottom;
pos = (236,0);
},
{
name = center;
pos = (350,620);
},
{
name = top;
pos = (236,450);
},
{
name = topright;
pos = (445,775);
}
);
backgroundImage = {
crop = (119.212,1.675,40.591,81.325);
imagePath = "../png/abcdefg.png";
locked = 1;
pos = (-1182,-167);
scale = (10.15,10.15);
};
hints = (
{
name = _corner.ROUND;
origin = (0,4);
scale = (1.08,1);
type = Corner;
},
{
name = _corner.ROUND;
origin = (1,2);
scale = (0.5,0.8);
type = Corner;
},
{
name = _corner.ROUND;
origin = (1,1);
scale = (0.7,0.7);
type = Corner;
},
{
name = _corner.ROUND;
options = 2;
origin = (1,0);
scale = (-0.7,0.7);
type = Corner;
},
{
name = _corner.ROUND;
options = 2;
origin = (1,3);
scale = (-0.5,0.8);
type = Corner;
},
{
name = _segment.CUT;
origin = (0,3);
scale = (1,1.01);
type = Segment;
},
{
name = _corner.ROUND;
origin = (0,5);
scale = (1.08,1);
type = Corner;
},
{
name = _segment.CUT;
options = 1;
origin = (0,7);
scale = (-1,1);
type = Segment;
}
);
layerId = m002;
shapes = (
{
closed = 1;
nodes = (
(415,650,l),
(355,650,l),
(355,433,l),
(210,433,l),
(50,433,l),
(50,0,l),
(210,0,l),
(355,0,l),
(415,0,l)
);
},
{
closed = 1;
nodes = (
(110,50,l),
(110,383,l),
(355,383,l),
(355,50,l)
);
}
);
width = 473;
}
);
metricLeft = "=o";
metricRight = "=h";
unicode = 100;
},
{
glyphname = e;
kernLeft = o;
kernRight = e;
lastChange = "2025-09-26 21:09:45 +0000";
layers = (
{
anchors = (
{
name = bottom;
pos = (205,0);
},
{
name = ogonek;
pos = (368,10);
},
{
name = top;
pos = (205,500);
}
);
hints = (
{
name = _corner.ROUND;
type = Corner;
},
{
name = _corner.ROUND;
options = 2;
scale = (-0.3,0.3);
type = Corner;
},
{
name = _corner.ROUND;
options = 2;
scale = (-0.3,0.3);
type = Corner;
},
{
name = _corner.ROUND;
type = Corner;
},
{
name = _corner.ROUND;
type = Corner;
},
{
name = _corner.ROUND;
type = Corner;
},
{
name = _corner.ROUND;
scale = (0.3,0.3);
type = Corner;
},
{
name = _corner.ROUND;
scale = (0.3,0.3);
type = Corner;
},
{
name = _corner.ROUND;
origin = (0,0);
scale = (1.08,1.08);
type = Corner;
},
{
name = _corner.ROUND;
origin = (0,1);
scale = (1.08,1.08);
type = Corner;
},
{
name = _corner.ROUND;
origin = (0,2);
scale = (1.08,1.08);
type = Corner;
},
{
name = _corner.ROUND;
origin = (0,9);
scale = (1.08,1.08);
type = Corner;
},
{
name = _corner.ROUND;
origin = (0,5);
scale = (0.3,0.3);
type = Corner;
},
{
name = _corner.ROUND;
origin = (0,6);
scale = (0.3,0.3);
type = Corner;
},
{
name = _corner.ROUND;
options = 2;
origin = (1,2);
scale = (-0.3,0.3);
type = Corner;
},
{
name = _corner.ROUND;
options = 2;
origin = (1,3);
scale = (-0.3,0.3);
type = Corner;
}
);
layerId = m01;
shapes = (
{
closed = 1;
nodes = (
(22,500,l),
(22,0,l),
(387,0,l),
(387,159,l),
(247,159,l),
(247,100,l),
(162,100,l),
(162,216,l),
(387,216,l),
(387,500,l)
);
},
{
closed = 1;
nodes = (
(247,296,l),
(162,296,l),
(162,400,l),
(247,400,l)
);
}
);
width = 409;
},
{
anchors = (
{
name = bottom;
pos = (233,0);
},
{
name = ogonek;
pos = (414,10);
},
{
name = top;
pos = (233,450);
}
);
backgroundImage = {
crop = (157.635,1.675,40.295,81.325);
imagePath = "../png/abcdefg.png";
locked = 1;
pos = (-1572,-167);
scale = (10.15,10.15);
};
hints = (
{
name = _corner.ROUND;
type = Corner;
},
{
name = _corner.ROUND;
options = 2;
scale = (-0.3,0.3);
type = Corner;
},
{
name = _corner.ROUND;
options = 2;
scale = (-0.3,0.3);
type = Corner;
},
{
name = _corner.ROUND;
type = Corner;
},
{
name = _corner.ROUND;
type = Corner;
},
{
name = _corner.ROUND;
type = Corner;
},
{
name = _corner.ROUND;
scale = (0.3,0.3);
type = Corner;
},
{
name = _corner.ROUND;
scale = (0.3,0.3);
type = Corner;
},
{
name = _corner.ROUND;
origin = (0,0);
scale = (1.08,1.08);
type = Corner;
},
{
name = _corner.ROUND;
origin = (0,1);
scale = (1.08,1.08);
type = Corner;
},
{
name = _corner.ROUND;
origin = (0,2);
scale = (1.08,1.08);
type = Corner;
},
{
name = _corner.ROUND;
origin = (0,9);
scale = (1.08,1.08);
type = Corner;
},
{
name = _corner.ROUND;
origin = (0,5);
scale = (0.7,0.7);
type = Corner;
},
{
name = _corner.ROUND;
origin = (0,6);
scale = (0.7,0.7);
type = Corner;
},
{
name = _corner.ROUND;
options = 2;
origin = (1,2);
scale = (-0.7,0.7);
type = Corner;
},
{
name = _corner.ROUND;
options = 2;
origin = (1,3);
scale = (-0.7,0.7);
type = Corner;
}
);
layerId = m002;
shapes = (
{
closed = 1;
nodes = (
(50,433,l),
(50,0,l),
(415,0,l),
(415,159,l),
(355,159,l),
(355,50,l),
(110,50,l),
(110,199,l),
(415,199,l),
(415,433,l)
);
},
{
closed = 1;
nodes = (
(355,249,l),
(110,249,l),
(110,383,l),
(355,383,l)
);
}
);
width = 465;
}
);
metricLeft = "=o";
metricRight = "=o";
unicode = 101;
},
{
glyphname = f;
kernLeft = f;
kernRight = f;
lastChange = "2025-09-26 20:24:40 +0000";
layers = (
{
anchors = (
{
name = bottom;
pos = (153,0);
},
{
name = top;
pos = (153,775);
}
);
hints = (
{
name = _corner.ROUND;
origin = (0,4);
type = Corner;
},
{
name = _corner.ROUND;
origin = (0,1);
scale = (0.3,0.3);
type = Corner;
}
);
layerId = m01;
shapes = (
{
closed = 1;
nodes = (
(223,0,l),
(223,550,l),
(293,550,l),
(293,650,l),
(83,650,l),
(83,0,l)
);
},
{
closed = 1;
nodes = (
(293,400,l),
(293,500,l),
(13,500,l),
(13,400,l)
);
}
);
width = 306;
},
{
anchors = (
{
name = bottom;
pos = (149,0);
},
{
name = top;
pos = (149,775);
}
);
backgroundImage = {
crop = (195.566,1.675,30.148,81.325);
imagePath = "../png/abcdefg.png";
locked = 1;
pos = (-1969,-167);
scale = (10.15,10.15);
};
hints = (
{
name = _corner.ROUND;
origin = (0,4);
type = Corner;
},
{
name = _corner.ROUND;
origin = (0,1);
scale = (0.5,0.5);
type = Corner;
}
);
layerId = m002;
shapes = (
{
closed = 1;
nodes = (
(159,0,l),
(159,600,l),
(269,600,l),
(269,650,l),
(99,650,l),
(99,0,l)
);
},
{
closed = 1;
nodes = (
(269,383,l),
(269,433,l),
(29,433,l),
(29,383,l)
);
}
);
width = 298;
}
);
metricLeft = "=h*.5";
metricRight = "=h*.5";
unicode = 102;
},
{
glyphname = g;
kernLeft = g;
kernRight = g;
lastChange = "2025-09-27 21:31:26 +0000";
layers = (
{
anchors = (
{
name = bottom;
pos = (206,-150);
},
{
name = top;
pos = (206,500);
}
);
background = {
hints = (
{
name = _segment.CUT;
options = 1;
scale = (-1,1);
type = Segment;
},
{
name = _corner.ROUND;
type = Corner;
},
{
name = _segment.CUT;
type = Segment;
},
{
name = _corner.ROUND;
type = Corner;
},
{
name = _corner.ROUND;
type = Corner;
},
{
name = _corner.ROUND;
scale = (0.3,0.3);
type = Corner;
},
{
name = _corner.ROUND;
scale = (0.3,0.3);
type = Corner;
},
{
name = _corner.ROUND;
options = 2;
scale = (-0.3,0.3);
type = Corner;
},
{
name = _corner.ROUND;
options = 2;
scale = (-0.3,0.3);
type = Corner;
},
{
name = _corner.ROUND;
options = 2;
scale = (-0.3,0.3);
type = Corner;
},
{
name = _corner.ROUND;
options = 2;
scale = (-0.3,0.3);
type = Corner;
},
{
name = _corner.ROUND;
type = Corner;
},
{
name = _segment.CUT;
options = 1;
scale = (-1,1);
type = Segment;
},
{
name = _corner.ROUND;
type = Corner;
},
{
name = _segment.CUT;
type = Segment;
},
{
name = _corner.ROUND;
type = Corner;
},
{
name = _corner.ROUND;
type = Corner;
},
{
name = _corner.ROUND;
scale = (0.3,0.3);
type = Corner;
},
{
name = _corner.ROUND;
scale = (0.3,0.3);
type = Corner;
},
{
name = _corner.ROUND;
options = 2;
scale = (-0.3,0.3);
type = Corner;
},
{
name = _corner.ROUND;
options = 2;
scale = (-0.3,0.3);
type = Corner;
},
{
name = _corner.ROUND;
options = 2;
scale = (-0.3,0.3);
type = Corner;
},
{
name = _corner.ROUND;
options = 2;
scale = (-0.3,0.3);
type = Corner;
},
{
name = _corner.ROUND;
type = Corner;
},
{
name = _corner.ROUND;
type = Corner;
},
{
name = _corner.ROUND;
origin = (0,1);
type = Corner;
},
{
name = _segment.CUT;
origin = (0,4);
type = Segment;
},
{
name = _corner.ROUND;
origin = (0,5);
type = Corner;
},
{
name = _corner.ROUND;
origin = (0,6);
type = Corner;
},
{
name = _segment.CUT;
options = 1;
origin = (0,8);
scale = (-1,1);
type = Segment;
},
{
name = _corner.ROUND;
options = 2;
origin = (0,10);
scale = (-0.3,0.3);
type = Corner;
},
{
name = _corner.ROUND;
options = 2;
origin = (0,11);
scale = (-0.3,0.3);
type = Corner;
},
{
name = _corner.ROUND;
origin = (0,14);
type = Corner;
},
{
name = _corner.ROUND;
origin = (1,0);
scale = (0.3,0.3);
type = Corner;
},
{
name = _corner.ROUND;
origin = (1,1);
scale = (0.3,0.3);
type = Corner;
},
{
name = _corner.ROUND;
options = 2;
origin = (1,2);
scale = (-0.3,0.3);
type = Corner;
},
{
name = _corner.ROUND;
options = 2;
origin = (1,3);
scale = (-0.3,0.3);
type = Corner;
}
);
shapes = (
{
closed = 1;
nodes = (
(247,-175,l),
(387,-175,l),
(387,530,l),
(247,530,l),
(162,530,l),
(22,530,l),
(22,0,l),
(162,0,l),
(247,0,l),
(247,-25,l),
(247,-75,l),
(162,-75,l),
(162,-25,l),
(22,-25,l),
(22,-175,l),
(162,-175,l)
);
},
{
closed = 1;
nodes = (
(162,430,l),
(247,430,l),
(247,100,l),
(162,100,l)
);
}
);
};
hints = (
{
name = _segment.CUT;
options = 1;
origin = (0,7);
scale = (-1,1);
type = Segment;
},
{
name = _corner.ROUND;
origin = (0,4);
type = Corner;
},
{
name = _corner.ROUND;
origin = (0,5);
type = Corner;
},
{
name = _corner.ROUND;
origin = (1,0);
scale = (0.3,0.3);
type = Corner;
},
{
name = _corner.ROUND;
origin = (1,1);
scale = (0.3,0.3);
type = Corner;
},
{
name = _corner.ROUND;
options = 2;
origin = (1,2);
scale = (-0.3,0.3);
type = Corner;
},
{
name = _corner.ROUND;
options = 2;
origin = (1,3);
scale = (-0.3,0.3);
type = Corner;
},
{
name = _corner.ROUND;
origin = (0,0);
type = Corner;
},
{
name = _corner.ROUND;
options = 2;
origin = (0,8);
scale = (-0.3,0.3);
type = Corner;
},
{
name = _corner.ROUND;
options = 2;
origin = (0,9);
scale = (-0.3,0.3);
type = Corner;
},
{
name = _corner.ROUND;
origin = (0,0);
type = Corner;
},
{
name = _corner.ROUND;
origin = (0,0);
type = Corner;
},
{
name = _corner.ROUND;
origin = (0,12);
type = Corner;
},
{
name = _segment.CUT;
origin = (0,3);
type = Segment;
}
);
layerId = m01;
shapes = (
{
closed = 1;
nodes = (
(387,-175,l),
(387,500,l),
(247,500,l),
(162,500,l),
(22,500,l),
(22,0,l),
(162,0,l),
(247,0,l),
(247,-75,l),
(162,-75,l),
(162,-25,l),
(22,-25,l),
(22,-175,l)
);
},
{
closed = 1;
nodes = (
(162,400,l),
(247,400,l),
(247,100,l),
(162,100,l)
);
}
);
width = 412;
},
{
anchors = (
{
name = bottom;
pos = (236,-150);
},
{
name = top;
pos = (236,450);
}
);
backgroundImage = {
crop = (225.123,1.675,39.877,81.325);
imagePath = "../png/abcdefg.png";
locked = 1;
pos = (-2257,-167);
scale = (10.15,10.15);
};
hints = (
{
name = _segment.CUT;
options = 1;
origin = (0,7);
scale = (-1,1);
type = Segment;
},
{
name = _corner.ROUND;
origin = (0,4);
scale = (1.08,1.08);
type = Corner;
},
{
name = _corner.ROUND;
origin = (0,5);
scale = (1.08,1.08);
type = Corner;
},
{
name = _corner.ROUND;
origin = (1,0);
scale = (0.7,0.7);
type = Corner;
},
{
name = _corner.ROUND;
origin = (1,1);
scale = (0.5,0.8);
type = Corner;
},
{
name = _corner.ROUND;
options = 2;
origin = (1,2);
scale = (-0.5,0.8);
type = Corner;
},
{
name = _corner.ROUND;
options = 2;
origin = (1,3);
scale = (-0.7,0.7);
type = Corner;
},
{
name = _corner.ROUND;
origin = (0,0);
scale = (0.9,0.9);
type = Corner;
},
{
name = _corner.ROUND;
options = 2;
origin = (0,8);
scale = (-0.5,0.5);
type = Corner;
},
{
name = _corner.ROUND;
options = 2;
origin = (0,9);
scale = (-0.5,0.5);
type = Corner;
},
{
name = _corner.ROUND;
origin = (0,0);
type = Corner;
},
{
name = _corner.ROUND;
origin = (0,0);
type = Corner;
},
{
name = _corner.ROUND;
origin = (0,12);
scale = (0.9,0.9);
type = Corner;
},
{
name = _segment.CUT;
origin = (0,3);
type = Segment;
}
);
layerId = m002;
shapes = (
{
closed = 1;
nodes = (
(415,-150,l),
(415,433,l),
(355,433,l),
(210,433,l),
(50,433,l),
(50,0,l),
(210,0,l),
(355,0,l),
(355,-100,l),
(120,-100,l),
(120,-22,l),
(60,-22,l),
(60,-150,l)
);
},
{
closed = 1;
nodes = (
(110,383,l),
(355,383,l),
(355,50,l),
(110,50,l)
);
}
);
width = 473;
}
);
metricLeft = "=o";
metricRight = h;
unicode = 103;
},
{
glyphname = h;
kernLeft = h;
kernRight = n;
lastChange = "2025-09-26 20:24:36 +0000";
layers = (
{
anchors = (
{
name = bottom;
pos = (208,0);
},
{
name = center;
pos = (104,620);
},
{
name = top;
pos = (208,775);
}
);
background = {
hints = (
{
name = _corner.ROUND;
type = Corner;
},
{
name = _corner.ROUND;
options = 2;
scale = (-0.3,0.3);
type = Corner;
},
{
name = _corner.ROUND;
options = 2;
scale = (-0.3,0.3);
type = Corner;
},
{
name = _corner.ROUND;
type = Corner;
},
{
name = _corner.ROUND;
options = 2;
scale = (-0.3,0.3);
type = Corner;
},
{
name = _corner.ROUND;
options = 2;
scale = (-0.3,0.3);
type = Corner;
},
{
name = _corner.ROUND;
options = 2;
origin = (0,1);
scale = (-0.3,0.3);
type = Corner;
},
{
name = _corner.ROUND;
options = 2;
origin = (0,2);
scale = (-0.3,0.3);
type = Corner;
},
{
name = _corner.ROUND;
origin = (0,5);
type = Corner;
},
{
name = _segment.CUT;
options = 1;
origin = (0,7);
scale = (-1,1);
type = Segment;
}
);
shapes = (
{
closed = 1;
nodes = (
(165,0,l),
(165,430,l),
(250,430,l),
(250,0,l),
(390,0,l),
(390,530,l),
(250,530,l),
(165,530,l),
(165,700,l),
(25,700,l),
(25,0,l)
);
}
);
};
hints = (
{
name = _corner.ROUND;
origin = (0,5);
type = Corner;
},
{
name = _corner.ROUND;
options = 2;
origin = (0,1);
scale = (-0.3,0.3);
type = Corner;
},
{
name = _corner.ROUND;
options = 2;
origin = (0,2);
scale = (-0.3,0.3);
type = Corner;
},
{
name = _segment.CUT;
options = 1;
origin = (0,7);
scale = (-1,1);
type = Segment;
}
);
layerId = m01;
shapes = (
{
closed = 1;
nodes = (
(165,0,l),
(165,400,l),
(250,400,l),
(250,0,l),
(390,0,l),
(390,500,l),
(250,500,l),
(165,500,l),
(165,650,l),
(25,650,l),
(25,0,l)
);
}
);
width = 415;
},
{
anchors = (
{
name = bottom;
pos = (241,0);
},
{
name = center;
pos = (124,620);
},
{
name = top;
pos = (241,775);
}
);
backgroundImage = {
crop = (0.294,2.157,40.697,80.843);
imagePath = "../png/hijklmno.png";
locked = 1;
pos = (30,-172);
scale = (10.1972,10.1972);
};
hints = (
{
name = _corner.ROUND;
origin = (0,5);
scale = (1.08,1.08);
type = Corner;
},
{
name = _corner.ROUND;
options = 2;
origin = (0,1);
scale = (-0.5,0.8);
type = Corner;
},
{
name = _corner.ROUND;
options = 2;
origin = (0,2);
scale = (-0.7,0.7);
type = Corner;
},
{
name = _segment.CUT;
options = 1;
origin = (0,7);
scale = (-1,1);
type = Segment;
}
);
layerId = m002;
shapes = (
{
closed = 1;
nodes = (
(118,0,l),
(118,383,l),
(363,383,l),
(363,0,l),
(423,0,l),
(423,433,l),
(263,433,l),
(118,433,l),
(118,650,l),
(58,650,l),
(58,0,l)
);
}
);
width = 481;
}
);
unicode = 104;
},
{
glyphname = i;
kernLeft = i;
kernRight = i;
lastChange = "2025-09-26 20:24:40 +0000";
layers = (
{
anchors = (
{
name = bottom;
pos = (95,0);
}
);
layerId = m01;
shapes = (
{
closed = 1;
nodes = (
(165,650,l),
(25,650,l),
(25,550,l),
(165,550,l)
);
},
{
ref = idotless;
}
);
width = 190;
},
{
anchors = (
{
name = bottom;
pos = (88,0);
}
);
background = {
backgroundImage = {
imagePath = "../png/hijklmno.png";
pos = (-10,-172);
scale = (10.1972,10.1972);
};
};
layerId = m002;
shapes = (
{
closed = 1;
nodes = (
(118,583,l),
(58,583,l),
(58,513,l),
(118,513,l)
);
},
{
pos = (-7,0);
ref = idotless;
}
);
width = 176;
}
);
metricLeft = "=h";
metricRight = "=h";
unicode = 105;
},
{
glyphname = idotless;
kernLeft = i;
kernRight = i;
lastChange = "2025-09-26 19:31:08 +0000";
layers = (
{
anchors = (
{
name = bottom;
pos = (95,0);
},
{
name = ogonek;
pos = (165,0);
},
{
name = top;
pos = (95,500);
}
);
layerId = m01;
shapes = (
{
closed = 1;
nodes = (
(165,500,l),
(25,500,l),
(25,0,l),
(165,0,l)
);
}
);
width = 190;
},
{
anchors = (
{
name = bottom;
pos = (95,0);
},
{
name = ogonek;
pos = (125,0);
},
{
name = top;
pos = (95,450);
}
);
backgroundImage = {
crop = (37.167,2.157,18.632,80.843);
imagePath = "../png/hijklmno.png";
locked = 1;
pos = (-379,-172);
scale = (10.1972,10.1972);
};
layerId = m002;
shapes = (
{
closed = 1;
nodes = (
(125,433,l),
(65,433,l),
(65,0,l),
(125,0,l)
);
}
);
width = 190;
}
);
unicode = 305;
},
{
glyphname = j;
kernLeft = j;
kernRight = j;
lastChange = "2025-09-26 21:35:39 +0000";
layers = (
{
background = {
hints = (
{
name = _corner.ROUND;
origin = (0,1);
scale = (0.3,0.3);
type = Corner;
},
{
name = _corner.ROUND;
origin = (0,5);
type = Corner;
}
);
shapes = (
{
closed = 1;
nodes = (
(58,530,l),
(58,-75,l),
(-12,-75,l),
(-12,-175,l),
(58,-175,l),
(198,-175,l),
(198,530,l)
);
},
{
closed = 1;
nodes = (
(198,680,l),
(58,680,l),
(58,580,l),
(198,580,l)
);
}
);
};
layerId = m01;
shapes = (
{
closed = 1;
nodes = (
(198,650,l),
(58,650,l),
(58,550,l),
(198,550,l)
);
},
{
ref = jdotless;
}
);
width = 223;
},
{
layerId = m002;
shapes = (
{
closed = 1;
nodes = (
(111,583,l),
(51,583,l),
(51,513,l),
(111,513,l)
);
},
{
ref = jdotless;
}
);
width = 169;
}
);
metricLeft = "=h*-.5";
metricRight = "=h";
unicode = 106;
},
{
glyphname = jdotless;
kernLeft = j;
kernRight = j;
lastChange = "2025-09-26 21:25:52 +0000";
layers = (
{
anchors = (
{
name = bottom;
pos = (124,-150);
},
{
name = top;
pos = (126,500);
}
);
hints = (
{
name = _corner.ROUND;
origin = (0,1);
scale = (0.3,0.3);
type = Corner;
},
{
name = _corner.ROUND;
origin = (0,4);
type = Corner;
}
);
layerId = m01;
shapes = (
{
closed = 1;
nodes = (
(58,500,l),
(58,-75,l),
(-12,-75,l),
(-12,-175,l),
(198,-175,l),
(198,500,l)
);
}
);
width = 223;
},
{
anchors = (
{
name = bottom;
pos = (85,-150);
},
{
name = top;
pos = (85,433);
}
);
backgroundImage = {
crop = (57.172,2.157,19.417,80.843);
imagePath = "../png/hijklmno.png";
locked = 1;
pos = (-605,-172);
scale = (10.1972,10.1972);
};
hints = (
{
name = _corner.ROUND;
origin = (0,1);
scale = (0.5,0.5);
type = Corner;
},
{
name = _corner.ROUND;
origin = (0,4);
type = Corner;
}
);
layerId = m002;
shapes = (
{
closed = 1;
nodes = (
(51,433,l),
(51,-125,l),
(-19,-125,l),
(-19,-175,l),
(111,-175,l),
(111,433,l)
);
}
);
width = 169;
}
);
metricLeft = "=j";
metricRight = "=h";
unicode = 567;
},
{
glyphname = k;
kernLeft = h;
kernRight = k;
lastChange = "2025-09-26 20:24:40 +0000";
layers = (
{
anchors = (
{
name = bottom;
pos = (205,0);
},
{
name = top;
pos = (205,775);
}
);
background = {
shapes = (
{
closed = 1;
nodes = (
(255,190,l),
(390,500,l),
(250,500,l),
(115,190,l)
);
},
{
closed = 1;
nodes = (
(390,0,l),
(267,286,l),
(127,286,l),
(250,0,l)
);
},
{
closed = 1;
nodes = (
(165,0,l),
(165,650,l),
(25,650,l),
(25,0,l)
);
}
);
};
layerId = m01;
shapes = (
{
closed = 1;
nodes = (
(267,218,l),
(390,500,l),
(250,500,l),
(127,218,l)
);
},
{
closed = 1;
nodes = (
(390,0,l),
(267,286,l),
(127,286,l),
(250,0,l)
);
},
{
closed = 1;
nodes = (
(165,0,l),
(165,650,l),
(25,650,l),
(25,0,l)
);
}
);
width = 409;
},
{
anchors = (
{
name = bottom;
pos = (215,0);
},
{
name = top;
pos = (215,775);
}
);
background = {
hints = (
{
name = _corner.ROUND;
scale = (1.08,1.08);
type = Corner;
},
{
name = _corner.ROUND;
scale = (1.08,1.08);
type = Corner;
},
{
name = _corner.ROUND;
scale = (1.08,1.08);
type = Corner;
},
{
name = _corner.ROUND;
scale = (0.7,0.7);
type = Corner;
},
{
name = _corner.ROUND;
scale = (0.7,0.7);
type = Corner;
},
{
name = _corner.ROUND;
scale = (1.08,1.08);
type = Corner;
},
{
name = _corner.ROUND;
options = 2;
scale = (-0.7,0.7);
type = Corner;
},
{
name = _corner.ROUND;
options = 2;
scale = (-0.7,0.7);
type = Corner;
}
);
shapes = (
{
closed = 1;
nodes = (
(58,0,l),
(118,0,l),
(118,650,l),
(58,650,l)
);
},
{
closed = 1;
nodes = (
(58,190,l),
(118,190,l),
(383,500,l),
(323,500,l)
);
},
{
closed = 1;
nodes = (
(140,286,l),
(323,0,l),
(383,0,l),
(200,286,l)
);
}
);
};
backgroundImage = {
crop = (79.531,2.157,40.109,80.843);
imagePath = "../png/hijklmno.png";
locked = 1;
pos = (-778,-172);
scale = (10.1972,10.1972);
};
layerId = m002;
shapes = (
{
closed = 1;
nodes = (
(118,123,l),
(383,433,l),
(323,433,l),
(58,123,l)
);
},
{
closed = 1;
nodes = (
(383,0,l),
(200,219,l),
(140,219,l),
(323,0,l)
);
},
{
closed = 1;
nodes = (
(118,0,l),
(118,650,l),
(58,650,l),
(58,0,l)
);
}
);
width = 427;
}
);
metricLeft = "=h";
metricRight = "=h*.75";
unicode = 107;
},
{
glyphname = l;
kernLeft = h;
kernRight = l;
lastChange = "2025-09-26 20:24:40 +0000";
layers = (
{
anchors = (
{
name = bottom;
pos = (95,0);
},
{
name = center;
pos = (95,250);
},
{
name = top;
pos = (95,775);
},
{
name = topright;
pos = (170,775);
}
);
layerId = m01;
shapes = (
{
closed = 1;
nodes = (
(165,650,l),
(25,650,l),
(25,0,l),
(165,0,l)
);
}
);
width = 190;
},
{
anchors = (
{
name = bottom;
pos = (88,0);
},
{
name = center;
pos = (88,250);
},
{
name = top;
pos = (88,775);
},
{
name = topright;
pos = (163,775);
}
);
backgroundImage = {
crop = (112.874,2.157,18.632,80.843);
imagePath = "../png/hijklmno.png";
locked = 1;
pos = (-1158,-172);
scale = (10.1972,10.1972);
};
layerId = m002;
shapes = (
{
closed = 1;
nodes = (
(118,650,l),
(58,650,l),
(58,0,l),
(118,0,l)
);
}
);
width = 176;
}
);
metricLeft = "=h";
metricRight = "=h";
unicode = 108;
},
{
glyphname = m;
kernLeft = n;
kernRight = n;
lastChange = "2025-09-26 20:24:40 +0000";
layers = (
{
anchors = (
{
name = bottom;
pos = (319,0);
},
{
name = top;
pos = (319,500);
}
);
background = {
hints = (
{
name = _corner.ROUND;
type = Corner;
},
{
name = _corner.ROUND;
options = 2;
scale = (-0.3,0.3);
type = Corner;
},
{
name = _corner.ROUND;
options = 2;
scale = (-0.3,0.3);
type = Corner;
},
{
name = _corner.ROUND;
type = Corner;
},
{
name = _corner.ROUND;
options = 2;
scale = (-0.3,0.3);
type = Corner;
},
{
name = _corner.ROUND;
options = 2;
scale = (-0.3,0.3);
type = Corner;
},
{
name = _corner.ROUND;
options = 2;
scale = (-0.3,0.3);
type = Corner;
},
{
name = _corner.ROUND;
options = 2;
scale = (-0.3,0.3);
type = Corner;
},
{
name = _corner.ROUND;
type = Corner;
},
{
name = _corner.ROUND;
scale = (0.3,0.3);
type = Corner;
},
{
name = _corner.ROUND;
options = 2;
scale = (-0.3,0.3);
type = Corner;
},
{
name = _corner.ROUND;
options = 2;
scale = (-0.3,0.3);
type = Corner;
},
{
name = _corner.ROUND;
options = 2;
scale = (-0.3,0.3);
type = Corner;
},
{
name = _corner.ROUND;
type = Corner;
},
{
name = _corner.ROUND;
scale = (0.3,0.3);
type = Corner;
},
{
name = _corner.ROUND;
options = 2;
scale = (-0.3,0.3);
type = Corner;
},
{
name = _segment.CUT;
options = 1;
scale = (-1,1);
type = Segment;
},
{
name = _corner.ROUND;
type = Corner;
},
{
name = _corner.ROUND;
options = 2;
scale = (-0.3,0.3);
type = Corner;
},
{
name = _corner.ROUND;
options = 2;
scale = (-0.3,0.3);
type = Corner;
},
{
name = _segment.CUT;
options = 1;
scale = (-1,1);
type = Segment;
},
{
name = _corner.ROUND;
type = Corner;
},
{
name = _corner.ROUND;
options = 2;
scale = (-0.3,0.3);
type = Corner;
},
{
name = _corner.ROUND;
options = 2;
scale = (-0.3,0.3);
type = Corner;
},
{
name = _corner.ROUND;
type = Corner;
},
{
name = _corner.ROUND;
options = 2;
scale = (-0.3,0.3);
type = Corner;
},
{
name = _corner.ROUND;
options = 2;
scale = (-0.3,0.3);
type = Corner;
},
{
name = _corner.ROUND;
options = 2;
scale = (-0.3,0.3);
type = Corner;
},
{
name = _corner.ROUND;
options = 2;
scale = (-0.3,0.3);
type = Corner;
},
{
name = _corner.ROUND;
type = Corner;
},
{
name = _segment.CUT;
options = 1;
scale = (-1,1);
type = Segment;
},
{
name = _corner.ROUND;
type = Corner;
},
{
name = _corner.ROUND;
options = 2;
scale = (-0.3,0.3);
type = Corner;
},
{
name = _corner.ROUND;
options = 2;
scale = (-0.3,0.3);
type = Corner;
},
{
name = _corner.ROUND;
options = 2;
scale = (-0.3,0.3);
type = Corner;
},
{
name = _corner.ROUND;
options = 2;
scale = (-0.3,0.3);
type = Corner;
},
{
name = _corner.ROUND;
type = Corner;
},
{
name = _corner.ROUND;
options = 2;
scale = (-0.3,0.3);
type = Corner;
},
{
name = _corner.ROUND;
options = 2;
scale = (-0.3,0.3);
type = Corner;
},
{
name = _corner.ROUND;
type = Corner;
},
{
name = _segment.CUT;
options = 1;
scale = (-1,1);
type = Segment;
},
{
name = _corner.ROUND;
scale = (0.3,0.3);
type = Corner;
},
{
name = _corner.ROUND;
scale = (0.3,0.3);
type = Corner;
},
{
name = _corner.ROUND;
type = Corner;
},
{
name = _corner.ROUND;
options = 2;
scale = (-0.3,0.3);
type = Corner;
},
{
name = _corner.ROUND;
options = 2;
scale = (-0.3,0.3);
type = Corner;
},
{
name = _corner.ROUND;
type = Corner;
},
{
name = _segment.CUT;
options = 1;
scale = (-1,1);
type = Segment;
},
{
name = _corner.ROUND;
scale = (0.3,0.3);
type = Corner;
},
{
name = _corner.ROUND;
scale = (0.3,0.3);
type = Corner;
},
{
name = _corner.ROUND;
type = Corner;
},
{
name = _corner.ROUND;
options = 2;
scale = (-0.3,0.3);
type = Corner;
},
{
name = _corner.ROUND;
options = 2;
scale = (-0.3,0.3);
type = Corner;
},
{
name = _corner.ROUND;
type = Corner;
},
{
name = _segment.CUT;
options = 1;
scale = (-1,1);
type = Segment;
},
{
name = _corner.ROUND;
scale = (0.3,0.3);
type = Corner;
},
{
name = _corner.ROUND;
scale = (0.3,0.3);
type = Corner;
},
{
name = _corner.ROUND;
type = Corner;
},
{
name = _corner.ROUND;
scale = (0.3,0.3);
type = Corner;
},
{
name = _corner.ROUND;
scale = (0.3,0.3);
type = Corner;
},
{
name = _corner.ROUND;
type = Corner;
},
{
name = _segment.CUT;
options = 1;
scale = (-1,1);
type = Segment;
},
{
name = _corner.ROUND;
type = Corner;
},
{
name = _corner.ROUND;
options = 2;
scale = (-0.3,0.3);
type = Corner;
},
{
name = _corner.ROUND;
options = 2;
scale = (-0.3,0.3);
type = Corner;
},
{
name = _corner.ROUND;
origin = (0,1);
scale = (0.3,0.3);
type = Corner;
},
{
name = _corner.ROUND;
origin = (0,2);
scale = (0.3,0.3);
type = Corner;
},
{
name = _corner.ROUND;
origin = (0,5);
type = Corner;
},
{
name = _segment.CUT;
options = 1;
origin = (0,7);
scale = (-1,1);
type = Segment;
},
{
name = _corner.ROUND;
origin = (1,1);
type = Corner;
},
{
name = _corner.ROUND;
options = 2;
origin = (1,8);
scale = (-0.3,0.3);
type = Corner;
},
{
name = _corner.ROUND;
options = 2;
origin = (1,9);
scale = (-0.3,0.3);
type = Corner;
}
);
shapes = (
{
closed = 1;
nodes = (
(165,0,l),
(165,400,l),
(250,400,l),
(250,0,l),
(390,0,l),
(390,500,l),
(250,500,l),
(165,500,l),
(25,500,l),
(25,0,l)
);
},
{
closed = 1;
nodes = (
(615,0,l),
(615,500,l),
(475,500,ls),
(420,500,o),
(378,473,o),
(353,441,c),
(353,353,l),
(390,353,l),
(390,400,l),
(475,400,l),
(475,0,l)
);
}
);
};
hints = (
{
name = _corner.ROUND;
origin = (1,1);
type = Corner;
},
{
name = _corner.ROUND;
options = 2;
origin = (1,8);
scale = (-0.3,0.3);
type = Corner;
},
{
name = _corner.ROUND;
options = 2;
origin = (1,9);
scale = (-0.3,0.3);
type = Corner;
},
{
name = _corner.ROUND;
origin = (0,1);
scale = (0.3,0.3);
type = Corner;
},
{
name = _corner.ROUND;
origin = (0,2);
scale = (0.3,0.3);
type = Corner;
},
{
name = _corner.ROUND;
origin = (0,5);
type = Corner;
},
{
name = _segment.CUT;
options = 1;
origin = (0,7);
scale = (-1,1);
type = Segment;
}
);
layerId = m01;
shapes = (
{
closed = 1;
nodes = (
(165,0,l),
(165,400,l),
(250,400,l),
(250,0,l),
(390,0,l),
(390,500,l),
(250,500,l),
(165,500,l),
(25,500,l),
(25,0,l)
);
},
{
closed = 1;
nodes = (
(615,0,l),
(615,500,l),
(475,500,ls),
(420,500,o),
(378,473,o),
(353,441,c),
(353,353,l),
(390,353,l),
(390,400,l),
(475,400,l),
(475,0,l)
);
}
);
width = 637;
},
{
anchors = (
{
name = bottom;
pos = (350,0);
},
{
name = top;
pos = (350,450);
}
);
backgroundImage = {
crop = (133.86,2.157,62.468,80.843);
imagePath = "../png/hijklmno.png";
locked = 1;
pos = (-1332,-172);
scale = (10.1972,10.1972);
};
hints = (
{
name = _corner.ROUND;
origin = (1,1);
type = Corner;
},
{
name = _corner.ROUND;
options = 2;
origin = (1,8);
scale = (-0.5,0.8);
type = Corner;
},
{
name = _corner.ROUND;
options = 2;
origin = (1,9);
scale = (-0.7,0.7);
type = Corner;
},
{
name = _corner.ROUND;
origin = (0,1);
scale = (0.8,0.5);
type = Corner;
},
{
name = _corner.ROUND;
origin = (0,2);
scale = (0.7,0.7);
type = Corner;
},
{
name = _corner.ROUND;
origin = (0,5);
type = Corner;
},
{
name = _segment.CUT;
options = 1;
origin = (0,7);
scale = (-1,1);
type = Segment;
}
);
layerId = m002;
shapes = (
{
closed = 1;
nodes = (
(118,0,l),
(118,383,l),
(323,383,l),
(323,0,l),
(383,0,l),
(383,433,l),
(243,433,l),
(118,433,l),
(58,433,l),
(58,0,l)
);
},
{
closed = 1;
nodes = (
(648,0,l),
(648,433,l),
(508,433,ls),
(377,433,o),
(346,357,o),
(346,344,c),
(346,296,l),
(383,296,l),
(383,383,l),
(588,383,l),
(588,0,l)
);
}
);
width = 698;
}
);
metricLeft = "=h";
metricRight = "=o";
unicode = 109;
},
{
glyphname = n;
kernLeft = n;
kernRight = n;
lastChange = "2025-09-26 20:24:40 +0000";
layers = (
{
anchors = (
{
name = bottom;
pos = (206,0);
},
{
name = top;
pos = (206,500);
}
);
background = {
hints = (
{
name = _corner.ROUND;
type = Corner;
},
{
name = _corner.ROUND;
options = 2;
scale = (-0.3,0.3);
type = Corner;
},
{
name = _corner.ROUND;
options = 2;
scale = (-0.3,0.3);
type = Corner;
},
{
name = _corner.ROUND;
type = Corner;
},
{
name = _corner.ROUND;
options = 2;
scale = (-0.3,0.3);
type = Corner;
},
{
name = _corner.ROUND;
options = 2;
scale = (-0.3,0.3);
type = Corner;
},
{
name = _corner.ROUND;
type = Corner;
},
{
name = _corner.ROUND;
options = 2;
scale = (-0.3,0.3);
type = Corner;
},
{
name = _corner.ROUND;
options = 2;
scale = (-0.3,0.3);
type = Corner;
},
{
name = _corner.ROUND;
type = Corner;
},
{
name = _corner.ROUND;
options = 2;
scale = (-0.3,0.3);
type = Corner;
},
{
name = _corner.ROUND;
options = 2;
scale = (-0.3,0.3);
type = Corner;
},
{
name = _corner.ROUND;
type = Corner;
},
{
name = _corner.ROUND;
options = 2;
scale = (-0.3,0.3);
type = Corner;
},
{
name = _corner.ROUND;
options = 2;
scale = (-0.3,0.3);
type = Corner;
},
{
name = _segment.CUT;
options = 1;
scale = (-1,1);
type = Segment;
},
{
name = _corner.ROUND;
scale = (0.3,0.3);
type = Corner;
},
{
name = _corner.ROUND;
scale = (0.3,0.3);
type = Corner;
},
{
name = _corner.ROUND;
type = Corner;
},
{
name = _segment.CUT;
options = 1;
scale = (-1,1);
type = Segment;
},
{
name = _corner.ROUND;
scale = (0.3,0.3);
type = Corner;
},
{
name = _corner.ROUND;
scale = (0.3,0.3);
type = Corner;
},
{
name = _corner.ROUND;
type = Corner;
},
{
name = _corner.ROUND;
origin = (0,1);
scale = (0.3,0.3);
type = Corner;
},
{
name = _corner.ROUND;
origin = (0,2);
scale = (0.3,0.3);
type = Corner;
},
{
name = _corner.ROUND;
origin = (0,5);
type = Corner;
},
{
name = _segment.CUT;
options = 1;
origin = (0,7);
scale = (-1,1);
type = Segment;
}
);
shapes = (
{
closed = 1;
nodes = (
(165,0,l),
(165,425,l),
(250,425,l),
(250,0,l),
(390,0,l),
(390,525,l),
(250,525,l),
(165,525,l),
(25,525,l),
(25,0,l)
);
}
);
};
hints = (
{
name = _segment.CUT;
options = 1;
origin = (0,7);
scale = (-1,1);
type = Segment;
},
{
name = _corner.ROUND;
origin = (0,1);
scale = (0.3,0.3);
type = Corner;
},
{
name = _corner.ROUND;
origin = (0,2);
scale = (0.3,0.3);
type = Corner;
},
{
name = _corner.ROUND;
origin = (0,5);
type = Corner;
}
);
layerId = m01;
shapes = (
{
closed = 1;
nodes = (
(165,0,l),
(165,400,l),
(250,400,l),
(250,0,l),
(390,0,l),
(390,500,l),
(250,500,l),
(165,500,l),
(25,500,l),
(25,0,l)
);
}
);
width = 412;
},
{
anchors = (
{
name = bottom;
pos = (238,0);
},
{
name = top;
pos = (238,450);
}
);
background = {
hints = (
{
name = _corner.ROUND;
type = Corner;
},
{
name = _corner.ROUND;
options = 2;
scale = (-0.3,0.3);
type = Corner;
},
{
name = _corner.ROUND;
options = 2;
scale = (-0.3,0.3);
type = Corner;
},
{
name = _corner.ROUND;
type = Corner;
},
{
name = _corner.ROUND;
options = 2;
scale = (-0.3,0.3);
type = Corner;
},
{
name = _corner.ROUND;
options = 2;
scale = (-0.3,0.3);
type = Corner;
},
{
name = _corner.ROUND;
type = Corner;
},
{
name = _corner.ROUND;
options = 2;
scale = (-0.3,0.3);
type = Corner;
},
{
name = _corner.ROUND;
options = 2;
scale = (-0.3,0.3);
type = Corner;
},
{
name = _corner.ROUND;
type = Corner;
},
{
name = _corner.ROUND;
options = 2;
scale = (-0.3,0.3);
type = Corner;
},
{
name = _corner.ROUND;
options = 2;
scale = (-0.3,0.3);
type = Corner;
},
{
name = _corner.ROUND;
type = Corner;
},
{
name = _corner.ROUND;
options = 2;
scale = (-0.3,0.3);
type = Corner;
},
{
name = _corner.ROUND;
options = 2;
scale = (-0.3,0.3);
type = Corner;
},
{
name = _segment.CUT;
options = 1;
scale = (-1,1);
type = Segment;
},
{
name = _corner.ROUND;
scale = (0.3,0.3);
type = Corner;
},
{
name = _corner.ROUND;
scale = (0.3,0.3);
type = Corner;
},
{
name = _corner.ROUND;
type = Corner;
},
{
name = _segment.CUT;
options = 1;
scale = (-1,1);
type = Segment;
},
{
name = _corner.ROUND;
scale = (0.3,0.3);
type = Corner;
},
{
name = _corner.ROUND;
scale = (0.3,0.3);
type = Corner;
},
{
name = _corner.ROUND;
type = Corner;
},
{
name = _corner.ROUND;
scale = (0.3,0.3);
type = Corner;
},
{
name = _corner.ROUND;
scale = (0.3,0.3);
type = Corner;
},
{
name = _corner.ROUND;
type = Corner;
},
{
name = _segment.CUT;
options = 1;
scale = (-1,1);
type = Segment;
},
{
name = _corner.ROUND;
origin = (0,1);
scale = (0.8,0.5);
type = Corner;
},
{
name = _corner.ROUND;
origin = (0,2);
scale = (0.7,0.7);
type = Corner;
},
{
name = _corner.ROUND;
origin = (0,5);
type = Corner;
},
{
name = _segment.CUT;
options = 1;
origin = (0,7);
scale = (-1,1);
type = Segment;
}
);
shapes = (
{
closed = 1;
nodes = (
(118,0,l),
(118,450,l),
(363,450,l),
(363,0,l),
(423,0,l),
(423,500,l),
(283,500,l),
(118,500,l),
(58,500,l),
(58,0,l)
);
}
);
};
backgroundImage = {
crop = (197.504,2.157,40.403,80.843);
imagePath = "../png/hijklmno.png";
locked = 1;
pos = (-1981,-172);
scale = (10.1972,10.1972);
};
hints = (
{
name = _segment.CUT;
options = 1;
origin = (0,7);
scale = (-1,1);
type = Segment;
},
{
name = _corner.ROUND;
origin = (0,1);
scale = (0.8,0.5);
type = Corner;
},
{
name = _corner.ROUND;
origin = (0,2);
scale = (0.7,0.7);
type = Corner;
},
{
name = _corner.ROUND;
origin = (0,5);
scale = (1.08,1.08);
type = Corner;
}
);
layerId = m002;
shapes = (
{
closed = 1;
nodes = (
(118,0,l),
(118,383,l),
(363,383,l),
(363,0,l),
(423,0,l),
(423,433,l),
(263,433,l),
(118,433,l),
(58,433,l),
(58,0,l)
);
}
);
width = 473;
}
);
metricLeft = "=h";
metricRight = "=o";
unicode = 110;
},
{
glyphname = o;
kernLeft = o;
kernRight = o;
lastChange = "2025-09-26 21:08:56 +0000";
layers = (
{
anchors = (
{
name = bottom;
pos = (205,0);
},
{
name = center;
pos = (205,250);
},
{
name = ogonek;
pos = (368,10);
},
{
name = top;
pos = (205,500);
},
{
name = topright;
pos = (389,500);
}
);
hints = (
{
name = _corner.ROUND;
origin = (0,3);
type = Corner;
},
{
name = _corner.ROUND;
options = 2;
origin = (1,2);
scale = (-0.3,0.3);
type = Corner;
},
{
name = _corner.ROUND;
options = 2;
origin = (1,3);
scale = (-0.3,0.3);
type = Corner;
},
{
name = _corner.ROUND;
origin = (0,2);
type = Corner;
},
{
name = _corner.ROUND;
origin = (0,0);
type = Corner;
},
{
name = _corner.ROUND;
origin = (0,1);
type = Corner;
},
{
name = _corner.ROUND;
origin = (1,1);
scale = (0.3,0.3);
type = Corner;
},
{
name = _corner.ROUND;
origin = (1,0);
scale = (0.3,0.3);
type = Corner;
}
);
layerId = m01;
shapes = (
{
closed = 1;
nodes = (
(22,500,l),
(22,0,l),
(387,0,l),
(387,500,l)
);
},
{
closed = 1;
nodes = (
(247,100,l),
(162,100,l),
(162,400,l),
(247,400,l)
);
}
);
width = 409;
},
{
anchors = (
{
name = bottom;
pos = (233,0);
},
{
name = center;
pos = (233,225);
},
{
name = ogonek;
pos = (414,10);
},
{
name = top;
pos = (233,450);
},
{
name = topright;
pos = (439,450);
}
);
backgroundImage = {
crop = (237.123,2.157,37.877,80.843);
imagePath = "../png/hijklmno.png";
locked = 1;
pos = (-2390,-172);
scale = (10.1972,10.1972);
};
hints = (
{
name = _corner.ROUND;
origin = (0,3);
scale = (1.08,1);
type = Corner;
},
{
name = _corner.ROUND;
options = 2;
origin = (1,2);
scale = (-0.7,0.7);
type = Corner;
},
{
name = _corner.ROUND;
options = 2;
origin = (1,3);
scale = (-0.7,0.7);
type = Corner;
},
{
name = _corner.ROUND;
origin = (0,2);
scale = (1.08,1.08);
type = Corner;
},
{
name = _corner.ROUND;
origin = (0,0);
scale = (1.08,1.08);
type = Corner;
},
{
name = _corner.ROUND;
origin = (0,1);
scale = (1.08,1.08);
type = Corner;
},
{
name = _corner.ROUND;
origin = (1,1);
scale = (0.7,0.7);
type = Corner;
},
{
name = _corner.ROUND;
origin = (1,0);
scale = (0.7,0.7);
type = Corner;
}
);
layerId = m002;
shapes = (
{
closed = 1;
nodes = (
(50,433,l),
(50,0,l),
(415,0,l),
(415,433,l)
);
},
{
closed = 1;
nodes = (
(355,50,l),
(110,50,l),
(110,383,l),
(355,383,l)
);
}
);
width = 465;
}
);
unicode = 111;
},
{
glyphname = oe;
kernLeft = o;
kernRight = e;
lastChange = "2025-09-26 20:33:54 +0000";
layers = (
{
anchors = (
{
name = bottom;
pos = (317,0);
},
{
name = top;
pos = (317,500);
}
);
background = {
hints = (
{
name = _corner.ROUND;
origin = (0,0);
type = Corner;
},
{
name = _corner.ROUND;
origin = (0,1);
type = Corner;
},
{
name = _corner.ROUND;
origin = (0,2);
type = Corner;
},
{
name = _corner.ROUND;
origin = (0,3);
type = Corner;
},
{
name = _corner.ROUND;
origin = (1,0);
scale = (0.3,0.3);
type = Corner;
},
{
name = _corner.ROUND;
origin = (1,1);
scale = (0.3,0.3);
type = Corner;
},
{
name = _corner.ROUND;
options = 2;
origin = (1,2);
scale = (-0.3,0.3);
type = Corner;
},
{
name = _corner.ROUND;
options = 2;
origin = (1,3);
scale = (-0.3,0.3);
type = Corner;
},
{
name = _corner.ROUND;
origin = (2,0);
scale = (1.08,1.08);
type = Corner;
},
{
name = _corner.ROUND;
origin = (2,1);
scale = (1.08,1.08);
type = Corner;
},
{
name = _corner.ROUND;
origin = (2,2);
scale = (1.08,1.08);
type = Corner;
},
{
name = _corner.ROUND;
origin = (2,5);
scale = (0.3,0.3);
type = Corner;
},
{
name = _corner.ROUND;
origin = (2,6);
scale = (0.3,0.3);
type = Corner;
},
{
name = _corner.ROUND;
origin = (2,9);
scale = (1.08,1.08);
type = Corner;
},
{
name = _corner.ROUND;
options = 2;
origin = (3,2);
scale = (-0.3,0.3);
type = Corner;
},
{
name = _corner.ROUND;
options = 2;
origin = (3,3);
scale = (-0.3,0.3);
type = Corner;
}
);
shapes = (
{
closed = 1;
nodes = (
(22,500,l),
(22,0,l),
(387,0,l),
(387,500,l)
);
},
{
closed = 1;
nodes = (
(247,100,l),
(162,100,l),
(162,400,l),
(247,400,l)
);
},
{
closed = 1;
nodes = (
(247,500,l),
(247,0,l),
(612,0,l),
(612,159,l),
(472,159,l),
(472,100,l),
(387,100,l),
(387,216,l),
(612,216,l),
(612,500,l)
);
},
{
closed = 1;
nodes = (
(472,296,l),
(387,296,l),
(387,400,l),
(472,400,l)
);
}
);
};
hints = (
{
name = _corner.ROUND;
type = Corner;
},
{
name = _corner.ROUND;
options = 2;
scale = (-0.3,0.3);
type = Corner;
},
{
name = _corner.ROUND;
options = 2;
scale = (-0.3,0.3);
type = Corner;
},
{
name = _corner.ROUND;
type = Corner;
},
{
name = _corner.ROUND;
type = Corner;
},
{
name = _corner.ROUND;
type = Corner;
},
{
name = _corner.ROUND;
scale = (0.3,0.3);
type = Corner;
},
{
name = _corner.ROUND;
scale = (0.3,0.3);
type = Corner;
},
{
name = _corner.ROUND;
origin = (0,3);
type = Corner;
},
{
name = _corner.ROUND;
options = 2;
origin = (1,2);
scale = (-0.3,0.3);
type = Corner;
},
{
name = _corner.ROUND;
options = 2;
origin = (1,3);
scale = (-0.3,0.3);
type = Corner;
},
{
name = _corner.ROUND;
origin = (0,2);
type = Corner;
},
{
name = _corner.ROUND;
origin = (0,0);
type = Corner;
},
{
name = _corner.ROUND;
origin = (0,1);
type = Corner;
},
{
name = _corner.ROUND;
origin = (1,1);
scale = (0.3,0.3);
type = Corner;
},
{
name = _corner.ROUND;
origin = (1,0);
scale = (0.3,0.3);
type = Corner;
}
);
layerId = m01;
shapes = (
{
closed = 1;
nodes = (
(22,500,l),
(22,0,l),
(387,0,l),
(387,500,l)
);
},
{
closed = 1;
nodes = (
(247,100,l),
(162,100,l),
(162,400,l),
(247,400,l)
);
},
{
pos = (225,0);
ref = e;
}
);
width = 634;
},
{
anchors = (
{
name = bottom;
pos = (385,0);
},
{
name = top;
pos = (385,450);
}
);
background = {
hints = (
{
name = _corner.ROUND;
origin = (0,0);
type = Corner;
},
{
name = _corner.ROUND;
origin = (0,1);
type = Corner;
},
{
name = _corner.ROUND;
origin = (0,2);
type = Corner;
},
{
name = _corner.ROUND;
origin = (0,3);
type = Corner;
},
{
name = _corner.ROUND;
origin = (1,0);
scale = (0.5,0.5);
type = Corner;
},
{
name = _corner.ROUND;
origin = (1,1);
scale = (0.5,0.5);
type = Corner;
},
{
name = _corner.ROUND;
options = 2;
origin = (1,2);
scale = (-0.5,0.5);
type = Corner;
},
{
name = _corner.ROUND;
options = 2;
origin = (1,3);
scale = (-0.5,0.5);
type = Corner;
},
{
name = _corner.ROUND;
origin = (2,0);
scale = (1.08,1.08);
type = Corner;
},
{
name = _corner.ROUND;
origin = (2,1);
scale = (1.08,1.08);
type = Corner;
},
{
name = _corner.ROUND;
origin = (2,2);
scale = (1.08,1.08);
type = Corner;
},
{
name = _corner.ROUND;
origin = (2,5);
scale = (0.7,0.7);
type = Corner;
},
{
name = _corner.ROUND;
origin = (2,6);
scale = (0.7,0.7);
type = Corner;
},
{
name = _corner.ROUND;
origin = (2,9);
scale = (1.08,1.08);
type = Corner;
},
{
name = _corner.ROUND;
options = 2;
origin = (3,2);
scale = (-0.7,0.7);
type = Corner;
},
{
name = _corner.ROUND;
options = 2;
origin = (3,3);
scale = (-0.7,0.7);
type = Corner;
}
);
shapes = (
{
closed = 1;
nodes = (
(50,500,l),
(50,0,l),
(415,0,l),
(415,500,l)
);
},
{
closed = 1;
nodes = (
(355,50,l),
(110,50,l),
(110,450,l),
(355,450,l)
);
},
{
closed = 1;
nodes = (
(356,500,l),
(356,0,l),
(721,0,l),
(721,159,l),
(661,159,l),
(661,50,l),
(416,50,l),
(416,236,l),
(721,236,l),
(721,500,l)
);
},
{
closed = 1;
nodes = (
(661,286,l),
(416,286,l),
(416,450,l),
(661,450,l)
);
}
);
};
hints = (
{
name = _corner.ROUND;
type = Corner;
},
{
name = _corner.ROUND;
options = 2;
scale = (-0.3,0.3);
type = Corner;
},
{
name = _corner.ROUND;
options = 2;
scale = (-0.3,0.3);
type = Corner;
},
{
name = _corner.ROUND;
type = Corner;
},
{
name = _corner.ROUND;
type = Corner;
},
{
name = _corner.ROUND;
type = Corner;
},
{
name = _corner.ROUND;
scale = (0.3,0.3);
type = Corner;
},
{
name = _corner.ROUND;
scale = (0.3,0.3);
type = Corner;
},
{
name = _corner.ROUND;
origin = (0,3);
type = Corner;
},
{
name = _corner.ROUND;
options = 2;
origin = (1,2);
scale = (-0.7,0.7);
type = Corner;
},
{
name = _corner.ROUND;
options = 2;
origin = (1,3);
scale = (-0.7,0.7);
type = Corner;
},
{
name = _corner.ROUND;
origin = (0,2);
type = Corner;
},
{
name = _corner.ROUND;
origin = (0,0);
type = Corner;
},
{
name = _corner.ROUND;
origin = (0,1);
type = Corner;
},
{
name = _corner.ROUND;
origin = (1,1);
scale = (0.7,0.7);
type = Corner;
},
{
name = _corner.ROUND;
origin = (1,0);
scale = (0.7,0.7);
type = Corner;
}
);
layerId = m002;
shapes = (
{
closed = 1;
nodes = (
(50,450,l),
(50,0,l),
(415,0,l),
(415,450,l)
);
},
{
closed = 1;
nodes = (
(355,50,l),
(110,50,l),
(110,400,l),
(355,400,l)
);
},
{
pos = (311,0);
ref = e;
}
);
width = 776;
}
);
metricLeft = "=o";
metricRight = "=o";
unicode = 339;
},
{
glyphname = p;
kernLeft = p;
kernRight = o;
lastChange = "2025-09-26 20:24:40 +0000";
layers = (
{
anchors = (
{
name = bottom;
pos = (206,0);
},
{
name = top;
pos = (206,500);
}
);
hints = (
{
name = _segment.CUT;
origin = (0,3);
type = Segment;
},
{
name = _corner.ROUND;
origin = (0,4);
type = Corner;
},
{
name = _corner.ROUND;
origin = (0,5);
type = Corner;
},
{
name = _segment.CUT;
options = 1;
origin = (0,7);
scale = (-1,1);
type = Segment;
},
{
name = _corner.ROUND;
options = 2;
origin = (1,0);
scale = (-0.3,0.3);
type = Corner;
},
{
name = _corner.ROUND;
origin = (1,1);
scale = (0.3,0.3);
type = Corner;
},
{
name = _corner.ROUND;
origin = (1,2);
scale = (0.3,0.3);
type = Corner;
},
{
name = _corner.ROUND;
options = 2;
origin = (1,3);
scale = (-0.3,0.3);
type = Corner;
}
);
layerId = m01;
shapes = (
{
closed = 1;
nodes = (
(25,-150,l),
(165,-150,l),
(165,0,l),
(250,0,l),
(390,0,l),
(390,500,l),
(250,500,l),
(165,500,l),
(25,500,l)
);
},
{
closed = 1;
nodes = (
(250,400,l),
(250,100,l),
(165,100,l),
(165,400,l)
);
}
);
width = 412;
},
{
anchors = (
{
name = bottom;
pos = (238,0);
},
{
name = top;
pos = (238,450);
}
);
backgroundImage = {
crop = (0,1.959,39.479,81.041);
imagePath = "../png/pqrstuv.png";
locked = 1;
pos = (42,-170);
scale = (10.208,10.208);
};
hints = (
{
name = _segment.CUT;
origin = (0,3);
type = Segment;
},
{
name = _corner.ROUND;
origin = (0,4);
scale = (1.08,1.08);
type = Corner;
},
{
name = _corner.ROUND;
origin = (0,5);
scale = (1.08,1.08);
type = Corner;
},
{
name = _segment.CUT;
options = 1;
origin = (0,7);
scale = (-1,1);
type = Segment;
},
{
name = _corner.ROUND;
options = 2;
origin = (1,0);
scale = (-0.7,0.7);
type = Corner;
},
{
name = _corner.ROUND;
origin = (1,1);
scale = (0.7,0.7);
type = Corner;
},
{
name = _corner.ROUND;
origin = (1,2);
scale = (0.5,0.8);
type = Corner;
},
{
name = _corner.ROUND;
options = 2;
origin = (1,3);
scale = (-0.5,0.8);
type = Corner;
}
);
layerId = m002;
shapes = (
{
closed = 1;
nodes = (
(58,-150,l),
(118,-150,l),
(118,0,l),
(263,0,l),
(423,0,l),
(423,433,l),
(263,433,l),
(118,433,l),
(58,433,l)
);
},
{
closed = 1;
nodes = (
(363,383,l),
(363,50,l),
(118,50,l),
(118,383,l)
);
}
);
width = 473;
}
);
metricLeft = "=h";
metricRight = "=o";
unicode = 112;
},
{
glyphname = thorn;
kernLeft = h;
kernRight = o;
lastChange = "2025-09-26 14:13:08 +0000";
layers = (
{
anchors = (
{
name = bottom;
pos = (206,0);
},
{
name = top;
pos = (206,775);
}
);
hints = (
{
name = _corner.BASE;
type = Corner;
},
{
name = _corner.BASE;
scale = (1.08,1.08);
type = Corner;
},
{
name = _corner.BASE;
scale = (1.08,1.08);
type = Corner;
},
{
name = _corner.BASE;
type = Corner;
},
{
name = _corner.BASE;
scale = (0.3,0.3);
type = Corner;
},
{
name = _corner.BASE;
options = 2;
scale = (-0.3,0.3);
type = Corner;
},
{
name = _corner.BASE;
scale = (0.3,0.3);
type = Corner;
},
{
name = _corner.BASE;
options = 2;
scale = (-0.3,0.3);
type = Corner;
},
{
name = _corner.ROUND;
type = Corner;
},
{
name = _corner.ROUND;
type = Corner;
},
{
name = _corner.ROUND;
type = Corner;
},
{
name = _corner.ROUND;
type = Corner;
},
{
name = _corner.ROUND;
scale = (0.3,0.3);
type = Corner;
},
{
name = _corner.ROUND;
scale = (0.3,0.3);
type = Corner;
},
{
name = _corner.ROUND;
options = 2;
scale = (-0.3,0.3);
type = Corner;
},
{
name = _corner.ROUND;
options = 2;
scale = (-0.3,0.3);
type = Corner;
},
{
name = _corner.ROUND;
type = Corner;
},
{
name = _corner.ROUND;
type = Corner;
},
{
name = _corner.ROUND;
type = Corner;
},
{
name = _corner.ROUND;
type = Corner;
},
{
name = _corner.ROUND;
options = 2;
scale = (-0.3,0.3);
type = Corner;
},
{
name = _corner.ROUND;
scale = (0.3,0.3);
type = Corner;
},
{
name = _corner.ROUND;
scale = (0.3,0.3);
type = Corner;
},
{
name = _corner.ROUND;
options = 2;
scale = (-0.3,0.3);
type = Corner;
},
{
name = _segment.CUT;
type = Segment;
},
{
name = _corner.ROUND;
type = Corner;
},
{
name = _corner.ROUND;
type = Corner;
},
{
name = _corner.ROUND;
options = 2;
scale = (-0.3,0.3);
type = Corner;
},
{
name = _corner.ROUND;
scale = (0.3,0.3);
type = Corner;
},
{
name = _corner.ROUND;
scale = (0.3,0.3);
type = Corner;
},
{
name = _corner.ROUND;
options = 2;
scale = (-0.3,0.3);
type = Corner;
},
{
name = _segment.CUT;
origin = (0,2);
type = Segment;
},
{
name = _corner.ROUND;
origin = (0,3);
type = Corner;
},
{
name = _corner.ROUND;
origin = (0,4);
type = Corner;
},
{
name = _segment.CUT;
options = 1;
origin = (0,6);
scale = (-1,1);
type = Segment;
},
{
name = _corner.ROUND;
origin = (1,0);
scale = (0.3,0.3);
type = Corner;
},
{
name = _corner.ROUND;
origin = (1,1);
scale = (0.3,0.3);
type = Corner;
},
{
name = _corner.ROUND;
options = 2;
origin = (1,2);
scale = (-0.3,0.3);
type = Corner;
},
{
name = _corner.ROUND;
options = 2;
origin = (1,3);
scale = (-0.3,0.3);
type = Corner;
}
);
layerId = m01;
shapes = (
{
closed = 1;
nodes = (
(165,-150,l),
(165,0,l),
(250,0,l),
(390,0,l),
(390,500,l),
(250,500,l),
(165,500,l),
(165,650,l),
(25,650,l),
(25,-150,l)
);
},
{
closed = 1;
nodes = (
(165,400,l),
(250,400,l),
(250,100,l),
(165,100,l)
);
}
);
width = 412;
},
{
anchors = (
{
name = bottom;
pos = (206,0);
},
{
name = top;
pos = (206,775);
}
);
hints = (
{
name = _corner.BASE;
type = Corner;
},
{
name = _corner.BASE;
scale = (1.08,1.08);
type = Corner;
},
{
name = _corner.BASE;
scale = (1.08,1.08);
type = Corner;
},
{
name = _corner.BASE;
type = Corner;
},
{
name = _corner.BASE;
scale = (0.3,0.3);
type = Corner;
},
{
name = _corner.BASE;
options = 2;
scale = (-0.3,0.3);
type = Corner;
},
{
name = _corner.BASE;
scale = (0.3,0.3);
type = Corner;
},
{
name = _corner.BASE;
options = 2;
scale = (-0.3,0.3);
type = Corner;
},
{
name = _corner.ROUND;
type = Corner;
},
{
name = _corner.ROUND;
type = Corner;
},
{
name = _corner.ROUND;
type = Corner;
},
{
name = _corner.ROUND;
type = Corner;
},
{
name = _corner.ROUND;
scale = (0.3,0.3);
type = Corner;
},
{
name = _corner.ROUND;
scale = (0.3,0.3);
type = Corner;
},
{
name = _corner.ROUND;
options = 2;
scale = (-0.3,0.3);
type = Corner;
},
{
name = _corner.ROUND;
options = 2;
scale = (-0.3,0.3);
type = Corner;
},
{
name = _corner.ROUND;
type = Corner;
},
{
name = _corner.ROUND;
type = Corner;
},
{
name = _corner.ROUND;
type = Corner;
},
{
name = _corner.ROUND;
type = Corner;
},
{
name = _corner.ROUND;
options = 2;
scale = (-0.3,0.3);
type = Corner;
},
{
name = _corner.ROUND;
scale = (0.3,0.3);
type = Corner;
},
{
name = _corner.ROUND;
scale = (0.3,0.3);
type = Corner;
},
{
name = _corner.ROUND;
options = 2;
scale = (-0.3,0.3);
type = Corner;
},
{
name = _segment.CUT;
type = Segment;
},
{
name = _corner.ROUND;
type = Corner;
},
{
name = _corner.ROUND;
type = Corner;
},
{
name = _corner.ROUND;
options = 2;
scale = (-0.3,0.3);
type = Corner;
},
{
name = _corner.ROUND;
scale = (0.3,0.3);
type = Corner;
},
{
name = _corner.ROUND;
scale = (0.3,0.3);
type = Corner;
},
{
name = _corner.ROUND;
options = 2;
scale = (-0.3,0.3);
type = Corner;
},
{
name = _segment.CUT;
origin = (0,2);
type = Segment;
},
{
name = _corner.ROUND;
origin = (0,3);
type = Corner;
},
{
name = _corner.ROUND;
origin = (0,4);
type = Corner;
},
{
name = _segment.CUT;
options = 1;
origin = (0,6);
scale = (-1,1);
type = Segment;
},
{
name = _corner.ROUND;
origin = (1,0);
scale = (0.5,0.5);
type = Corner;
},
{
name = _corner.ROUND;
origin = (1,1);
scale = (0.5,0.5);
type = Corner;
},
{
name = _corner.ROUND;
options = 2;
origin = (1,2);
scale = (-0.5,0.5);
type = Corner;
},
{
name = _corner.ROUND;
options = 2;
origin = (1,3);
scale = (-0.5,0.5);
type = Corner;
}
);
layerId = m002;
shapes = (
{
closed = 1;
nodes = (
(85,-150,l),
(85,0,l),
(170,0,l),
(390,0,l),
(390,450,l),
(170,450,l),
(85,450,l),
(85,650,l),
(25,650,l),
(25,-150,l)
);
},
{
closed = 1;
nodes = (
(85,390,l),
(320,390,l),
(320,60,l),
(85,60,l)
);
}
);
width = 412;
}
);
unicode = 254;
},
{
glyphname = q;
kernLeft = o;
kernRight = q;
lastChange = "2025-09-26 20:24:40 +0000";
layers = (
{
anchors = (
{
name = bottom;
pos = (206,0);
},
{
name = top;
pos = (206,500);
}
);
background = {
hints = (
{
name = _segment.CUT;
type = Segment;
},
{
name = _corner.ROUND;
type = Corner;
},
{
name = _corner.ROUND;
type = Corner;
},
{
name = _segment.CUT;
options = 1;
scale = (-1,1);
type = Segment;
},
{
name = _corner.ROUND;
scale = (0.3,0.3);
type = Corner;
},
{
name = _corner.ROUND;
scale = (0.3,0.3);
type = Corner;
},
{
name = _corner.ROUND;
options = 2;
scale = (-0.3,0.3);
type = Corner;
},
{
name = _corner.ROUND;
options = 2;
scale = (-0.3,0.3);
type = Corner;
},
{
name = _segment.CUT;
origin = (0,1);
type = Segment;
},
{
name = _corner.ROUND;
origin = (0,2);
type = Corner;
},
{
name = _corner.ROUND;
origin = (0,3);
type = Corner;
},
{
name = _segment.CUT;
options = 1;
origin = (0,5);
scale = (-1,1);
type = Segment;
},
{
name = _corner.ROUND;
origin = (1,0);
scale = (0.3,0.3);
type = Corner;
},
{
name = _corner.ROUND;
origin = (1,1);
scale = (0.3,0.3);
type = Corner;
},
{
name = _corner.ROUND;
options = 2;
origin = (1,2);
scale = (-0.3,0.3);
type = Corner;
},
{
name = _corner.ROUND;
options = 2;
origin = (1,3);
scale = (-0.3,0.3);
type = Corner;
}
);
shapes = (
{
closed = 1;
nodes = (
(247,525,l),
(162,525,l),
(22,525,l),
(22,0,l),
(162,0,l),
(247,0,l),
(247,-175,l),
(387,-175,l),
(387,525,l)
);
},
{
closed = 1;
nodes = (
(247,100,l),
(162,100,l),
(162,425,l),
(247,425,l)
);
}
);
};
hints = (
{
name = _segment.CUT;
origin = (0,1);
type = Segment;
},
{
name = _corner.ROUND;
origin = (0,2);
type = Corner;
},
{
name = _corner.ROUND;
origin = (0,3);
type = Corner;
},
{
name = _segment.CUT;
options = 1;
origin = (0,5);
scale = (-1,1);
type = Segment;
},
{
name = _corner.ROUND;
origin = (1,0);
scale = (0.3,0.3);
type = Corner;
},
{
name = _corner.ROUND;
origin = (1,1);
scale = (0.3,0.3);
type = Corner;
},
{
name = _corner.ROUND;
options = 2;
origin = (1,2);
scale = (-0.3,0.3);
type = Corner;
},
{
name = _corner.ROUND;
options = 2;
origin = (1,3);
scale = (-0.3,0.3);
type = Corner;
}
);
layerId = m01;
shapes = (
{
closed = 1;
nodes = (
(247,500,l),
(162,500,l),
(22,500,l),
(22,0,l),
(162,0,l),
(247,0,l),
(247,-150,l),
(387,-150,l),
(387,500,l)
);
},
{
closed = 1;
nodes = (
(247,100,l),
(162,100,l),
(162,400,l),
(247,400,l)
);
}
);
width = 412;
},
{
anchors = (
{
name = bottom;
pos = (236,0);
},
{
name = top;
pos = (236,450);
}
);
backgroundImage = {
crop = (38.303,1.959,40.36,81.041);
imagePath = "../png/pqrstuv.png";
locked = 1;
pos = (-363,-170);
scale = (10.208,10.208);
};
hints = (
{
name = _segment.CUT;
origin = (0,1);
type = Segment;
},
{
name = _corner.ROUND;
origin = (0,2);
scale = (1.08,1.08);
type = Corner;
},
{
name = _corner.ROUND;
origin = (0,3);
scale = (1.08,1.08);
type = Corner;
},
{
name = _segment.CUT;
options = 1;
origin = (0,5);
scale = (-1,1);
type = Segment;
},
{
name = _corner.ROUND;
origin = (1,0);
scale = (0.8,0.5);
type = Corner;
},
{
name = _corner.ROUND;
origin = (1,1);
scale = (0.7,0.7);
type = Corner;
},
{
name = _corner.ROUND;
options = 2;
origin = (1,2);
scale = (-0.7,0.7);
type = Corner;
},
{
name = _corner.ROUND;
options = 2;
origin = (1,3);
scale = (-0.8,0.5);
type = Corner;
}
);
layerId = m002;
shapes = (
{
closed = 1;
nodes = (
(355,433,l),
(210,433,l),
(50,433,l),
(50,0,l),
(210,0,l),
(355,0,l),
(355,-150,l),
(415,-150,l),
(415,433,l)
);
},
{
closed = 1;
nodes = (
(355,50,l),
(110,50,l),
(110,383,l),
(355,383,l)
);
}
);
width = 473;
}
);
metricLeft = "=o";
metricRight = "=h";
unicode = 113;
},
{
glyphname = r;
kernLeft = n;
kernRight = r;
lastChange = "2025-09-26 20:24:40 +0000";
layers = (
{
anchors = (
{
name = bottom;
pos = (199,0);
},
{
name = top;
pos = (199,500);
}
);
hints = (
{
name = _corner.ROUND;
origin = (0,9);
type = Corner;
},
{
name = _corner.ROUND;
options = 2;
origin = (0,6);
scale = (-0.3,0.3);
type = Corner;
},
{
name = _corner.ROUND;
origin = (0,5);
scale = (0.3,0.3);
type = Corner;
},
{
name = _segment.CUT;
options = 1;
origin = (0,1);
scale = (-1,1);
type = Segment;
}
);
layerId = m01;
shapes = (
{
closed = 1;
nodes = (
(250,500,l),
(165,500,l),
(25,500,l),
(25,0,l),
(165,0,l),
(165,400,l),
(250,400,l),
(250,335,l),
(390,335,l),
(390,500,l)
);
}
);
width = 398;
},
{
anchors = (
{
name = bottom;
pos = (209,0);
},
{
name = top;
pos = (209,450);
}
);
backgroundImage = {
crop = (77.488,1.959,38.989,81.041);
imagePath = "../png/pqrstuv.png";
locked = 1;
pos = (-788,-170);
scale = (10.208,10.208);
};
hints = (
{
name = _corner.ROUND;
origin = (0,9);
type = Corner;
},
{
name = _corner.ROUND;
options = 2;
origin = (0,6);
scale = (-0.7,0.7);
type = Corner;
},
{
name = _corner.ROUND;
origin = (0,5);
scale = (0.8,0.5);
type = Corner;
},
{
name = _segment.CUT;
options = 1;
origin = (0,1);
scale = (-1,1);
type = Segment;
}
);
layerId = m002;
shapes = (
{
closed = 1;
nodes = (
(253,433,l),
(118,433,l),
(58,433,l),
(58,0,l),
(118,0,l),
(118,383,l),
(333,383,l),
(333,283,l),
(393,283,l),
(393,433,l)
);
}
);
width = 412;
}
);
metricLeft = "=h";
metricRight = "=h*.33";
unicode = 114;
},
{
glyphname = s;
kernLeft = s;
kernRight = s;
lastChange = "2025-09-26 20:23:07 +0000";
layers = (
{
anchors = (
{
name = bottom;
pos = (200,0);
},
{
name = top;
pos = (200,500);
}
);
background = {
hints = (
{
name = _corner.ROUND;
origin = (0,2);
scale = (0.3,0.3);
type = Corner;
},
{
name = _corner.ROUND;
options = 2;
origin = (0,3);
scale = (-0.3,0.3);
type = Corner;
},
{
name = _corner.ROUND;
origin = (0,6);
scale = (1.08,1.08);
type = Corner;
},
{
name = _corner.ROUND;
origin = (0,7);
scale = (1.08,1);
type = Corner;
},
{
name = _corner.ROUND;
options = 2;
origin = (0,12);
scale = (-0.3,0.3);
type = Corner;
},
{
name = _corner.ROUND;
origin = (0,13);
scale = (0.3,0.3);
type = Corner;
},
{
name = _corner.ROUND;
origin = (0,16);
type = Corner;
},
{
name = _corner.ROUND;
origin = (0,17);
type = Corner;
}
);
shapes = (
{
closed = 1;
nodes = (
(156,299,o),
(157,375,c),
(157,430,l),
(242,430,l),
(242,364,l),
(382,365,l),
(382,530,l),
(17,530,l),
(17,385,l),
(17,201,o),
(243,245,o),
(242,155,c),
(242,100,l),
(157,100,l),
(157,165,l),
(17,165,l),
(17,0,l),
(382,0,l),
(382,155,ls),
(382,335,o)
);
}
);
};
hints = (
{
name = _corner.ROUND;
origin = (0,2);
scale = (0.3,0.3);
type = Corner;
},
{
name = _corner.ROUND;
options = 2;
origin = (0,3);
scale = (-0.3,0.3);
type = Corner;
},
{
name = _corner.ROUND;
origin = (0,6);
type = Corner;
},
{
name = _corner.ROUND;
origin = (0,7);
type = Corner;
},
{
name = _corner.ROUND;
options = 2;
origin = (0,12);
scale = (-0.3,0.3);
type = Corner;
},
{
name = _corner.ROUND;
origin = (0,13);
scale = (0.3,0.3);
type = Corner;
},
{
name = _corner.ROUND;
origin = (0,16);
type = Corner;
},
{
name = _corner.ROUND;
origin = (0,17);
type = Corner;
}
);
layerId = m01;
shapes = (
{
closed = 1;
nodes = (
(157,265,o),
(157,355,c),
(157,400,l),
(242,400,l),
(242,335,l),
(382,335,l),
(382,500,l),
(17,500,l),
(17,355,l),
(17,175,o),
(242,235,o),
(242,145,c),
(242,100,l),
(157,100,l),
(157,165,l),
(17,165,l),
(17,0,l),
(382,0,l),
(382,145,ls),
(382,325,o)
);
}
);
width = 399;
},
{
anchors = (
{
name = bottom;
pos = (216,0);
},
{
name = top;
pos = (216,450);
}
);
background = {
hints = (
{
name = _corner.ROUND;
scale = (0.3,0.3);
type = Corner;
},
{
name = _corner.ROUND;
options = 2;
scale = (-0.3,0.3);
type = Corner;
},
{
name = _corner.ROUND;
scale = (1.08,1.08);
type = Corner;
},
{
name = _corner.ROUND;
scale = (1.08,1);
type = Corner;
},
{
name = _corner.ROUND;
options = 2;
scale = (-0.3,0.3);
type = Corner;
},
{
name = _corner.ROUND;
scale = (0.3,0.3);
type = Corner;
},
{
name = _corner.ROUND;
type = Corner;
},
{
name = _corner.ROUND;
type = Corner;
},
{
name = _corner.ROUND;
scale = (0.3,0.3);
type = Corner;
},
{
name = _corner.ROUND;
scale = (0.3,0.3);
type = Corner;
},
{
name = _corner.ROUND;
scale = (0.7,0.7);
type = Corner;
},
{
name = _corner.ROUND;
options = 2;
scale = (-0.7,0.7);
type = Corner;
},
{
name = _corner.ROUND;
type = Corner;
},
{
name = _corner.ROUND;
type = Corner;
},
{
name = _corner.ROUND;
options = 2;
scale = (-0.7,0.7);
type = Corner;
},
{
name = _corner.ROUND;
scale = (0.7,0.7);
type = Corner;
},
{
name = _corner.ROUND;
type = Corner;
},
{
name = _corner.ROUND;
type = Corner;
},
{
name = _corner.ROUND;
scale = (0.6,0.5);
type = Corner;
},
{
name = _corner.ROUND;
options = 2;
scale = (-0.6,0.5);
type = Corner;
},
{
name = _corner.ROUND;
scale = (0.9,1);
type = Corner;
},
{
name = _corner.ROUND;
scale = (0.9,1);
type = Corner;
},
{
name = _corner.ROUND;
options = 2;
scale = (-0.5,0.6);
type = Corner;
},
{
name = _corner.ROUND;
scale = (0.5,0.6);
type = Corner;
},
{
name = _corner.ROUND;
scale = (0.9,1);
type = Corner;
},
{
name = _corner.ROUND;
scale = (0.9,1);
type = Corner;
},
{
name = _corner.ROUND;
origin = (0,1);
scale = (0.6,0.5);
type = Corner;
},
{
name = _corner.ROUND;
options = 2;
origin = (0,2);
scale = (-0.6,0.6);
type = Corner;
},
{
name = _corner.ROUND;
origin = (0,5);
scale = (0.9,1);
type = Corner;
},
{
name = _corner.ROUND;
origin = (0,6);
scale = (0.9,1);
type = Corner;
}
);
shapes = (
{
closed = 0;
nodes = (
(98,318,l),
(98,400,l),
(333,400,l),
(333,310,l),
(393,310,l),
(393,450,l),
(38,450,l),
(38,318,l)
);
}
);
};
backgroundImage = {
crop = (114.518,1.959,39.087,81.041);
imagePath = "../png/pqrstuv.png";
locked = 1;
pos = (-1158,-170);
scale = (10.208,10.208);
};
hints = (
{
name = _corner.ROUND;
origin = (0,2);
scale = (0.6,0.5);
type = Corner;
},
{
name = _corner.ROUND;
options = 2;
origin = (0,3);
scale = (-0.6,0.6);
type = Corner;
},
{
name = _corner.ROUND;
origin = (0,6);
scale = (0.9,1);
type = Corner;
},
{
name = _corner.ROUND;
origin = (0,7);
scale = (0.9,1);
type = Corner;
},
{
name = _corner.ROUND;
options = 2;
origin = (0,12);
scale = (-0.5,0.6);
type = Corner;
},
{
name = _corner.ROUND;
origin = (0,13);
scale = (0.6,0.6);
type = Corner;
},
{
name = _corner.ROUND;
origin = (0,16);
scale = (0.9,1);
type = Corner;
},
{
name = _corner.ROUND;
origin = (0,17);
scale = (0.9,1);
type = Corner;
}
);
layerId = m002;
shapes = (
{
closed = 1;
nodes = (
(98,181,o),
(98,301,c),
(98,383,l),
(333,383,l),
(333,293,l),
(393,293,l),
(393,433,l),
(38,433,l),
(38,301,l),
(38,111,o),
(333,252,o),
(333,132,c),
(333,50,l),
(98,50,l),
(98,140,l),
(38,140,l),
(38,0,l),
(393,0,l),
(393,132,ls),
(393,324,o)
);
}
);
width = 431;
}
);
metricLeft = "=o*.75";
metricRight = "=o*.75";
unicode = 115;
},
{
glyphname = germandbls;
kernLeft = n;
kernRight = germandbls;
lastChange = "2025-09-26 20:37:22 +0000";
layers = (
{
anchors = (
{
name = bottom;
pos = (239,0);
},
{
name = top;
pos = (239,775);
}
);
hints = (
{
name = _corner.ROUND;
origin = (0,12);
scale = (1.08,1.08);
type = Corner;
},
{
name = _corner.ROUND;
origin = (0,15);
type = Corner;
},
{
name = _corner.ROUND;
origin = (0,5);
scale = (0.3,0.3);
type = Corner;
},
{
name = _corner.ROUND;
options = 2;
origin = (0,4);
scale = (-0.3,0.3);
type = Corner;
},
{
name = _corner.ROUND;
origin = (0,9);
scale = (0.3,0.3);
type = Corner;
},
{
name = _corner.ROUND;
options = 2;
origin = (0,8);
scale = (-0.3,0.3);
type = Corner;
},
{
name = _segment.DOUBLECUT;
origin = (0,14);
type = Segment;
},
{
name = _corner.ROUND;
origin = (0,0);
scale = (1.2,1.2);
type = Corner;
},
{
name = _corner.ROUND;
origin = (0,3);
scale = (0.3,0.3);
type = Corner;
}
);
layerId = m01;
shapes = (
{
closed = 1;
nodes = (
(25,600,l),
(25,0,l),
(165,0,l),
(165,500,l),
(315,500,l),
(315,350,l),
(245,350,l),
(245,250,l),
(315,250,l),
(315,100,l),
(215,100,l),
(215,0,l),
(455,0,l),
(455,206,l),
(455,400,l),
(455,600,l)
);
}
);
width = 477;
},
{
anchors = (
{
name = bottom;
pos = (272,0);
},
{
name = top;
pos = (272,775);
}
);
hints = (
{
name = _corner.ROUND;
origin = (0,12);
scale = (1.08,1.08);
type = Corner;
},
{
name = _corner.ROUND;
origin = (0,15);
type = Corner;
},
{
name = _corner.ROUND;
origin = (0,5);
scale = (0.5,0.5);
type = Corner;
},
{
name = _corner.ROUND;
options = 2;
origin = (0,4);
scale = (-0.5,0.5);
type = Corner;
},
{
name = _corner.ROUND;
origin = (0,9);
scale = (0.5,0.5);
type = Corner;
},
{
name = _corner.ROUND;
options = 2;
origin = (0,8);
scale = (-0.5,0.5);
type = Corner;
},
{
name = _segment.DOUBLECUT;
origin = (0,14);
scale = (0.8,0.8);
type = Segment;
},
{
name = _corner.ROUND;
origin = (0,0);
scale = (1.2,1.2);
type = Corner;
},
{
name = _corner.ROUND;
origin = (0,3);
scale = (0.8,0.8);
type = Corner;
}
);
layerId = m002;
shapes = (
{
closed = 1;
nodes = (
(58,600,l),
(58,0,l),
(128,0,l),
(128,550,l),
(418,550,l),
(418,325,l),
(228,325,l),
(228,275,l),
(418,275,l),
(418,50,l),
(198,50,l),
(198,0,l),
(488,0,l),
(488,206,l),
(488,400,l),
(488,600,l)
);
}
);
width = 538;
}
);
metricLeft = "=h";
metricRight = "=o";
unicode = 223;
},
{
glyphname = t;
kernLeft = t;
kernRight = t;
lastChange = "2025-09-26 20:24:40 +0000";
layers = (
{
anchors = (
{
name = bottom;
pos = (153,0);
},
{
name = center;
pos = (153,250);
},
{
name = top;
pos = (153,675);
},
{
name = topright;
pos = (286,775);
}
);
background = {
hints = (
{
name = _corner.ROUND;
origin = (0,0);
type = Corner;
},
{
name = _corner.ROUND;
origin = (0,3);
scale = (0.3,0.3);
type = Corner;
}
);
shapes = (
{
closed = 1;
nodes = (
(83,0,l),
(293,0,l),
(293,100,l),
(223,100,l),
(223,700,l),
(83,700,l)
);
},
{
closed = 1;
nodes = (
(13,425,l),
(293,425,l),
(293,525,l),
(13,525,l)
);
}
);
};
hints = (
{
name = _corner.ROUND;
origin = (0,7);
scale = (0.3,0.3);
type = Corner;
},
{
name = _corner.ROUND;
origin = (0,4);
type = Corner;
}
);
layerId = m01;
shapes = (
{
closed = 1;
nodes = (
(83,500,l),
(13,500,l),
(13,400,l),
(83,400,l),
(83,0,l),
(293,0,l),
(293,100,l),
(223,100,l),
(223,400,l),
(293,400,l),
(293,500,l),
(223,500,l),
(223,650,l),
(83,650,l)
);
}
);
width = 306;
},
{
anchors = (
{
name = bottom;
pos = (154,0);
},
{
name = center;
pos = (154,225);
},
{
name = top;
pos = (154,650);
},
{
name = topright;
pos = (284,775);
}
);
backgroundImage = {
crop = (151.939,1.959,29.976,81.041);
imagePath = "../png/pqrstuv.png";
locked = 1;
pos = (-1535,-170);
scale = (10.208,10.208);
};
hints = (
{
name = _corner.ROUND;
origin = (0,7);
scale = (0.7,0.7);
type = Corner;
},
{
name = _corner.ROUND;
origin = (0,4);
type = Corner;
}
);
layerId = m002;
shapes = (
{
closed = 1;
nodes = (
(99,433,l),
(29,433,l),
(29,383,l),
(99,383,l),
(99,0,l),
(279,0,l),
(279,50,l),
(159,50,l),
(159,383,l),
(279,383,l),
(279,433,l),
(159,433,l),
(159,650,l),
(99,650,l)
);
}
);
width = 308;
}
);
metricLeft = "=h*.5";
metricRight = "=h*.5";
unicode = 116;
},
{
glyphname = u;
kernLeft = u;
kernRight = u;
lastChange = "2025-09-26 21:13:28 +0000";
layers = (
{
anchors = (
{
name = bottom;
pos = (208,0);
},
{
name = ogonek;
pos = (374,10);
},
{
name = top;
pos = (208,500);
},
{
name = topright;
pos = (395,500);
}
);
background = {
hints = (
{
name = _corner.ROUND;
type = Corner;
},
{
name = _corner.ROUND;
options = 2;
scale = (-0.3,0.3);
type = Corner;
},
{
name = _corner.ROUND;
options = 2;
scale = (-0.3,0.3);
type = Corner;
},
{
name = _corner.ROUND;
type = Corner;
},
{
name = _corner.ROUND;
options = 2;
scale = (-0.3,0.3);
type = Corner;
},
{
name = _corner.ROUND;
options = 2;
scale = (-0.3,0.3);
type = Corner;
},
{
name = _segment.CUT;
options = 1;
origin = (0,1);
scale = (-1,1);
type = Segment;
},
{
name = _corner.ROUND;
options = 2;
origin = (0,5);
scale = (-0.3,0.3);
type = Corner;
},
{
name = _corner.ROUND;
options = 2;
origin = (0,6);
scale = (-0.3,0.3);
type = Corner;
},
{
name = _corner.ROUND;
origin = (0,9);
type = Corner;
}
);
shapes = (
{
closed = 1;
nodes = (
(167,0,l),
(250,0,l),
(390,0,l),
(390,530,l),
(250,530,l),
(250,100,l),
(165,100,l),
(165,530,l),
(25,530,l),
(25,0,l)
);
}
);
};
hints = (
{
name = _corner.ROUND;
origin = (0,9);
type = Corner;
},
{
name = _corner.ROUND;
options = 2;
origin = (0,5);
scale = (-0.3,0.3);
type = Corner;
},
{
name = _corner.ROUND;
options = 2;
origin = (0,6);
scale = (-0.3,0.3);
type = Corner;
},
{
name = _segment.CUT;
options = 1;
origin = (0,1);
scale = (-1,1);
type = Segment;
}
);
layerId = m01;
shapes = (
{
closed = 1;
nodes = (
(165,0,l),
(250,0,l),
(390,0,l),
(390,500,l),
(250,500,l),
(250,100,l),
(165,100,l),
(165,500,l),
(25,500,l),
(25,0,l)
);
}
);
width = 415;
},
{
anchors = (
{
name = bottom;
pos = (241,0);
},
{
name = ogonek;
pos = (427,10);
},
{
name = top;
pos = (241,450);
},
{
name = topright;
pos = (453,450);
}
);
backgroundImage = {
crop = (181.328,1.959,40.654,81.041);
imagePath = "../png/pqrstuv.png";
locked = 1;
pos = (-1818,-170);
scale = (10.208,10.208);
};
hints = (
{
name = _corner.ROUND;
origin = (0,9);
scale = (1.08,1.08);
type = Corner;
},
{
name = _corner.ROUND;
options = 2;
origin = (0,5);
scale = (-0.5,0.8);
type = Corner;
},
{
name = _corner.ROUND;
options = 2;
origin = (0,6);
scale = (-0.7,0.7);
type = Corner;
},
{
name = _segment.CUT;
options = 1;
origin = (0,1);
scale = (-1,1);
type = Segment;
}
);
layerId = m002;
shapes = (
{
closed = 1;
nodes = (
(218,0,l),
(363,0,l),
(423,0,l),
(423,433,l),
(363,433,l),
(363,50,l),
(118,50,l),
(118,433,l),
(58,433,l),
(58,0,l)
);
}
);
width = 481;
}
);
metricLeft = "=h";
metricRight = "=h";
unicode = 117;
},
{
glyphname = v;
kernLeft = v;
kernRight = v;
lastChange = "2025-09-29 00:04:11 +0000";
layers = (
{
anchors = (
{
name = bottom;
pos = (196,0);
},
{
name = top;
pos = (196,500);
}
);
background = {
shapes = (
{
closed = 0;
nodes = (
(171,0,l),
(271,0,l)
);
}
);
};
layerId = m01;
shapes = (
{
closed = 1;
nodes = (
(271,0,l),
(386,500,l),
(246,500,l),
(171,0,l)
);
},
{
closed = 1;
nodes = (
(221,0,l),
(146,500,l),
(6,500,l),
(121,0,l)
);
}
);
width = 392;
},
{
anchors = (
{
name = bottom;
pos = (205,0);
},
{
name = top;
pos = (205,450);
}
);
background = {
shapes = (
{
closed = 0;
nodes = (
(178,0,l),
(278,0,l)
);
}
);
};
backgroundImage = {
crop = (221.493,1.959,36.507,81.041);
imagePath = "../png/pqrstuv.png";
locked = 1;
pos = (-2254,-170);
scale = (10.208,10.208);
};
layerId = m002;
shapes = (
{
closed = 1;
nodes = (
(240,0,l),
(395,433,l),
(335,433,l),
(180,0,l)
);
},
{
closed = 1;
nodes = (
(230,0,l),
(75,433,l),
(15,433,l),
(170,0,l)
);
}
);
width = 410;
}
);
metricLeft = "=h*.25";
metricRight = "=h*.25";
unicode = 118;
},
{
glyphname = w;
kernLeft = w;
kernRight = w;
lastChange = "2025-09-29 00:05:13 +0000";
layers = (
{
anchors = (
{
name = bottom;
pos = (311,0);
},
{
name = top;
pos = (311,500);
}
);
layerId = m01;
shapes = (
{
closed = 1;
nodes = (
(506,0,l),
(616,500,l),
(476,500,l),
(406,0,l)
);
},
{
closed = 1;
nodes = (
(216,0,l),
(146,500,l),
(6,500,l),
(116,0,l)
);
},
{
closed = 1;
nodes = (
(266,0,l),
(336,500,l),
(246,500,l),
(166,0,l)
);
},
{
closed = 1;
nodes = (
(456,0,l),
(376,500,l),
(286,500,l),
(356,0,l)
);
}
);
width = 622;
},
{
anchors = (
{
name = bottom;
pos = (305,0);
},
{
name = top;
pos = (305,450);
}
);
backgroundImage = {
crop = (38.52,1.839,60.199,78.161);
imagePath = "../png/vwxyz.png";
locked = 1;
pos = (-479,-169);
scale = (10.3323,10.3323);
};
layerId = m002;
shapes = (
{
closed = 1;
nodes = (
(470,0,l),
(595,433,l),
(535,433,l),
(410,0,l)
);
},
{
closed = 1;
nodes = (
(200,0,l),
(75,433,l),
(15,433,l),
(140,0,l)
);
},
{
closed = 1;
nodes = (
(210,0,l),
(335,433,l),
(275,433,l),
(150,0,l)
);
},
{
closed = 1;
nodes = (
(460,0,l),
(335,433,l),
(275,433,l),
(400,0,l)
);
}
);
width = 610;
}
);
metricLeft = "=h*.25";
metricRight = "=h*.25";
unicode = 119;
},
{
glyphname = x;
kernLeft = x;
kernRight = x;
lastChange = "2025-09-26 20:26:15 +0000";
layers = (
{
anchors = (
{
name = bottom;
pos = (189,0);
},
{
name = top;
pos = (189,500);
}
);
background = {
shapes = (
{
closed = 1;
nodes = (
(118,251,l),
(5,0,l),
(145,0,l),
(188,120,l),
(230,0,l),
(370,0,l),
(258,251,l),
(370,500,l),
(230,500,l),
(188,380,l),
(145,500,l),
(5,500,l)
);
}
);
};
layerId = m01;
shapes = (
{
closed = 1;
nodes = (
(241,0,l),
(371,0,l),
(136,500,l),
(6,500,l)
);
},
{
closed = 1;
nodes = (
(241,500,l),
(6,0,l),
(136,0,l),
(371,500,l)
);
}
);
width = 377;
},
{
anchors = (
{
name = bottom;
pos = (198,0);
},
{
name = top;
pos = (198,450);
}
);
background = {
shapes = (
{
closed = 1;
nodes = (
(310,0,l),
(380,0,l),
(85,500,l),
(15,500,l)
);
},
{
closed = 1;
nodes = (
(310,500,l),
(15,0,l),
(85,0,l),
(380,500,l)
);
}
);
};
backgroundImage = {
crop = (96.009,1.839,36.487,78.161);
imagePath = "../png/vwxyz.png";
locked = 1;
pos = (-976,-169);
scale = (10.3323,10.3323);
};
layerId = m002;
shapes = (
{
closed = 1;
nodes = (
(310,0,l),
(380,0,l),
(85,433,l),
(15,433,l)
);
},
{
closed = 1;
nodes = (
(310,433,l),
(15,0,l),
(85,0,l),
(380,433,l)
);
}
);
width = 395;
}
);
metricLeft = "=h*.25";
metricRight = "=h*.25";
unicode = 120;
},
{
glyphname = y;
kernLeft = y;
kernRight = y;
lastChange = "2025-09-26 20:37:27 +0000";
layers = (
{
anchors = (
{
name = bottom;
pos = (200,0);
},
{
name = top;
pos = (200,500);
}
);
hints = (
{
name = _corner.ROUND;
origin = (0,7);
scale = (0.3,0.4);
type = Corner;
},
{
name = _corner.ROUND;
origin = (0,10);
scale = (1.15,0.8);
type = Corner;
}
);
layerId = m01;
shapes = (
{
closed = 1;
nodes = (
(278,0,l),
(393,500,l),
(253,500,l),
(203,122,l),
(153,500,l),
(13,500,l),
(128,0,l),
(144,-50,l),
(13,-50,l),
(13,-150,l),
(230,-150,l)
);
}
);
width = 399;
},
{
anchors = (
{
name = bottom;
pos = (203,0);
},
{
name = top;
pos = (203,450);
}
);
backgroundImage = {
crop = (134.336,1.839,38.617,78.161);
imagePath = "../png/vwxyz.png";
locked = 1;
pos = (-1342,-169);
scale = (10.3323,10.3323);
};
hints = (
{
name = _corner.ROUND;
origin = (0,7);
scale = (0.5,0.6);
type = Corner;
},
{
name = _corner.ROUND;
origin = (0,10);
scale = (0.8,0.6);
type = Corner;
}
);
layerId = m002;
shapes = (
{
closed = 1;
nodes = (
(244,0,l),
(389,433,l),
(329,433,l),
(209,82,l),
(89,433,l),
(29,433,l),
(174,0,l),
(200,-100,l),
(59,-100,l),
(59,-150,l),
(200,-150,l)
);
}
);
width = 404;
}
);
metricLeft = "=h*.5";
metricRight = "=h*.25";
unicode = 121;
},
{
glyphname = z;
kernLeft = z;
kernRight = z;
lastChange = "2025-09-26 20:24:40 +0000";
layers = (
{
anchors = (
{
name = bottom;
pos = (180,0);
},
{
name = center;
pos = (180,250);
},
{
name = top;
pos = (180,500);
}
);
layerId = m01;
shapes = (
{
closed = 1;
nodes = (
(19,400,l),
(194,400,l),
(19,100,l),
(19,0,l),
(334,0,l),
(334,100,l),
(159,100,l),
(334,400,l),
(334,500,l),
(19,500,l)
);
}
);
width = 359;
},
{
anchors = (
{
name = bottom;
pos = (208,0);
},
{
name = center;
pos = (208,225);
},
{
name = top;
pos = (208,450);
}
);
backgroundImage = {
crop = (175.856,1.839,33.144,78.161);
imagePath = "../png/vwxyz.png";
locked = 1;
pos = (-1792,-169);
scale = (10.3323,10.3323);
};
layerId = m002;
shapes = (
{
closed = 1;
nodes = (
(44,383,l),
(299,383,l),
(44,50,l),
(44,0,l),
(359,0,l),
(359,50,l),
(104,50,l),
(359,383,l),
(359,433,l),
(44,433,l)
);
}
);
width = 417;
}
);
metricLeft = "=h*.75";
metricRight = "=h";
unicode = 122;
},
{
glyphname = zero;
kernLeft = zero;
kernRight = zero;
lastChange = "2025-09-26 20:39:27 +0000";
layers = (
{
hints = (
{
name = _corner.ROUND;
origin = (0,0);
type = Corner;
},
{
name = _corner.ROUND;
origin = (0,1);
type = Corner;
},
{
name = _corner.ROUND;
origin = (0,2);
type = Corner;
},
{
name = _corner.ROUND;
origin = (0,3);
type = Corner;
},
{
name = _corner.ROUND;
origin = (1,0);
scale = (0.3,0.3);
type = Corner;
},
{
name = _corner.ROUND;
origin = (1,1);
scale = (0.3,0.3);
type = Corner;
},
{
name = _corner.ROUND;
options = 2;
origin = (1,2);
scale = (-0.3,0.3);
type = Corner;
},
{
name = _corner.ROUND;
options = 2;
origin = (1,3);
scale = (-0.3,0.3);
type = Corner;
}
);
layerId = m01;
shapes = (
{
closed = 1;
nodes = (
(22,0,l),
(412,0,l),
(412,650,l),
(22,650,l)
);
},
{
closed = 1;
nodes = (
(262,110,l),
(172,110,l),
(172,540,l),
(262,540,l)
);
}
);
width = 434;
},
{
backgroundImage = {
crop = (2.604,0,41.864,80);
imagePath = "../png/0123456789.png";
locked = 1;
pos = (13,-120);
scale = (10.3668,10.3668);
};
hints = (
{
name = _corner.ROUND;
origin = (0,0);
scale = (0.8,0.8);
type = Corner;
},
{
name = _corner.ROUND;
origin = (0,1);
scale = (0.8,0.8);
type = Corner;
},
{
name = _corner.ROUND;
origin = (0,2);
scale = (0.8,0.8);
type = Corner;
},
{
name = _corner.ROUND;
origin = (0,3);
scale = (0.8,0.8);
type = Corner;
},
{
name = _corner.ROUND;
origin = (1,0);
scale = (0.4,0.4);
type = Corner;
},
{
name = _corner.ROUND;
origin = (1,1);
scale = (0.4,0.4);
type = Corner;
},
{
name = _corner.ROUND;
options = 2;
origin = (1,2);
scale = (-0.4,0.4);
type = Corner;
},
{
name = _corner.ROUND;
options = 2;
origin = (1,3);
scale = (-0.4,0.4);
type = Corner;
}
);
layerId = m002;
shapes = (
{
closed = 1;
nodes = (
(62,0,l),
(452,0,l),
(452,650,l),
(62,650,l)
);
},
{
closed = 1;
nodes = (
(382,60,l),
(132,60,l),
(132,590,l),
(382,590,l)
);
}
);
width = 514;
}
);
metricLeft = "=O";
metricRight = "=O";
unicode = 48;
},
{
glyphname = one;
kernLeft = one;
kernRight = one;
lastChange = "2025-09-26 20:39:27 +0000";
layers = (
{
layerId = m01;
shapes = (
{
closed = 1;
nodes = (
(282,650,l),
(132,650,l),
(132,0,l),
(282,0,l)
);
},
{
closed = 1;
nodes = (
(84,446,l),
(210,572,l),
(132,650,l),
(6,524,l)
);
}
);
width = 313;
},
{
backgroundImage = {
crop = (45.047,0,30.192,80);
imagePath = "../png/0123456789.png";
locked = 1;
pos = (-537,-120);
scale = (10.3668,10.3668);
};
layerId = m002;
shapes = (
{
closed = 1;
nodes = (
(212,650,l),
(142,650,l),
(142,0,l),
(212,0,l)
);
},
{
closed = 1;
nodes = (
(59,481,l),
(185,607,l),
(142,650,l),
(16,524,l)
);
}
);
width = 300;
}
);
metricLeft = "=O*0.25";
metricRight = "=H*1.25";
unicode = 49;
},
{
glyphname = two;
kernLeft = two;
kernRight = two;
lastChange = "2025-09-26 20:39:27 +0000";
layers = (
{
hints = (
{
name = _corner.ROUND;
origin = (0,15);
scale = (0.3,0.3);
type = Corner;
},
{
name = _corner.ROUND;
options = 2;
origin = (0,14);
scale = (-0.3,0.3);
type = Corner;
},
{
name = _corner.ROUND;
origin = (0,11);
scale = (1.08,1.08);
type = Corner;
},
{
name = _corner.ROUND;
origin = (0,10);
type = Corner;
}
);
layerId = m01;
shapes = (
{
closed = 1;
nodes = (
(262,299,o),
(22,321,o),
(22,130,c),
(22,0,l),
(412,0,l),
(412,130,l),
(172,130,l),
(172,251,o),
(412,222,o),
(412,375,c),
(412,650,l),
(22,650,l),
(22,395,l),
(172,395,l),
(172,540,l),
(262,540,l),
(262,395,l)
);
}
);
width = 434;
},
{
backgroundImage = {
crop = (75.915,0,41.864,80);
imagePath = "../png/0123456789.png";
locked = 1;
pos = (-747,-120);
scale = (10.3668,10.3668);
};
hints = (
{
name = _corner.ROUND;
origin = (0,15);
scale = (0.5,0.5);
type = Corner;
},
{
name = _corner.ROUND;
options = 2;
origin = (0,14);
scale = (-0.5,0.5);
type = Corner;
},
{
name = _corner.ROUND;
origin = (0,11);
scale = (1.08,1.08);
type = Corner;
},
{
name = _corner.ROUND;
origin = (0,10);
type = Corner;
}
);
layerId = m002;
shapes = (
{
closed = 1;
nodes = (
(382,279,o),
(62,261,o),
(62,70,c),
(62,0,l),
(452,0,l),
(452,70,l),
(132,70,l),
(132,221,o),
(452,242,o),
(452,375,c),
(452,650,l),
(62,650,l),
(62,395,l),
(132,395,l),
(132,590,l),
(382,590,l),
(382,395,l)
);
}
);
width = 514;
}
);
metricLeft = "=O";
metricRight = "=O";
unicode = 50;
},
{
glyphname = three;
kernLeft = three;
kernRight = three;
lastChange = "2025-09-26 20:39:27 +0000";
layers = (
{
background = {
hints = (
{
name = _corner.ROUND;
type = Corner;
},
{
name = _corner.ROUND;
scale = (1.08,1.08);
type = Corner;
},
{
name = _segment.DOUBLECUT;
type = Segment;
},
{
name = _corner.ROUND;
type = Corner;
},
{
name = _corner.ROUND;
type = Corner;
},
{
name = _corner.ROUND;
scale = (0.3,0.3);
type = Corner;
},
{
name = _corner.ROUND;
options = 2;
scale = (-0.3,0.3);
type = Corner;
},
{
name = _corner.ROUND;
scale = (0.3,0.3);
type = Corner;
},
{
name = _corner.ROUND;
options = 2;
scale = (-0.3,0.3);
type = Corner;
},
{
name = _corner.ROUND;
scale = (0.3,0.3);
type = Corner;
},
{
name = _corner.ROUND;
scale = (0.3,0.3);
type = Corner;
},
{
name = _corner.ROUND;
type = Corner;
},
{
name = _corner.ROUND;
scale = (1.08,1.08);
type = Corner;
},
{
name = _segment.DOUBLECUT;
type = Segment;
},
{
name = _corner.ROUND;
type = Corner;
},
{
name = _corner.ROUND;
type = Corner;
},
{
name = _corner.ROUND;
scale = (0.3,0.3);
type = Corner;
},
{
name = _corner.ROUND;
options = 2;
scale = (-0.3,0.3);
type = Corner;
},
{
name = _corner.ROUND;
scale = (0.3,0.3);
type = Corner;
},
{
name = _corner.ROUND;
options = 2;
scale = (-0.3,0.3);
type = Corner;
},
{
name = _corner.ROUND;
scale = (0.3,0.3);
type = Corner;
},
{
name = _corner.ROUND;
scale = (0.3,0.3);
type = Corner;
},
{
name = _corner.ROUND;
type = Corner;
},
{
name = _corner.ROUND;
scale = (1.08,1.08);
type = Corner;
},
{
name = _segment.DOUBLECUT;
type = Segment;
},
{
name = _corner.ROUND;
type = Corner;
},
{
name = _corner.ROUND;
type = Corner;
},
{
name = _corner.ROUND;
scale = (0.3,0.3);
type = Corner;
},
{
name = _corner.ROUND;
options = 2;
scale = (-0.3,0.3);
type = Corner;
},
{
name = _corner.ROUND;
scale = (0.3,0.3);
type = Corner;
},
{
name = _corner.ROUND;
options = 2;
scale = (-0.3,0.3);
type = Corner;
},
{
name = _corner.ROUND;
scale = (0.3,0.3);
type = Corner;
},
{
name = _corner.ROUND;
scale = (0.3,0.3);
type = Corner;
},
{
name = _corner.ROUND;
origin = (0,1);
type = Corner;
},
{
name = _corner.ROUND;
origin = (0,2);
scale = (1.08,1.08);
type = Corner;
},
{
name = _segment.DOUBLECUT;
origin = (0,4);
type = Segment;
},
{
name = _corner.ROUND;
origin = (0,5);
type = Corner;
},
{
name = _corner.ROUND;
origin = (0,6);
type = Corner;
},
{
name = _corner.ROUND;
origin = (0,9);
scale = (0.3,0.3);
type = Corner;
},
{
name = _corner.ROUND;
options = 2;
origin = (0,10);
scale = (-0.3,0.3);
type = Corner;
},
{
name = _corner.ROUND;
origin = (0,11);
scale = (0.3,0.3);
type = Corner;
},
{
name = _corner.ROUND;
options = 2;
origin = (0,14);
scale = (-0.3,0.3);
type = Corner;
},
{
name = _corner.ROUND;
origin = (0,15);
scale = (0.3,0.3);
type = Corner;
},
{
name = _corner.ROUND;
origin = (0,16);
scale = (0.3,0.3);
type = Corner;
}
);
shapes = (
{
closed = 1;
nodes = (
(22,200,l),
(22,0,l),
(412,0,l),
(412,250,l),
(412,400,l),
(412,650,l),
(22,650,l),
(22,450,l),
(172,450,l),
(172,540,l),
(262,540,l),
(262,380,l),
(157,380,l),
(157,270,l),
(262,270,l),
(262,110,l),
(172,110,l),
(172,200,l)
);
}
);
};
hints = (
{
name = _corner.ROUND;
origin = (0,11);
scale = (0.3,0.3);
type = Corner;
},
{
name = _corner.ROUND;
options = 2;
origin = (0,10);
scale = (-0.3,0.3);
type = Corner;
},
{
name = _corner.ROUND;
origin = (0,2);
scale = (1.08,1.08);
type = Corner;
},
{
name = _corner.ROUND;
origin = (0,15);
scale = (0.3,0.3);
type = Corner;
},
{
name = _corner.ROUND;
options = 2;
origin = (0,14);
scale = (-0.3,0.3);
type = Corner;
},
{
name = _corner.ROUND;
origin = (0,6);
type = Corner;
},
{
name = _corner.ROUND;
origin = (0,1);
type = Corner;
},
{
name = _corner.ROUND;
origin = (0,9);
scale = (0.3,0.3);
type = Corner;
},
{
name = _corner.ROUND;
origin = (0,16);
scale = (0.3,0.3);
type = Corner;
},
{
name = _segment.DOUBLECUT;
origin = (0,4);
type = Segment;
},
{
name = _corner.ROUND;
origin = (0,5);
type = Corner;
}
);
layerId = m01;
shapes = (
{
closed = 1;
nodes = (
(22,200,l),
(22,0,l),
(412,0,l),
(412,250,l),
(412,400,l),
(412,650,l),
(22,650,l),
(22,450,l),
(172,450,l),
(172,540,l),
(262,540,l),
(262,380,l),
(157,380,l),
(157,270,l),
(262,270,l),
(262,110,l),
(172,110,l),
(172,200,l)
);
}
);
width = 434;
},
{
background = {
hints = (
{
name = _corner.ROUND;
origin = (0,1);
type = Corner;
},
{
name = _corner.ROUND;
origin = (0,2);
scale = (1.08,1.08);
type = Corner;
},
{
name = _segment.DOUBLECUT;
origin = (0,4);
scale = (0.8,0.8);
type = Segment;
},
{
name = _corner.ROUND;
origin = (0,5);
type = Corner;
},
{
name = _corner.ROUND;
origin = (0,6);
type = Corner;
},
{
name = _corner.ROUND;
origin = (0,9);
scale = (0.5,0.5);
type = Corner;
},
{
name = _corner.ROUND;
options = 2;
origin = (0,10);
scale = (-0.5,0.5);
type = Corner;
},
{
name = _corner.ROUND;
origin = (0,11);
scale = (0.3,0.3);
type = Corner;
},
{
name = _corner.ROUND;
options = 2;
origin = (0,14);
scale = (-0.3,0.3);
type = Corner;
},
{
name = _corner.ROUND;
origin = (0,15);
scale = (0.5,0.5);
type = Corner;
},
{
name = _corner.ROUND;
origin = (0,16);
scale = (0.5,0.5);
type = Corner;
}
);
shapes = (
{
closed = 1;
nodes = (
(62,200,l),
(62,0,l),
(452,0,l),
(452,250,l),
(452,400,l),
(452,650,l),
(62,650,l),
(62,450,l),
(132,450,l),
(132,590,l),
(382,590,l),
(382,355,l),
(197,355,l),
(197,295,l),
(382,295,l),
(382,60,l),
(132,60,l),
(132,200,l)
);
}
);
};
backgroundImage = {
crop = (118.358,0,41.864,80);
imagePath = "../png/0123456789.png";
locked = 1;
pos = (-1187,-120);
scale = (10.3668,10.3668);
};
hints = (
{
name = _corner.ROUND;
origin = (0,11);
scale = (0.3,0.3);
type = Corner;
},
{
name = _corner.ROUND;
options = 2;
origin = (0,10);
scale = (-0.5,0.5);
type = Corner;
},
{
name = _corner.ROUND;
origin = (0,2);
scale = (1.08,1.08);
type = Corner;
},
{
name = _corner.ROUND;
origin = (0,15);
scale = (0.5,0.5);
type = Corner;
},
{
name = _corner.ROUND;
options = 2;
origin = (0,14);
scale = (-0.3,0.3);
type = Corner;
},
{
name = _corner.ROUND;
origin = (0,6);
type = Corner;
},
{
name = _corner.ROUND;
origin = (0,1);
type = Corner;
},
{
name = _corner.ROUND;
origin = (0,9);
scale = (0.5,0.5);
type = Corner;
},
{
name = _corner.ROUND;
origin = (0,16);
scale = (0.5,0.5);
type = Corner;
},
{
name = _segment.DOUBLECUT;
origin = (0,4);
scale = (0.8,0.8);
type = Segment;
},
{
name = _corner.ROUND;
origin = (0,5);
type = Corner;
}
);
layerId = m002;
shapes = (
{
closed = 1;
nodes = (
(62,200,l),
(62,0,l),
(452,0,l),
(452,250,l),
(452,400,l),
(452,650,l),
(62,650,l),
(62,450,l),
(132,450,l),
(132,590,l),
(382,590,l),
(382,355,l),
(197,355,l),
(197,295,l),
(382,295,l),
(382,60,l),
(132,60,l),
(132,200,l)
);
}
);
width = 514;
}
);
metricLeft = "=O";
metricRight = "=O";
unicode = 51;
},
{
glyphname = four;
kernLeft = four;
kernRight = four;
lastChange = "2025-09-26 20:39:28 +0000";
layers = (
{
background = {
shapes = (
{
closed = 1;
nodes = (
(372,700,l),
(222,700,l),
(222,0,l),
(372,0,l)
);
},
{
closed = 1;
nodes = (
(22,163,l),
(412,163,l),
(412,273,l),
(22,273,l)
);
}
);
};
layerId = m01;
shapes = (
{
closed = 1;
nodes = (
(372,650,l),
(222,650,l),
(222,0,l),
(372,0,l)
);
},
{
closed = 1;
nodes = (
(22,162,l),
(412,162,l),
(412,272,l),
(143,272,l),
(322,604,l),
(222,650,l),
(22,272,l)
);
}
);
width = 434;
},
{
background = {
shapes = (
{
closed = 1;
nodes = (
(412,700,l),
(262,700,l),
(262,0,l),
(412,0,l)
);
},
{
closed = 1;
nodes = (
(62,163,l),
(452,163,l),
(452,273,l),
(62,273,l)
);
}
);
};
backgroundImage = {
crop = (159.837,0,41.864,80);
imagePath = "../png/0123456789.png";
locked = 1;
pos = (-1617,-120);
scale = (10.3668,10.3668);
};
layerId = m002;
shapes = (
{
closed = 1;
nodes = (
(412,650,l),
(342,650,l),
(342,0,l),
(412,0,l)
);
},
{
closed = 1;
nodes = (
(62,162,l),
(452,162,l),
(452,222,l),
(132,222,l),
(412,650,l),
(342,650,l),
(62,222,l)
);
}
);
width = 514;
}
);
metricLeft = "=O";
metricRight = "=O";
unicode = 52;
},
{
glyphname = five;
kernLeft = five;
kernRight = five;
lastChange = "2025-09-26 20:39:28 +0000";
layers = (
{
background = {
hints = (
{
name = _corner.ROUND;
type = Corner;
},
{
name = _corner.ROUND;
type = Corner;
},
{
name = _segment.CUT;
options = 1;
scale = (-1,1);
type = Segment;
},
{
name = _corner.ROUND;
type = Corner;
},
{
name = _corner.ROUND;
scale = (0.3,0.3);
type = Corner;
},
{
name = _corner.ROUND;
scale = (0.3,0.3);
type = Corner;
},
{
name = _corner.ROUND;
options = 2;
scale = (-0.3,0.3);
type = Corner;
},
{
name = _corner.ROUND;
options = 2;
scale = (-0.3,0.3);
type = Corner;
},
{
name = _corner.ROUND;
type = Corner;
},
{
name = _corner.ROUND;
type = Corner;
},
{
name = _segment.CUT;
options = 1;
scale = (-1,1);
type = Segment;
},
{
name = _corner.ROUND;
type = Corner;
},
{
name = _corner.ROUND;
scale = (0.3,0.3);
type = Corner;
},
{
name = _corner.ROUND;
scale = (0.3,0.3);
type = Corner;
},
{
name = _corner.ROUND;
options = 2;
scale = (-0.3,0.3);
type = Corner;
},
{
name = _corner.ROUND;
options = 2;
scale = (-0.3,0.3);
type = Corner;
},
{
name = _corner.ROUND;
type = Corner;
},
{
name = _corner.ROUND;
type = Corner;
},
{
name = _segment.CUT;
options = 1;
scale = (-1,1);
type = Segment;
},
{
name = _corner.ROUND;
type = Corner;
},
{
name = _corner.ROUND;
scale = (0.3,0.3);
type = Corner;
},
{
name = _corner.ROUND;
scale = (0.3,0.3);
type = Corner;
},
{
name = _corner.ROUND;
options = 2;
scale = (-0.3,0.3);
type = Corner;
},
{
name = _corner.ROUND;
options = 2;
scale = (-0.3,0.3);
type = Corner;
},
{
name = _corner.ROUND;
type = Corner;
},
{
name = _corner.ROUND;
type = Corner;
},
{
name = _corner.ROUND;
type = Corner;
},
{
name = _segment.CUT;
options = 1;
scale = (-1,1);
type = Segment;
},
{
name = _corner.ROUND;
scale = (0.3,0.3);
type = Corner;
},
{
name = _corner.ROUND;
scale = (0.3,0.3);
type = Corner;
},
{
name = _corner.ROUND;
options = 2;
scale = (-0.3,0.3);
type = Corner;
},
{
name = _corner.ROUND;
options = 2;
scale = (-0.3,0.3);
type = Corner;
},
{
name = _corner.ROUND;
origin = (1,1);
type = Corner;
},
{
name = _corner.ROUND;
origin = (1,2);
type = Corner;
},
{
name = _corner.ROUND;
origin = (1,3);
type = Corner;
},
{
name = _segment.CUT;
options = 1;
origin = (1,5);
scale = (-1,1);
type = Segment;
},
{
name = _corner.ROUND;
origin = (1,12);
scale = (0.3,0.3);
type = Corner;
},
{
name = _corner.ROUND;
origin = (1,13);
scale = (0.3,0.3);
type = Corner;
},
{
name = _corner.ROUND;
options = 2;
origin = (1,14);
scale = (-0.3,0.3);
type = Corner;
},
{
name = _corner.ROUND;
options = 2;
origin = (1,15);
scale = (-0.3,0.3);
type = Corner;
}
);
shapes = (
{
closed = 0;
nodes = (
(22,200,l),
(172,200,l)
);
},
{
closed = 1;
nodes = (
(22,200,l),
(22,0,l),
(412,0,l),
(412,520,l),
(262,520,l),
(172,520,l),
(172,590,l),
(387,590,l),
(387,700,l),
(22,700,l),
(22,368,l),
(172,368,l),
(172,410,l),
(262,410,l),
(262,110,l),
(172,110,l),
(172,200,l)
);
}
);
};
hints = (
{
name = _corner.ROUND;
origin = (0,1);
type = Corner;
},
{
name = _corner.ROUND;
origin = (0,2);
type = Corner;
},
{
name = _corner.ROUND;
origin = (0,3);
type = Corner;
},
{
name = _segment.CUT;
options = 1;
origin = (0,5);
scale = (-1,1);
type = Segment;
},
{
name = _corner.ROUND;
origin = (0,12);
scale = (0.3,0.3);
type = Corner;
},
{
name = _corner.ROUND;
origin = (0,13);
scale = (0.3,0.3);
type = Corner;
},
{
name = _corner.ROUND;
options = 2;
origin = (0,14);
scale = (-0.3,0.3);
type = Corner;
},
{
name = _corner.ROUND;
options = 2;
origin = (0,15);
scale = (-0.3,0.3);
type = Corner;
}
);
layerId = m01;
shapes = (
{
closed = 1;
nodes = (
(22,200,l),
(22,0,l),
(412,0,l),
(412,460,l),
(262,460,l),
(172,460,l),
(172,540,l),
(387,540,l),
(387,650,l),
(22,650,l),
(22,308,l),
(172,308,l),
(172,350,l),
(262,350,l),
(262,110,l),
(172,110,l),
(172,200,l)
);
}
);
width = 434;
},
{
backgroundImage = {
crop = (203.244,0,41.864,80);
imagePath = "../png/0123456789.png";
locked = 1;
pos = (-2067,-120);
scale = (10.3668,10.3668);
};
hints = (
{
name = _corner.ROUND;
origin = (0,1);
type = Corner;
},
{
name = _corner.ROUND;
origin = (0,2);
type = Corner;
},
{
name = _corner.ROUND;
origin = (0,3);
type = Corner;
},
{
name = _segment.CUT;
options = 1;
origin = (0,5);
scale = (-1,1);
type = Segment;
},
{
name = _corner.ROUND;
origin = (0,12);
scale = (0.8,0.5);
type = Corner;
},
{
name = _corner.ROUND;
origin = (0,13);
scale = (0.5,0.5);
type = Corner;
},
{
name = _corner.ROUND;
options = 2;
origin = (0,14);
scale = (-0.5,0.5);
type = Corner;
},
{
name = _corner.ROUND;
options = 2;
origin = (0,15);
scale = (-0.5,0.5);
type = Corner;
}
);
layerId = m002;
shapes = (
{
closed = 1;
nodes = (
(62,200,l),
(62,0,l),
(452,0,l),
(452,460,l),
(302,460,l),
(132,460,l),
(132,590,l),
(427,590,l),
(427,650,l),
(62,650,l),
(62,308,l),
(132,308,l),
(132,400,l),
(382,400,l),
(382,60,l),
(132,60,l),
(132,200,l)
);
}
);
width = 514;
}
);
metricLeft = "=O";
metricRight = "=O";
unicode = 53;
},
{
glyphname = six;
kernLeft = six;
kernRight = six;
lastChange = "2025-09-26 20:39:28 +0000";
layers = (
{
background = {
hints = (
{
name = _corner.ROUND;
type = Corner;
},
{
name = _corner.ROUND;
type = Corner;
},
{
name = _segment.CUT;
options = 1;
scale = (-1,1);
type = Segment;
},
{
name = _corner.ROUND;
type = Corner;
},
{
name = _corner.ROUND;
scale = (0.3,0.3);
type = Corner;
},
{
name = _corner.ROUND;
scale = (0.3,0.3);
type = Corner;
},
{
name = _corner.ROUND;
options = 2;
scale = (-0.3,0.3);
type = Corner;
},
{
name = _corner.ROUND;
options = 2;
scale = (-0.3,0.3);
type = Corner;
},
{
name = _corner.ROUND;
scale = (0.3,0.3);
type = Corner;
},
{
name = _corner.ROUND;
scale = (0.3,0.3);
type = Corner;
},
{
name = _segment.CUT;
scale = (-1,-1);
type = Segment;
},
{
name = _corner.ROUND;
type = Corner;
},
{
name = _corner.ROUND;
type = Corner;
},
{
name = _corner.ROUND;
type = Corner;
},
{
name = _corner.ROUND;
type = Corner;
},
{
name = _corner.ROUND;
type = Corner;
},
{
name = _corner.ROUND;
options = 2;
scale = (-0.3,0.3);
type = Corner;
},
{
name = _corner.ROUND;
scale = (0.3,0.3);
type = Corner;
},
{
name = _corner.ROUND;
scale = (0.3,0.3);
type = Corner;
},
{
name = _corner.ROUND;
options = 2;
scale = (-0.3,0.3);
type = Corner;
},
{
name = _corner.ROUND;
scale = (0.3,0.3);
type = Corner;
},
{
name = _corner.ROUND;
scale = (0.3,0.3);
type = Corner;
},
{
name = _segment.CUT;
scale = (-1,-1);
type = Segment;
},
{
name = _corner.ROUND;
type = Corner;
},
{
name = _corner.ROUND;
type = Corner;
},
{
name = _corner.ROUND;
type = Corner;
},
{
name = _corner.ROUND;
type = Corner;
},
{
name = _corner.ROUND;
type = Corner;
},
{
name = _corner.ROUND;
options = 2;
scale = (-0.3,0.3);
type = Corner;
},
{
name = _corner.ROUND;
scale = (0.3,0.3);
type = Corner;
},
{
name = _corner.ROUND;
scale = (0.3,0.3);
type = Corner;
},
{
name = _corner.ROUND;
options = 2;
scale = (-0.3,0.3);
type = Corner;
},
{
name = _corner.ROUND;
scale = (0.3,0.3);
type = Corner;
},
{
name = _corner.ROUND;
scale = (0.3,0.3);
type = Corner;
},
{
name = _segment.CUT;
scale = (-1,-1);
type = Segment;
},
{
name = _corner.ROUND;
type = Corner;
},
{
name = _corner.ROUND;
type = Corner;
},
{
name = _corner.ROUND;
type = Corner;
},
{
name = _corner.ROUND;
type = Corner;
},
{
name = _corner.ROUND;
type = Corner;
},
{
name = _corner.ROUND;
options = 2;
scale = (-0.3,0.3);
type = Corner;
},
{
name = _corner.ROUND;
scale = (0.3,0.3);
type = Corner;
},
{
name = _corner.ROUND;
scale = (0.3,0.3);
type = Corner;
},
{
name = _corner.ROUND;
options = 2;
scale = (-0.3,0.3);
type = Corner;
},
{
name = _corner.ROUND;
origin = (0,0);
scale = (0.3,0.3);
type = Corner;
},
{
name = _corner.ROUND;
origin = (0,1);
scale = (0.3,0.3);
type = Corner;
},
{
name = _segment.CUT;
origin = (0,3);
scale = (-1,-1);
type = Segment;
},
{
name = _corner.ROUND;
origin = (0,4);
type = Corner;
},
{
name = _corner.ROUND;
origin = (0,5);
type = Corner;
},
{
name = _corner.ROUND;
origin = (0,6);
type = Corner;
},
{
name = _corner.ROUND;
origin = (0,7);
type = Corner;
},
{
name = _corner.ROUND;
origin = (0,8);
type = Corner;
},
{
name = _corner.ROUND;
options = 2;
origin = (1,0);
scale = (-0.3,0.3);
type = Corner;
},
{
name = _corner.ROUND;
origin = (1,1);
scale = (0.3,0.3);
type = Corner;
},
{
name = _corner.ROUND;
origin = (1,2);
scale = (0.3,0.3);
type = Corner;
},
{
name = _corner.ROUND;
options = 2;
origin = (1,3);
scale = (-0.3,0.3);
type = Corner;
}
);
shapes = (
{
closed = 1;
nodes = (
(262,540,l),
(172,540,l),
(172,455,l),
(262,455,l),
(412,455,l),
(412,0,l),
(22,0,l),
(22,650,l),
(412,650,l),
(412,496,l),
(262,496,l)
);
},
{
closed = 1;
nodes = (
(262,110,l),
(262,345,l),
(172,345,l),
(172,110,l)
);
}
);
};
hints = (
{
name = _corner.ROUND;
origin = (0,5);
type = Corner;
},
{
name = _corner.ROUND;
origin = (0,4);
type = Corner;
},
{
name = _corner.ROUND;
origin = (0,6);
type = Corner;
},
{
name = _corner.ROUND;
origin = (1,2);
scale = (0.3,0.3);
type = Corner;
},
{
name = _corner.ROUND;
origin = (1,1);
scale = (0.3,0.3);
type = Corner;
},
{
name = _corner.ROUND;
options = 2;
origin = (1,0);
scale = (-0.3,0.3);
type = Corner;
},
{
name = _corner.ROUND;
options = 2;
origin = (1,3);
scale = (-0.3,0.3);
type = Corner;
},
{
name = _corner.ROUND;
origin = (0,7);
type = Corner;
},
{
name = _corner.ROUND;
origin = (0,8);
type = Corner;
},
{
name = _corner.ROUND;
origin = (0,0);
scale = (0.3,0.3);
type = Corner;
},
{
name = _corner.ROUND;
origin = (0,1);
scale = (0.3,0.3);
type = Corner;
},
{
name = _segment.CUT;
origin = (0,3);
scale = (-1,-1);
type = Segment;
}
);
layerId = m01;
shapes = (
{
closed = 1;
nodes = (
(262,540,l),
(172,540,l),
(172,455,l),
(262,455,l),
(412,455,l),
(412,0,l),
(22,0,l),
(22,650,l),
(412,650,l),
(412,496,l),
(262,496,l)
);
},
{
closed = 1;
nodes = (
(262,110,l),
(262,345,l),
(172,345,l),
(172,110,l)
);
}
);
width = 434;
},
{
backgroundImage = {
crop = (245.687,0,41.864,80);
imagePath = "../png/0123456789.png";
locked = 1;
pos = (-2507,-120);
scale = (10.3668,10.3668);
};
hints = (
{
name = _corner.ROUND;
origin = (0,5);
type = Corner;
},
{
name = _corner.ROUND;
origin = (0,4);
type = Corner;
},
{
name = _corner.ROUND;
origin = (0,6);
type = Corner;
},
{
name = _corner.ROUND;
origin = (1,2);
scale = (0.5,0.8);
type = Corner;
},
{
name = _corner.ROUND;
origin = (1,1);
scale = (0.5,0.5);
type = Corner;
},
{
name = _corner.ROUND;
options = 2;
origin = (1,0);
scale = (-0.5,0.5);
type = Corner;
},
{
name = _corner.ROUND;
options = 2;
origin = (1,3);
scale = (-0.5,0.5);
type = Corner;
},
{
name = _corner.ROUND;
origin = (0,7);
type = Corner;
},
{
name = _corner.ROUND;
origin = (0,8);
type = Corner;
},
{
name = _corner.ROUND;
origin = (0,0);
scale = (0.5,0.5);
type = Corner;
},
{
name = _corner.ROUND;
origin = (0,1);
scale = (0.5,0.5);
type = Corner;
},
{
name = _segment.CUT;
origin = (0,3);
scale = (-1,-1);
type = Segment;
}
);
layerId = m002;
shapes = (
{
closed = 1;
nodes = (
(382,590,l),
(132,590,l),
(132,455,l),
(302,455,l),
(452,455,l),
(452,0,l),
(62,0,l),
(62,650,l),
(452,650,l),
(452,496,l),
(382,496,l)
);
},
{
closed = 1;
nodes = (
(382,60,l),
(382,395,l),
(132,395,l),
(132,60,l)
);
}
);
width = 514;
}
);
metricLeft = "=O";
metricRight = "=O";
unicode = 54;
},
{
glyphname = seven;
kernLeft = seven;
kernRight = seven;
lastChange = "2025-09-26 20:39:28 +0000";
layers = (
{
layerId = m01;
shapes = (
{
closed = 1;
nodes = (
(377,540,l),
(377,650,l),
(17,650,l),
(17,540,l),
(227,540,l),
(67,0,l),
(217,0,l)
);
}
);
width = 394;
},
{
backgroundImage = {
crop = (290.06,0,38.006,80);
imagePath = "../png/0123456789.png";
locked = 1;
pos = (-2977,-120);
scale = (10.3668,10.3668);
};
layerId = m002;
shapes = (
{
closed = 1;
nodes = (
(407,590,l),
(407,650,l),
(47,650,l),
(47,590,l),
(337,590,l),
(177,0,l),
(247,0,l)
);
}
);
width = 454;
}
);
metricLeft = "=O*.75";
metricRight = "=O*.75";
unicode = 55;
},
{
glyphname = eight;
kernLeft = eight;
kernRight = eight;
lastChange = "2025-09-26 20:39:28 +0000";
layers = (
{
hints = (
{
name = _corner.ROUND;
origin = (0,7);
type = Corner;
},
{
name = _corner.ROUND;
origin = (0,0);
type = Corner;
},
{
name = _segment.DOUBLECUT;
origin = (0,2);
type = Segment;
},
{
name = _corner.ROUND;
origin = (2,0);
scale = (0.3,0.3);
type = Corner;
},
{
name = _corner.ROUND;
options = 2;
origin = (2,1);
scale = (-0.3,0.3);
type = Corner;
},
{
name = _corner.ROUND;
origin = (2,2);
scale = (0.3,0.3);
type = Corner;
},
{
name = _corner.ROUND;
options = 2;
origin = (1,1);
scale = (-0.3,0.3);
type = Corner;
},
{
name = _corner.ROUND;
origin = (1,2);
scale = (0.3,0.3);
type = Corner;
},
{
name = _corner.ROUND;
origin = (1,3);
scale = (0.3,0.3);
type = Corner;
},
{
name = _corner.ROUND;
origin = (2,0);
scale = (0.3,0.3);
type = Corner;
},
{
name = _corner.ROUND;
origin = (2,3);
scale = (0.3,0.3);
type = Corner;
},
{
name = _corner.ROUND;
origin = (1,0);
scale = (0.3,0.3);
type = Corner;
},
{
name = _segment.DOUBLECUT;
origin = (0,6);
type = Segment;
},
{
name = _corner.ROUND;
origin = (0,4);
type = Corner;
},
{
name = _corner.ROUND;
origin = (0,3);
type = Corner;
}
);
layerId = m01;
shapes = (
{
closed = 1;
nodes = (
(412,0,l),
(412,230,l),
(412,420,l),
(412,650,l),
(22,650,l),
(22,420,l),
(22,230,l),
(22,0,l)
);
},
{
closed = 1;
nodes = (
(172,270,l),
(262,270,l),
(262,110,l),
(172,110,l)
);
},
{
closed = 1;
nodes = (
(172,540,l),
(262,540,l),
(262,380,l),
(172,380,l)
);
}
);
width = 434;
},
{
backgroundImage = {
crop = (326.715,0,41.864,80);
imagePath = "../png/0123456789.png";
locked = 1;
pos = (-3347,-120);
scale = (10.3668,10.3668);
};
hints = (
{
name = _corner.ROUND;
origin = (0,7);
type = Corner;
},
{
name = _corner.ROUND;
origin = (0,0);
type = Corner;
},
{
name = _segment.DOUBLECUT;
origin = (0,2);
scale = (0.8,0.8);
type = Segment;
},
{
name = _corner.ROUND;
origin = (2,0);
scale = (0.5,0.5);
type = Corner;
},
{
name = _corner.ROUND;
options = 2;
origin = (2,1);
scale = (-0.5,0.5);
type = Corner;
},
{
name = _corner.ROUND;
origin = (2,2);
scale = (0.5,0.5);
type = Corner;
},
{
name = _corner.ROUND;
options = 2;
origin = (1,1);
scale = (-0.5,0.5);
type = Corner;
},
{
name = _corner.ROUND;
origin = (1,2);
scale = (0.5,0.5);
type = Corner;
},
{
name = _corner.ROUND;
origin = (1,3);
scale = (0.5,0.5);
type = Corner;
},
{
name = _corner.ROUND;
origin = (2,0);
scale = (0.3,0.3);
type = Corner;
},
{
name = _corner.ROUND;
origin = (2,3);
scale = (0.5,0.5);
type = Corner;
},
{
name = _corner.ROUND;
origin = (1,0);
scale = (0.5,0.5);
type = Corner;
},
{
name = _segment.DOUBLECUT;
origin = (0,6);
scale = (0.8,0.8);
type = Segment;
},
{
name = _corner.ROUND;
origin = (0,4);
type = Corner;
},
{
name = _corner.ROUND;
origin = (0,3);
type = Corner;
}
);
layerId = m002;
shapes = (
{
closed = 1;
nodes = (
(452,0,l),
(452,230,l),
(452,420,l),
(452,650,l),
(62,650,l),
(62,420,l),
(62,230,l),
(62,0,l)
);
},
{
closed = 1;
nodes = (
(132,295,l),
(382,295,l),
(382,60,l),
(132,60,l)
);
},
{
closed = 1;
nodes = (
(132,590,l),
(382,590,l),
(382,355,l),
(132,355,l)
);
}
);
width = 514;
}
);
metricLeft = "=O";
metricRight = "=O";
unicode = 56;
},
{
glyphname = nine;
kernLeft = nine;
kernRight = nine;
lastChange = "2025-09-26 20:39:28 +0000";
layers = (
{
hints = (
{
name = _corner.ROUND;
origin = (0,0);
scale = (0.3,0.3);
type = Corner;
},
{
name = _corner.ROUND;
origin = (0,1);
scale = (0.3,0.3);
type = Corner;
},
{
name = _segment.CUT;
origin = (0,3);
scale = (-1,-1);
type = Segment;
},
{
name = _corner.ROUND;
origin = (0,4);
type = Corner;
},
{
name = _corner.ROUND;
origin = (0,5);
type = Corner;
},
{
name = _corner.ROUND;
origin = (0,6);
type = Corner;
},
{
name = _corner.ROUND;
origin = (0,7);
type = Corner;
},
{
name = _corner.ROUND;
origin = (0,8);
type = Corner;
},
{
name = _corner.ROUND;
options = 2;
origin = (1,0);
scale = (-0.3,0.3);
type = Corner;
},
{
name = _corner.ROUND;
origin = (1,1);
scale = (0.3,0.3);
type = Corner;
},
{
name = _corner.ROUND;
origin = (1,2);
scale = (0.3,0.3);
type = Corner;
},
{
name = _corner.ROUND;
options = 2;
origin = (1,3);
scale = (-0.3,0.3);
type = Corner;
}
);
layerId = m01;
shapes = (
{
closed = 1;
nodes = (
(172,110,l),
(262,110,l),
(262,195,l),
(162,195,l),
(22,195,l),
(22,650,l),
(412,650,l),
(412,0,l),
(22,0,l),
(22,154,l),
(172,154,l)
);
},
{
closed = 1;
nodes = (
(172,540,l),
(172,305,l),
(262,305,l),
(262,540,l)
);
}
);
width = 434;
},
{
backgroundImage = {
crop = (369.158,0,39.842,80);
imagePath = "../png/0123456789.png";
locked = 1;
pos = (-3787,-120);
scale = (10.3668,10.3668);
};
hints = (
{
name = _corner.ROUND;
origin = (0,0);
scale = (0.5,0.5);
type = Corner;
},
{
name = _corner.ROUND;
origin = (0,1);
scale = (0.5,0.5);
type = Corner;
},
{
name = _segment.CUT;
origin = (0,3);
scale = (-1,-1);
type = Segment;
},
{
name = _corner.ROUND;
origin = (0,4);
type = Corner;
},
{
name = _corner.ROUND;
origin = (0,5);
type = Corner;
},
{
name = _corner.ROUND;
origin = (0,6);
type = Corner;
},
{
name = _corner.ROUND;
origin = (0,7);
type = Corner;
},
{
name = _corner.ROUND;
origin = (0,8);
type = Corner;
},
{
name = _corner.ROUND;
options = 2;
origin = (1,0);
scale = (-0.5,0.5);
type = Corner;
},
{
name = _corner.ROUND;
origin = (1,1);
scale = (0.5,0.5);
type = Corner;
},
{
name = _corner.ROUND;
origin = (1,2);
scale = (0.5,0.8);
type = Corner;
},
{
name = _corner.ROUND;
options = 2;
origin = (1,3);
scale = (-0.5,0.5);
type = Corner;
}
);
layerId = m002;
shapes = (
{
closed = 1;
nodes = (
(132,60,l),
(382,60,l),
(382,195,l),
(202,195,l),
(62,195,l),
(62,650,l),
(452,650,l),
(452,0,l),
(62,0,l),
(62,154,l),
(132,154,l)
);
},
{
closed = 1;
nodes = (
(132,590,l),
(132,255,l),
(382,255,l),
(382,590,l)
);
}
);
width = 514;
}
);
metricLeft = "=O";
metricRight = "=O";
unicode = 57;
},
{
glyphname = .notdef;
lastChange = "2025-09-26 20:39:28 +0000";
layers = (
{
hints = (
{
name = _corner.ROUND;
origin = (0,0);
scale = (0.3,0.3);
type = Corner;
},
{
name = _corner.ROUND;
origin = (0,1);
scale = (0.3,0.3);
type = Corner;
},
{
name = _corner.ROUND;
origin = (0,2);
scale = (0.3,0.3);
type = Corner;
},
{
name = _corner.ROUND;
origin = (0,3);
scale = (0.3,0.3);
type = Corner;
}
);
layerId = m01;
shapes = (
{
closed = 1;
nodes = (
(25,225,l),
(325,225,l),
(325,525,l),
(25,525,l)
);
}
);
width = 350;
},
{
hints = (
{
name = _corner.ROUND;
origin = (0,0);
scale = (0.3,0.3);
type = Corner;
},
{
name = _corner.ROUND;
origin = (0,1);
scale = (0.3,0.3);
type = Corner;
},
{
name = _corner.ROUND;
origin = (0,2);
scale = (0.3,0.3);
type = Corner;
},
{
name = _corner.ROUND;
origin = (0,3);
scale = (0.3,0.3);
type = Corner;
}
);
layerId = m002;
shapes = (
{
closed = 1;
nodes = (
(70,275,l),
(270,275,l),
(270,475,l),
(70,475,l)
);
}
);
width = 340;
}
);
metricLeft = "=H";
metricRight = "=H";
},
{
glyphname = period;
kernLeft = period;
kernRight = period;
lastChange = "2025-09-26 21:20:26 +0000";
layers = (
{
layerId = m01;
shapes = (
{
closed = 1;
nodes = (
(181,150,l),
(31,150,l),
(31,0,l),
(181,0,l)
);
}
);
width = 212;
},
{
layerId = m002;
shapes = (
{
closed = 1;
nodes = (
(143,80,l),
(73,80,l),
(73,0,l),
(143,0,l)
);
}
);
width = 216;
}
);
metricLeft = "=h*1.25";
metricRight = "=h*1.25";
unicode = 46;
},
{
glyphname = comma;
kernLeft = period;
kernRight = period;
lastChange = "2025-09-26 20:37:22 +0000";
layers = (
{
background = {
hints = (
{
name = _corner.ROUND;
origin = (0,1);
scale = (0.3,0.3);
type = Corner;
},
{
name = _corner.ROUND;
origin = (0,4);
type = Corner;
}
);
shapes = (
{
closed = 1;
nodes = (
(31,50,l),
(31,-40,l),
(-39,-40,l),
(-39,-150,l),
(141,-150,l),
(141,50,l)
);
},
{
closed = 1;
nodes = (
(141,110,l),
(31,110,l),
(31,0,l),
(141,0,l)
);
}
);
};
hints = (
{
name = _corner.ROUND;
origin = (0,3);
scale = (0.3,0.3);
type = Corner;
},
{
name = _corner.ROUND;
origin = (0,6);
scale = (0.7,0.7);
type = Corner;
}
);
layerId = m01;
shapes = (
{
closed = 1;
nodes = (
(31,150,l),
(31,0,l),
(110,0,l),
(110,-55,l),
(51,-55,l),
(51,-110,l),
(181,-110,l),
(181,150,l)
);
}
);
width = 212;
},
{
hints = (
{
name = _corner.ROUND;
origin = (0,3);
scale = (0.2,0.2);
type = Corner;
},
{
name = _corner.ROUND;
origin = (0,6);
scale = (0.5,0.5);
type = Corner;
}
);
layerId = m002;
shapes = (
{
closed = 1;
nodes = (
(83,80,l),
(83,0,l),
(113,0,l),
(113,-45,l),
(73,-45,l),
(73,-80,l),
(153,-80,l),
(153,80,l)
);
}
);
width = 226;
}
);
metricLeft = "=h*1.25";
metricRight = "=h*1.25";
unicode = 44;
},
{
glyphname = exclam;
kernLeft = exclam;
kernRight = exclam;
lastChange = "2025-09-26 20:37:22 +0000";
layers = (
{
layerId = m01;
shapes = (
{
closed = 1;
nodes = (
(36,650,l),
(36,200,l),
(176,200,l),
(176,650,l)
);
},
{
ref = period;
}
);
width = 212;
},
{
layerId = m002;
shapes = (
{
closed = 1;
nodes = (
(73,650,l),
(73,200,l),
(143,200,l),
(143,650,l)
);
},
{
pos = (10,0);
ref = period;
}
);
width = 226;
}
);
metricLeft = "=h*1.25";
metricRight = "=h*1.25";
unicode = 33;
},
{
glyphname = question;
kernLeft = question;
kernRight = question;
lastChange = "2025-09-26 20:39:28 +0000";
layers = (
{
guides = (
{
angle = 90;
pos = (217,75);
}
);
hints = (
{
name = _corner.ROUND;
origin = (0,7);
type = Corner;
},
{
name = _corner.ROUND;
origin = (0,8);
scale = (1.08,1.08);
type = Corner;
},
{
name = _corner.ROUND;
options = 2;
origin = (0,11);
scale = (-0.3,0.3);
type = Corner;
},
{
name = _corner.ROUND;
origin = (0,12);
scale = (0.3,0.3);
type = Corner;
}
);
layerId = m01;
shapes = (
{
closed = 1;
nodes = (
(262,329,o),
(147,391,o),
(147,200,c),
(287,200,l),
(287,351,o),
(412,289,o),
(412,455,c),
(412,650,l),
(22,650,l),
(22,455,l),
(172,455,l),
(172,540,l),
(262,540,l),
(262,455,l)
);
},
{
closed = 1;
nodes = (
(292,150,l),
(142,150,l),
(142,0,l),
(292,0,l)
);
}
);
width = 434;
},
{
guides = (
{
angle = 90;
pos = (257,75);
}
);
hints = (
{
name = _corner.ROUND;
origin = (0,7);
type = Corner;
},
{
name = _corner.ROUND;
origin = (0,8);
scale = (1.08,1.08);
type = Corner;
},
{
name = _corner.ROUND;
options = 2;
origin = (0,11);
scale = (-0.5,0.5);
type = Corner;
},
{
name = _corner.ROUND;
origin = (0,12);
scale = (0.5,0.5);
type = Corner;
}
);
layerId = m002;
shapes = (
{
closed = 1;
nodes = (
(382,329,o),
(227,391,o),
(227,200,c),
(287,200,l),
(287,351,o),
(452,289,o),
(452,455,c),
(452,650,l),
(62,650,l),
(62,455,l),
(132,455,l),
(132,590,l),
(382,590,l),
(382,455,l)
);
},
{
closed = 1;
nodes = (
(292,70,l),
(222,70,l),
(222,0,l),
(292,0,l)
);
}
);
width = 514;
}
);
metricLeft = "=O";
metricRight = "=O";
unicode = 63;
},
{
glyphname = bullet;
kernLeft = bullet;
kernRight = bullet;
lastChange = "2025-09-26 20:37:22 +0000";
layers = (
{
hints = (
{
name = _corner.ROUND;
origin = (0,3);
scale = (0.3,0.3);
type = Corner;
},
{
name = _corner.ROUND;
origin = (0,0);
scale = (0.3,0.3);
type = Corner;
},
{
name = _corner.ROUND;
origin = (0,1);
scale = (0.3,0.3);
type = Corner;
},
{
name = _corner.ROUND;
origin = (0,2);
scale = (0.3,0.3);
type = Corner;
}
);
layerId = m01;
shapes = (
{
closed = 1;
nodes = (
(25,175,l),
(175,175,l),
(175,325,l),
(25,325,l)
);
}
);
width = 200;
},
{
hints = (
{
name = _corner.ROUND;
origin = (0,3);
scale = (0.2,0.2);
type = Corner;
},
{
name = _corner.ROUND;
origin = (0,0);
scale = (0.2,0.2);
type = Corner;
},
{
name = _corner.ROUND;
origin = (0,1);
scale = (0.2,0.2);
type = Corner;
},
{
name = _corner.ROUND;
origin = (0,2);
scale = (0.2,0.2);
type = Corner;
}
);
layerId = m002;
shapes = (
{
closed = 1;
nodes = (
(58,255,l),
(128,255,l),
(128,325,l),
(58,325,l)
);
}
);
width = 186;
}
);
metricLeft = "=h";
metricRight = "=h";
unicode = 8226;
},
{
glyphname = asterisk;
kernLeft = asterisk;
kernRight = asterisk;
lastChange = "2025-09-26 21:18:32 +0000";
layers = (
{
layerId = m01;
shapes = (
{
closed = 1;
nodes = (
(163,650,l),
(163,285,l),
(243,285,l),
(243,650,l)
);
},
{
closed = 1;
nodes = (
(341,593,l),
(25,411,l),
(65,342,l),
(381,524,l)
);
},
{
closed = 1;
nodes = (
(25,524,l),
(341,342,l),
(381,411,l),
(65,593,l)
);
}
);
width = 406;
},
{
layerId = m002;
shapes = (
{
closed = 1;
nodes = (
(186,650,l),
(186,325,l),
(236,325,l),
(236,650,l)
);
},
{
closed = 1;
nodes = (
(339,590,l),
(58,428,l),
(83,385,l),
(364,547,l)
);
},
{
closed = 1;
nodes = (
(58,547,l),
(339,385,l),
(364,428,l),
(83,590,l)
);
}
);
width = 422;
}
);
metricLeft = "=h";
metricRight = "=h";
unicode = 42;
},
{
glyphname = numbersign;
kernLeft = numbersign;
kernRight = numbersign;
lastChange = "2025-09-26 20:39:28 +0000";
layers = (
{
layerId = m01;
shapes = (
{
closed = 1;
nodes = (
(285,650,l),
(115,0,l),
(225,0,l),
(395,650,l)
);
},
{
closed = 1;
nodes = (
(485,650,l),
(309,0,l),
(419,0,l),
(595,650,l)
);
},
{
closed = 1;
nodes = (
(665,480,l),
(105,480,l),
(75,370,l),
(635,370,l)
);
},
{
closed = 1;
nodes = (
(615,280,l),
(55,280,l),
(25,170,l),
(585,170,l)
);
}
);
width = 690;
},
{
layerId = m002;
shapes = (
{
closed = 1;
nodes = (
(330,650,l),
(160,0,l),
(220,0,l),
(390,650,l)
);
},
{
closed = 1;
nodes = (
(580,650,l),
(404,0,l),
(464,0,l),
(640,650,l)
);
},
{
closed = 1;
nodes = (
(710,480,l),
(150,480,l),
(130,420,l),
(690,420,l)
);
},
{
closed = 1;
nodes = (
(650,230,l),
(90,230,l),
(70,170,l),
(630,170,l)
);
}
);
width = 780;
}
);
metricLeft = "=H";
metricRight = "=H";
unicode = 35;
},
{
glyphname = slash;
kernLeft = slash;
kernRight = slash;
lastChange = "2025-09-26 20:37:22 +0000";
layers = (
{
layerId = m01;
shapes = (
{
closed = 1;
nodes = (
(122,-27,l),
(322,670,l),
(222,670,l),
(22,-27,l)
);
}
);
width = 344;
},
{
layerId = m002;
shapes = (
{
closed = 1;
nodes = (
(120,-27,l),
(320,670,l),
(250,670,l),
(50,-27,l)
);
}
);
width = 370;
}
);
metricLeft = "=o";
metricRight = "=o";
unicode = 47;
},
{
glyphname = hyphen;
kernLeft = hyphen;
kernRight = hyphen;
lastChange = "2025-09-26 20:37:22 +0000";
layers = (
{
layerId = m01;
shapes = (
{
closed = 1;
nodes = (
(331,300,l),
(31,300,l),
(31,200,l),
(331,200,l)
);
}
);
width = 362;
},
{
layerId = m002;
shapes = (
{
closed = 1;
nodes = (
(343,280,l),
(73,280,l),
(73,220,l),
(343,220,l)
);
}
);
width = 416;
}
);
metricLeft = "=h*1.25";
metricRight = "=h*1.25";
unicode = 45;
},
{
glyphname = endash;
kernLeft = hyphen;
kernRight = hyphen;
lastChange = "2025-09-26 20:37:22 +0000";
layers = (
{
layerId = m01;
shapes = (
{
closed = 1;
nodes = (
(486,300,l),
(31,300,l),
(31,200,l),
(486,200,l)
);
}
);
width = 517;
},
{
layerId = m002;
shapes = (
{
closed = 1;
nodes = (
(513,280,l),
(73,280,l),
(73,220,l),
(513,220,l)
);
}
);
width = 586;
}
);
metricLeft = "=h*1.25";
metricRight = "=h*1.25";
unicode = 8211;
},
{
glyphname = emdash;
kernLeft = hyphen;
kernRight = hyphen;
lastChange = "2025-09-26 20:37:22 +0000";
layers = (
{
layerId = m01;
shapes = (
{
closed = 1;
nodes = (
(611,300,l),
(31,300,l),
(31,200,l),
(611,200,l)
);
}
);
width = 642;
},
{
layerId = m002;
shapes = (
{
closed = 1;
nodes = (
(623,280,l),
(73,280,l),
(73,220,l),
(623,220,l)
);
}
);
width = 696;
}
);
metricLeft = "=h*1.25";
metricRight = "=h*1.25";
unicode = 8212;
},
{
glyphname = underscore;
kernLeft = underscore;
kernRight = underscore;
lastChange = "2025-09-26 20:37:22 +0000";
layers = (
{
layerId = m01;
shapes = (
{
closed = 1;
nodes = (
(486,-40,l),
(31,-40,l),
(31,-140,l),
(486,-140,l)
);
}
);
width = 517;
},
{
layerId = m002;
shapes = (
{
closed = 1;
nodes = (
(513,-60,l),
(73,-60,l),
(73,-120,l),
(513,-120,l)
);
}
);
width = 586;
}
);
metricLeft = "=h*1.25";
metricRight = "=h*1.25";
unicode = 95;
},
{
glyphname = parenleft;
kernLeft = parenleft;
kernRight = parenleft;
lastChange = "2025-09-26 20:39:28 +0000";
layers = (
{
hints = (
{
name = _corner.ROUND;
origin = (0,3);
scale = (0.3,0.3);
type = Corner;
},
{
name = _corner.ROUND;
options = 2;
origin = (0,4);
scale = (-0.3,0.3);
type = Corner;
},
{
name = _corner.ROUND;
origin = (0,7);
type = Corner;
},
{
name = _corner.ROUND;
origin = (0,0);
type = Corner;
}
);
layerId = m01;
shapes = (
{
closed = 1;
nodes = (
(25,-150,l),
(175,-150,l),
(175,-95,l),
(135,-95,l),
(135,595,l),
(175,595,l),
(175,650,l),
(25,650,l)
);
}
);
width = 202;
},
{
hints = (
{
name = _corner.ROUND;
origin = (0,3);
scale = (0.5,0.5);
type = Corner;
},
{
name = _corner.ROUND;
options = 2;
origin = (0,4);
scale = (-0.5,0.5);
type = Corner;
},
{
name = _corner.ROUND;
origin = (0,7);
type = Corner;
},
{
name = _corner.ROUND;
origin = (0,0);
type = Corner;
}
);
layerId = m002;
shapes = (
{
closed = 1;
nodes = (
(70,-150,l),
(220,-150,l),
(220,-95,l),
(140,-95,l),
(140,595,l),
(220,595,l),
(220,650,l),
(70,650,l)
);
}
);
width = 290;
}
);
metricLeft = "=H";
metricRight = "=H";
unicode = 40;
},
{
glyphname = braceleft;
kernLeft = braceleft;
kernRight = braceleft;
lastChange = "2025-09-26 20:39:28 +0000";
layers = (
{
hints = (
{
name = _corner.ROUND;
origin = (0,2);
type = Corner;
},
{
name = _corner.ROUND;
origin = (0,5);
scale = (0.3,0.3);
type = Corner;
},
{
name = _corner.ROUND;
options = 2;
origin = (0,8);
scale = (-0.3,0.3);
type = Corner;
},
{
name = _corner.ROUND;
origin = (0,11);
type = Corner;
},
{
name = _segment.DOUBLECUT;
origin = (0,1);
scale = (1,-1);
type = Segment;
},
{
name = _segment.DOUBLECUT;
origin = (0,7);
type = Segment;
}
);
layerId = m01;
shapes = (
{
closed = 1;
nodes = (
(91,413,l),
(91,88,l),
(91,-150,l),
(241,-150,l),
(241,-95,l),
(201,-95,l),
(201,158,l),
(201,343,l),
(201,595,l),
(241,595,l),
(241,650,l),
(91,650,l)
);
}
);
width = 268;
},
{
hints = (
{
name = _corner.ROUND;
origin = (0,2);
scale = (0.8,0.8);
type = Corner;
},
{
name = _corner.ROUND;
origin = (0,5);
scale = (0.3,0.3);
type = Corner;
},
{
name = _corner.ROUND;
options = 2;
origin = (0,8);
scale = (-0.3,0.3);
type = Corner;
},
{
name = _corner.ROUND;
origin = (0,11);
scale = (0.8,0.8);
type = Corner;
},
{
name = _segment.DOUBLECUT;
origin = (0,1);
scale = (0.8,-0.8);
type = Segment;
},
{
name = _segment.DOUBLECUT;
origin = (0,7);
scale = (0.8,0.8);
type = Segment;
}
);
layerId = m002;
shapes = (
{
closed = 1;
nodes = (
(123,413,l),
(123,88,l),
(123,-150,l),
(233,-150,l),
(233,-95,l),
(193,-95,l),
(193,158,l),
(193,343,l),
(193,595,l),
(233,595,l),
(233,650,l),
(123,650,l)
);
}
);
width = 305;
}
);
metricLeft = "=H";
metricRight = "=H";
unicode = 123;
},
{
glyphname = bracketleft;
kernLeft = bracketleft;
kernRight = bracketleft;
lastChange = "2025-09-26 20:39:28 +0000";
layers = (
{
layerId = m01;
shapes = (
{
closed = 1;
nodes = (
(25,-150,l),
(175,-150,l),
(175,-95,l),
(135,-95,l),
(135,595,l),
(175,595,l),
(175,650,l),
(25,650,l)
);
}
);
width = 200;
},
{
layerId = m002;
shapes = (
{
closed = 1;
nodes = (
(70,-150,l),
(180,-150,l),
(180,-95,l),
(140,-95,l),
(140,595,l),
(180,595,l),
(180,650,l),
(70,650,l)
);
}
);
width = 250;
}
);
metricLeft = "=H";
metricRight = "=H";
unicode = 91;
},
